<svg xmlns="http://www.w3.org/2000/svg" version="1.1" xmlns:xlink="http://www.w3.org/1999/xlink" xmlns:svgjs="http://svgjs.com/svgjs" width="512" height="512" x="0" y="0" viewBox="0 0 512 512" style="" xml:space="preserve"><g><path d="m114.1 133.956a16 16 0 0 0 14.5 9.231h77.8v27.481a16 16 0 0 0 32 0v-27.481h7.37a16 16 0 1 0 0-32h-7.37v-96.015a16 16 0 0 0 -28.264-10.272l-93.806 112.015a16 16 0 0 0 -2.23 17.041zm92.3-74.756v51.989h-43.535zm80.97 339.867 83.822-130.867h-61.718a16 16 0 0 1 0-32h90.967a16 16 0 0 1 13.473 24.63l-99.6 155.5a16 16 0 1 1 -26.946-17.26zm83.76-294.007a16 16 0 0 1 0 22.627l-235.858 235.859a16 16 0 0 1 -22.627-22.627l235.855-235.859a16 16 0 0 1 22.63 0zm-280.63-33.522c4.05-14.83 1.483-26-7.629-33.215-10.2-8.07-27.183-9.5-38.664-3.246-8.722 4.75-12.587 12.957-11.487 24.4a16 16 0 1 1 -31.855 3.059c-2.341-24.336 7.878-44.585 28.035-55.562 22.625-12.32 53.672-9.69 73.824 6.254 19.268 15.245 26.062 39.571 18.642 66.74-5.008 18.338-22.15 31.714-42 47.205-10.716 8.362-22.274 17.381-31.965 27.5h66.279a16 16 0 0 1 0 32h-97.345a16 16 0 0 1 -14.4-22.985c13.025-26.844 36.781-45.382 57.74-61.738 14.071-10.981 28.615-22.331 30.825-30.412zm421.5 185.29a256 256 0 0 1 -437.02 181.02 254.327 254.327 0 0 1 -74.98-181.02 16 16 0 0 1 32 0c0 123.514 100.486 224 224 224s224-100.486 224-224c0-112.136-83.714-207.617-194.726-222.1a16 16 0 1 1 4.14-31.728 256.04 256.04 0 0 1 222.586 253.828z" fill="#000000" data-original="#000000"></path></g></svg>