<svg xmlns="http://www.w3.org/2000/svg" version="1.1" xmlns:xlink="http://www.w3.org/1999/xlink" xmlns:svgjs="http://svgjs.com/svgjs" width="512" height="512" x="0" y="0" viewBox="0 0 512 512" style="" xml:space="preserve"><g><path clip-rule="evenodd" d="m118.408 135.867c2.562 5.457 8.005 8.952 14.043 8.952h75.429v26.645c0 8.572 6.953 15.516 15.552 15.516 8.554 0 15.507-6.944 15.507-15.516v-26.645h7.136c8.599 0 15.506-6.944 15.506-15.52 0-8.567-6.907-15.511-15.506-15.511h-7.136v-93.113c0-6.527-4.071-12.355-10.201-14.573-6.129-2.232-13.036-.389-17.199 4.615l-90.981 108.623c-3.889 4.615-4.712 11.066-2.15 16.527zm393.592 119.149c0 68.357-26.618 132.683-74.956 181.021-48.344 48.343-112.677 74.979-181.044 74.979s-132.7-26.636-181.043-74.979c-48.339-48.338-74.957-112.664-74.957-181.021 0-12.846 10.416-23.278 23.264-23.278 12.872 0 23.264 10.411 23.264 23.278 0 115.48 93.997 209.453 209.471 209.453 115.475 0 209.472-93.973 209.472-209.453 0-104.743-78.198-194.128-182.114-207.679-12.714-1.658-21.688-13.371-20.047-26.078 1.643-12.719 13.368-21.738 26.08-20.078 61.273 8.001 117.462 38.007 158.407 84.279 41.43 46.819 64.203 107.041 64.203 169.556zm-304.121-191.646v50.417h-42.174zm78.54 329.577c-4.62 7.214-2.516 16.815 4.711 21.43 2.561 1.656 5.489 2.452 8.325 2.452 5.123 0 10.109-2.52 13.082-7.145l96.607-150.789c3.065-4.785 3.248-10.845.549-15.818-2.745-4.977-7.959-8.069-13.631-8.069h-88.191c-8.6 0-15.506 6.944-15.506 15.516s6.907 15.516 15.506 15.516h59.831zm81.237-285.106c6.038 6.061 6.038 15.886 0 21.948l-228.71 228.71c-3.064 3.028-6.998 4.542-10.978 4.542-3.979 0-7.959-1.514-10.978-4.542-6.038-6.061-6.038-15.882 0-21.942l228.71-228.716c6.038-6.061 15.873-6.061 21.956 0zm-272.165-32.504c3.934-14.381 1.464-25.222-7.365-32.212-9.926-7.827-26.347-9.203-37.508-3.143-8.462 4.606-12.213 12.565-11.115 23.649.778 8.535-5.443 16.12-13.997 16.934-8.508.805-16.101-5.43-16.925-13.956-2.241-23.603 7.639-43.24 27.217-53.875 21.911-11.948 52.009-9.395 71.586 6.061 18.663 14.779 25.25 38.369 18.068 64.716-4.849 17.785-21.499 30.753-40.711 45.774-10.429 8.115-21.636 16.851-31.013 26.663h64.268c8.554 0 15.507 6.943 15.507 15.516 0 8.572-6.953 15.516-15.507 15.516h-94.412c-5.306 0-10.292-2.754-13.128-7.282-2.836-4.529-3.156-10.201-.823-15.012 12.625-26.023 35.679-44.004 55.988-59.858 13.631-10.65 27.766-21.656 29.87-29.491z" fill-rule="evenodd" fill="#000000" data-original="#000000"></path></g></svg>