<svg xmlns="http://www.w3.org/2000/svg" version="1.1" xmlns:xlink="http://www.w3.org/1999/xlink" xmlns:svgjs="http://svgjs.com/svgjs" width="512" height="512" x="0" y="0" viewBox="0 0 511.991 511.991" style="" xml:space="preserve"><g>
<g>
	<g>
		<g>
			<path d="M245.076,331.689c0.928,0.864,2.048,1.344,3.12,1.952c0.624,0.352,1.152,0.864,1.808,1.12
				c1.92,0.8,3.936,1.232,5.984,1.232c2.048,0,4.064-0.432,6-1.216c0.656-0.256,1.184-0.768,1.808-1.12
				c1.056-0.608,2.176-1.088,3.12-1.952l240-224c6.448-6.032,6.8-16.16,0.784-22.624c-6.048-6.464-16.144-6.8-22.64-0.784
				L255.988,298.089L26.916,84.297c-6.48-6.016-16.592-5.68-22.624,0.768c-6.016,6.464-5.664,16.592,0.784,22.624L245.076,331.689z" fill="#000000" data-original="#000000"></path>
			<path d="M485.06,180.297L255.988,394.089L26.916,180.297c-6.464-6.016-16.576-5.664-22.624,0.784
				c-6.016,6.464-5.664,16.592,0.784,22.624l240,224c0.928,0.864,2.048,1.344,3.12,1.952c0.624,0.352,1.152,0.864,1.808,1.12
				c1.92,0.784,3.936,1.216,5.984,1.216c2.048,0,4.064-0.432,6-1.216c0.656-0.256,1.184-0.768,1.808-1.12
				c1.056-0.608,2.176-1.088,3.12-1.952l240-224c6.448-6.032,6.8-16.16,0.784-22.624
				C501.652,174.617,491.556,174.265,485.06,180.297z" fill="#000000" data-original="#000000"></path>
		</g>
	</g>
</g>
<g>
</g>
<g>
</g>
<g>
</g>
<g>
</g>
<g>
</g>
<g>
</g>
<g>
</g>
<g>
</g>
<g>
</g>
<g>
</g>
<g>
</g>
<g>
</g>
<g>
</g>
<g>
</g>
<g>
</g>
</g></svg>