<svg xmlns="http://www.w3.org/2000/svg" version="1.1" xmlns:xlink="http://www.w3.org/1999/xlink" xmlns:svgjs="http://svgjs.com/svgjs" width="512" height="512" x="0" y="0" viewBox="0 0 511.998 511.998" style="" xml:space="preserve"><g>
<g>
	<g>
		<g>
			<path d="M333.129,264.702c0.592-0.896,1.28-1.744,1.664-2.72c0.384-0.96,0.48-1.952,0.672-2.944
				c0.192-1.008,0.48-1.984,0.48-3.024c0-1.04-0.288-2-0.48-3.024c-0.192-1.008-0.288-1.984-0.672-2.944
				c-0.4-0.992-1.072-1.824-1.664-2.72c-0.48-0.736-0.752-1.568-1.376-2.224l-224-240c-6.032-6.48-16.128-6.832-22.624-0.8
				c-6.448,6.032-6.8,16.16-0.784,22.624l213.808,229.072L84.361,485.07c-6.016,6.48-5.68,16.592,0.768,22.624
				c3.104,2.88,7.024,4.304,10.928,4.304c4.288,0,8.544-1.696,11.696-5.072l224-240
				C332.377,266.254,332.633,265.438,333.129,264.702z" fill="#000000" data-original="#000000"></path>
			<path d="M431.465,252.974c-0.192-1.008-0.288-1.984-0.672-2.944c-0.4-0.992-1.072-1.824-1.664-2.72
				c-0.48-0.736-0.752-1.568-1.376-2.224l-224-240c-6.048-6.448-16.144-6.816-22.624-0.784c-6.448,6.032-6.8,16.16-0.784,22.624
				l213.808,229.072L180.361,485.07c-6.016,6.464-5.664,16.592,0.784,22.624c3.088,2.88,7.008,4.304,10.912,4.304
				c4.288,0,8.544-1.696,11.696-5.072l224-240c0.624-0.672,0.896-1.504,1.376-2.24c0.592-0.896,1.28-1.744,1.664-2.72
				c0.384-0.96,0.48-1.952,0.672-2.944c0.192-1.008,0.48-1.984,0.48-3.024C431.945,254.958,431.657,253.998,431.465,252.974z" fill="#000000" data-original="#000000"></path>
		</g>
	</g>
</g>
<g>
</g>
<g>
</g>
<g>
</g>
<g>
</g>
<g>
</g>
<g>
</g>
<g>
</g>
<g>
</g>
<g>
</g>
<g>
</g>
<g>
</g>
<g>
</g>
<g>
</g>
<g>
</g>
<g>
</g>
</g></svg>