<svg xmlns="http://www.w3.org/2000/svg" version="1.1" xmlns:xlink="http://www.w3.org/1999/xlink" xmlns:svgjs="http://svgjs.com/svgjs" width="512" height="512" x="0" y="0" viewBox="0 0 638.922 638.922" style="" xml:space="preserve"><g>
<g>
	<g id="_x34__6_">
		<g>
			<path d="M75.829,319.46L349.65,45.719c10.46-10.46,10.46-27.414,0-37.874c-10.459-10.46-27.44-10.46-37.9,0L21.001,298.487
				c-5.749,5.749-8.038,13.441-7.452,20.973c-0.586,7.533,1.703,15.198,7.452,20.973l290.723,290.644
				c10.46,10.46,27.44,10.46,37.9,0s10.46-27.414,0-37.901L75.829,319.46z M397.399,319.46L617.617,99.323
				c10.46-10.46,10.46-27.415,0-37.901c-10.46-10.46-27.44-10.46-37.9,0L342.571,298.487c-5.749,5.749-8.038,13.441-7.452,20.973
				c-0.586,7.533,1.703,15.198,7.452,20.973L579.717,577.5c10.46,10.459,27.44,10.459,37.9,0c10.46-10.46,10.46-27.415,0-37.875
				L397.399,319.46z" fill="#000000" data-original="#000000"></path>
		</g>
	</g>
</g>
<g>
</g>
<g>
</g>
<g>
</g>
<g>
</g>
<g>
</g>
<g>
</g>
<g>
</g>
<g>
</g>
<g>
</g>
<g>
</g>
<g>
</g>
<g>
</g>
<g>
</g>
<g>
</g>
<g>
</g>
</g></svg>