<svg xmlns="http://www.w3.org/2000/svg" version="1.1" xmlns:xlink="http://www.w3.org/1999/xlink" xmlns:svgjs="http://svgjs.com/svgjs" width="512" height="512" x="0" y="0" viewBox="0 0 512.002 512.002" style="" xml:space="preserve" class=""><g>
<g>
	<g>
		<path d="M399.464,253.01c-0.192-1.008-0.288-2.016-0.672-2.976c-0.4-0.992-1.088-1.824-1.696-2.736
			c-0.496-0.736-0.752-1.568-1.376-2.224c-0.128-0.128-0.288-0.176-0.416-0.288c-0.128-0.128-0.176-0.304-0.32-0.432l-256-240
			c-6.432-6.064-16.576-5.76-22.592,0.704c-6.048,6.448-5.728,16.576,0.72,22.608l243.552,228.336L117.112,484.338
			c-6.448,6.032-6.768,16.16-0.72,22.608c3.136,3.36,7.392,5.056,11.664,5.056c3.92,0,7.856-1.44,10.944-4.336l256-240
			c0.144-0.128,0.192-0.32,0.32-0.448c0.128-0.128,0.288-0.16,0.4-0.288c0.624-0.672,0.896-1.488,1.376-2.224
			c0.608-0.912,1.296-1.744,1.696-2.736c0.384-0.96,0.48-1.968,0.672-2.976c0.192-1.008,0.48-1.968,0.48-2.992
			C399.944,254.978,399.656,254.018,399.464,253.01z" fill="#000000" data-original="#000000"></path>
	</g>
</g>
<g>
</g>
<g>
</g>
<g>
</g>
<g>
</g>
<g>
</g>
<g>
</g>
<g>
</g>
<g>
</g>
<g>
</g>
<g>
</g>
<g>
</g>
<g>
</g>
<g>
</g>
<g>
</g>
<g>
</g>
</g></svg>