<svg xmlns="http://www.w3.org/2000/svg" version="1.1" xmlns:xlink="http://www.w3.org/1999/xlink" xmlns:svgjs="http://svgjs.com/svgjs" width="512" height="512" x="0" y="0" viewBox="0 0 511.997 511.997" style="" xml:space="preserve" class=""><g>
<g>
	<g>
		<path d="M507.671,373.015l-240-256c-0.128-0.128-0.304-0.176-0.432-0.304c-0.128-0.128-0.176-0.304-0.304-0.432
			c-0.688-0.64-1.536-0.928-2.304-1.424c-0.88-0.576-1.68-1.248-2.64-1.632c-1.024-0.416-2.064-0.512-3.136-0.72
			c-0.944-0.176-1.856-0.448-2.816-0.464c-1.088,0-2.128,0.304-3.2,0.512c-0.944,0.192-1.872,0.272-2.784,0.64
			c-1.008,0.4-1.856,1.104-2.784,1.712c-0.72,0.48-1.552,0.752-2.208,1.36c-0.128,0.128-0.176,0.304-0.304,0.432
			c-0.128,0.128-0.304,0.176-0.432,0.304l-240,256c-6.048,6.432-5.712,16.56,0.736,22.608c3.072,2.912,7.008,4.352,10.928,4.352
			c4.272,0,8.512-1.696,11.664-5.056l228.336-243.552l228.336,243.552c3.152,3.36,7.392,5.056,11.664,5.056
			c3.92,0,7.856-1.44,10.944-4.336C513.383,389.575,513.719,379.447,507.671,373.015z" fill="#000000" data-original="#000000" class="" style=""></path>
	</g>
</g>
<g>
</g>
<g>
</g>
<g>
</g>
<g>
</g>
<g>
</g>
<g>
</g>
<g>
</g>
<g>
</g>
<g>
</g>
<g>
</g>
<g>
</g>
<g>
</g>
<g>
</g>
<g>
</g>
<g>
</g>
</g></svg>