<svg xmlns="http://www.w3.org/2000/svg" version="1.1" xmlns:xlink="http://www.w3.org/1999/xlink" xmlns:svgjs="http://svgjs.com/svgjs" width="512" height="512" x="0" y="0" viewBox="0 0 512 512" style="" xml:space="preserve"><g>
<g>
	<g>
		<path d="M151.353,256L394.905,27.664c6.448-6.048,6.768-16.176,0.72-22.608c-6.048-6.448-16.176-6.768-22.624-0.736l-256,240
			c-0.144,0.128-0.176,0.304-0.32,0.432c-0.128,0.128-0.288,0.16-0.416,0.288c-0.624,0.672-0.896,1.488-1.376,2.224
			c-0.608,0.912-1.296,1.744-1.696,2.736c-0.384,0.96-0.48,1.968-0.672,2.976c-0.192,1.008-0.48,1.968-0.48,2.992
			c0.016,1.056,0.304,2.016,0.496,3.024c0.192,1.008,0.288,2.016,0.672,2.976c0.4,0.992,1.088,1.824,1.696,2.736
			c0.496,0.736,0.752,1.568,1.376,2.224c0.112,0.128,0.288,0.16,0.4,0.288c0.128,0.128,0.176,0.32,0.32,0.448l256,240
			c3.104,2.896,7.04,4.336,10.96,4.336c4.272,0,8.528-1.696,11.664-5.056c6.048-6.432,5.712-16.56-0.72-22.608L151.353,256z" fill="#000000" data-original="#000000"></path>
	</g>
</g>
<g>
</g>
<g>
</g>
<g>
</g>
<g>
</g>
<g>
</g>
<g>
</g>
<g>
</g>
<g>
</g>
<g>
</g>
<g>
</g>
<g>
</g>
<g>
</g>
<g>
</g>
<g>
</g>
<g>
</g>
</g></svg>