<svg xmlns="http://www.w3.org/2000/svg" version="1.1" xmlns:xlink="http://www.w3.org/1999/xlink" xmlns:svgjs="http://svgjs.com/svgjs" width="512" height="512" x="0" y="0" viewBox="0 0 512.006 512.006" style="" xml:space="preserve"><g>
<g>
	<g>
		<path d="M506.958,116.339c-6.448-6.048-16.592-5.728-22.624,0.736l-228.32,243.536L27.678,117.059
			c-6.032-6.448-16.16-6.768-22.624-0.736c-6.448,6.048-6.768,16.176-0.72,22.608l240,256c0.128,0.128,0.288,0.176,0.416,0.288
			c0.128,0.128,0.176,0.32,0.32,0.448c0.96,0.896,2.112,1.408,3.216,2.016c0.592,0.336,1.088,0.832,1.712,1.088
			c1.936,0.8,3.968,1.232,6.016,1.232c2.048,0,4.08-0.432,6.016-1.216c0.624-0.256,1.12-0.752,1.712-1.088
			c1.104-0.624,2.256-1.12,3.216-2.016c0.144-0.128,0.192-0.32,0.32-0.448c0.128-0.128,0.288-0.16,0.4-0.288l240-256
			C513.726,132.515,513.39,122.387,506.958,116.339z" fill="#000000" data-original="#000000"></path>
	</g>
</g>
<g>
</g>
<g>
</g>
<g>
</g>
<g>
</g>
<g>
</g>
<g>
</g>
<g>
</g>
<g>
</g>
<g>
</g>
<g>
</g>
<g>
</g>
<g>
</g>
<g>
</g>
<g>
</g>
<g>
</g>
</g></svg>