<svg xmlns="http://www.w3.org/2000/svg" version="1.1" xmlns:xlink="http://www.w3.org/1999/xlink" xmlns:svgjs="http://svgjs.com/svgjs" width="512" height="512" x="0" y="0" viewBox="0 0 511.988 511.988" style="" xml:space="preserve" class=""><g>
<g>
	<g>
		<g>
			<path d="M427.656,485.06L213.848,255.988L427.64,26.916c6.016-6.48,5.68-16.592-0.768-22.624
				c-6.48-6.016-16.576-5.664-22.624,0.784l-224,240c-0.624,0.672-0.88,1.488-1.376,2.224c-0.592,0.896-1.28,1.744-1.664,2.72
				c-0.384,0.96-0.48,1.952-0.672,2.944c-0.192,1.008-0.48,1.984-0.48,3.024c0,1.04,0.288,2,0.48,3.024
				c0.192,1.008,0.288,1.984,0.672,2.944c0.4,0.992,1.072,1.824,1.664,2.72c0.48,0.736,0.752,1.568,1.376,2.224l224,240
				c3.152,3.392,7.408,5.088,11.696,5.088c3.904,0,7.824-1.424,10.928-4.304C433.32,501.652,433.672,491.524,427.656,485.06z" fill="#000000" data-original="#000000"></path>
			<path d="M117.848,255.988L331.64,26.916c6.016-6.464,5.664-16.592-0.784-22.624c-6.464-6.016-16.576-5.664-22.624,0.784l-224,240
				c-0.624,0.672-0.88,1.488-1.376,2.224c-0.592,0.896-1.28,1.744-1.664,2.72c-0.384,0.96-0.48,1.952-0.672,2.944
				c-0.192,1.008-0.48,1.984-0.48,3.024c0,1.04,0.288,2,0.48,3.024c0.192,1.008,0.288,1.984,0.672,2.944
				c0.4,0.992,1.072,1.824,1.664,2.72c0.48,0.736,0.752,1.568,1.376,2.224l224,240c3.168,3.392,7.424,5.088,11.712,5.088
				c3.904,0,7.824-1.424,10.928-4.304c6.448-6.032,6.8-16.16,0.784-22.624L117.848,255.988z" fill="#000000" data-original="#000000"></path>
		</g>
	</g>
</g>
<g>
</g>
<g>
</g>
<g>
</g>
<g>
</g>
<g>
</g>
<g>
</g>
<g>
</g>
<g>
</g>
<g>
</g>
<g>
</g>
<g>
</g>
<g>
</g>
<g>
</g>
<g>
</g>
<g>
</g>
</g></svg>