<svg xmlns="http://www.w3.org/2000/svg" version="1.1" xmlns:xlink="http://www.w3.org/1999/xlink" xmlns:svgjs="http://svgjs.com/svgjs" width="512" height="512" x="0" y="0" viewBox="0 0 511.993 511.993" style="" xml:space="preserve"><g>
<g>
	<g>
		<g>
			<path d="M165.845,255.993L379.653,26.921c6.032-6.464,5.68-16.592-0.784-22.624c-6.432-6.016-16.592-5.68-22.608,0.784l-224,240
				c-0.624,0.672-0.88,1.488-1.376,2.224c-0.592,0.896-1.28,1.744-1.68,2.72c-0.384,0.96-0.496,1.952-0.688,2.96
				c-0.192,1.008-0.48,1.984-0.48,3.008c0,1.024,0.288,2,0.48,3.008c0.192,1.008,0.288,2,0.688,2.96
				c0.4,0.992,1.072,1.824,1.68,2.72c0.48,0.736,0.752,1.568,1.376,2.224l224,240c3.152,3.392,7.424,5.088,11.696,5.088
				c3.92,0,7.84-1.424,10.912-4.304c6.464-6.032,6.816-16.16,0.784-22.624L165.845,255.993z" fill="#000000" data-original="#000000"></path>
			<path d="M261.845,255.993L475.653,26.921c6.032-6.48,5.68-16.592-0.784-22.624c-6.448-6.016-16.576-5.68-22.608,0.784l-224,240
				c-0.624,0.672-0.88,1.488-1.376,2.224c-0.592,0.896-1.28,1.744-1.68,2.72c-0.384,0.96-0.496,1.952-0.688,2.96
				s-0.48,1.984-0.48,3.008c0,1.024,0.288,2,0.48,3.008s0.288,2,0.688,2.96c0.4,0.992,1.072,1.824,1.68,2.72
				c0.48,0.736,0.752,1.568,1.376,2.224l224,240c3.152,3.392,7.424,5.088,11.696,5.088c3.92,0,7.84-1.424,10.912-4.304
				c6.464-6.032,6.816-16.16,0.784-22.624L261.845,255.993z" fill="#000000" data-original="#000000"></path>
			<path d="M69.845,255.993L283.653,26.921c6.032-6.464,5.68-16.592-0.784-22.624c-6.432-6.016-16.576-5.68-22.608,0.784l-224,240
				c-0.624,0.672-0.88,1.488-1.376,2.224c-0.592,0.896-1.28,1.744-1.68,2.72c-0.384,0.96-0.496,1.952-0.688,2.96
				c-0.192,1.008-0.48,1.984-0.48,3.008c0,1.024,0.304,2,0.496,3.008s0.288,2,0.688,2.96c0.4,0.992,1.072,1.824,1.68,2.72
				c0.48,0.736,0.752,1.568,1.376,2.224l224,240c3.136,3.392,7.408,5.088,11.68,5.088c3.92,0,7.84-1.424,10.912-4.304
				c6.464-6.032,6.816-16.16,0.784-22.624L69.845,255.993z" fill="#000000" data-original="#000000"></path>
		</g>
	</g>
</g>
<g>
</g>
<g>
</g>
<g>
</g>
<g>
</g>
<g>
</g>
<g>
</g>
<g>
</g>
<g>
</g>
<g>
</g>
<g>
</g>
<g>
</g>
<g>
</g>
<g>
</g>
<g>
</g>
<g>
</g>
</g></svg>