<svg xmlns="http://www.w3.org/2000/svg" version="1.1" xmlns:xlink="http://www.w3.org/1999/xlink" xmlns:svgjs="http://svgjs.com/svgjs" width="512" height="512" x="0" y="0" viewBox="0 0 511.981 511.981" style="" xml:space="preserve" class=""><g>
<g>
	<g>
		<g>
			<path d="M381.103,264.685c0.592-0.896,1.28-1.744,1.68-2.72c0.384-0.96,0.496-1.952,0.688-2.96
				c0.192-1.008,0.48-1.984,0.48-3.008s-0.288-2-0.48-3.008s-0.288-2-0.688-2.96c-0.4-0.992-1.072-1.824-1.68-2.72
				c-0.48-0.736-0.752-1.568-1.376-2.224l-224-240c-6.016-6.448-16.16-6.784-22.608-0.784c-6.464,6.032-6.816,16.16-0.784,22.624
				l213.808,229.056L132.335,485.053c-6.032,6.464-5.68,16.592,0.784,22.624c3.072,2.88,6.992,4.304,10.912,4.304
				c4.272,0,8.544-1.696,11.696-5.072l224-240C380.351,266.237,380.607,265.421,381.103,264.685z" fill="#000000" data-original="#000000" class="" style=""></path>
			<path d="M285.103,264.685c0.592-0.896,1.28-1.744,1.68-2.72c0.384-0.96,0.496-1.952,0.688-2.96
				c0.192-1.008,0.48-1.984,0.48-3.008s-0.288-2-0.48-3.008s-0.288-2-0.688-2.96c-0.4-0.992-1.072-1.824-1.68-2.72
				c-0.48-0.736-0.752-1.568-1.376-2.224l-224-240c-6.032-6.448-16.16-6.784-22.608-0.784c-6.464,6.032-6.816,16.16-0.784,22.624
				l213.808,229.056L36.335,485.053c-6.032,6.48-5.68,16.592,0.784,22.624c3.072,2.88,6.992,4.304,10.912,4.304
				c4.272,0,8.544-1.696,11.696-5.072l224-240C284.351,266.237,284.607,265.421,285.103,264.685z" fill="#000000" data-original="#000000" class="" style=""></path>
			<path d="M479.455,252.973c-0.192-1.008-0.288-2-0.688-2.96c-0.4-0.992-1.072-1.824-1.68-2.72
				c-0.48-0.736-0.752-1.568-1.376-2.224l-224-240c-6.016-6.448-16.16-6.784-22.608-0.784c-6.464,6.032-6.816,16.16-0.784,22.624
				l213.824,229.072L228.335,485.053c-6.032,6.464-5.68,16.592,0.784,22.624c3.072,2.88,6.992,4.304,10.912,4.304
				c4.272,0,8.544-1.696,11.696-5.072l224-240c0.624-0.672,0.88-1.488,1.376-2.224c0.592-0.896,1.28-1.744,1.68-2.72
				c0.384-0.96,0.496-1.952,0.688-2.96c0.192-1.008,0.48-1.984,0.48-3.008S479.647,253.981,479.455,252.973z" fill="#000000" data-original="#000000" class="" style=""></path>
		</g>
	</g>
</g>
<g>
</g>
<g>
</g>
<g>
</g>
<g>
</g>
<g>
</g>
<g>
</g>
<g>
</g>
<g>
</g>
<g>
</g>
<g>
</g>
<g>
</g>
<g>
</g>
<g>
</g>
<g>
</g>
<g>
</g>
</g></svg>