<svg xmlns="http://www.w3.org/2000/svg" version="1.1" xmlns:xlink="http://www.w3.org/1999/xlink" xmlns:svgjs="http://svgjs.com/svgjs" width="512" height="512" x="0" y="0" viewBox="0 0 511.975 511.975" style="" xml:space="preserve"><g>
<g>
	<g>
		<g>
			<path d="M266.916,180.228c-0.656-0.608-1.488-0.88-2.208-1.36c-0.912-0.608-1.76-1.296-2.752-1.696
				c-0.912-0.368-1.872-0.464-2.832-0.656c-1.056-0.208-2.08-0.496-3.168-0.496c-0.96,0-1.856,0.272-2.8,0.448
				c-1.072,0.192-2.128,0.304-3.168,0.72c-0.944,0.384-1.744,1.04-2.608,1.6c-0.768,0.496-1.616,0.784-2.304,1.424l-240,224
				c-6.448,6.032-6.8,16.16-0.784,22.624c3.152,3.392,7.408,5.088,11.696,5.088c3.904,0,7.824-1.424,10.928-4.304l229.072-213.792
				L485.06,427.636c3.104,2.864,7.024,4.288,10.928,4.288c4.288,0,8.544-1.696,11.696-5.072c6.016-6.464,5.664-16.592-0.784-22.624
				L266.916,180.228z" fill="#000000" data-original="#000000"></path>
			<path d="M15.988,335.924c3.904,0,7.824-1.424,10.928-4.304l229.072-213.792L485.06,331.636c3.104,2.864,7.024,4.288,10.928,4.288
				c4.288,0,8.544-1.696,11.696-5.072c6.016-6.464,5.664-16.592-0.784-22.624l-239.984-224c-0.672-0.624-1.488-0.88-2.224-1.36
				c-0.896-0.592-1.744-1.28-2.72-1.664c-0.96-0.384-1.952-0.48-2.944-0.672c-1.008-0.192-1.984-0.48-3.024-0.48
				c-1.04,0-2,0.288-3.024,0.48c-1.008,0.192-1.984,0.288-2.944,0.672c-0.976,0.4-1.824,1.072-2.72,1.664
				c-0.736,0.48-1.568,0.752-2.24,1.376l-240,224c-6.448,6.032-6.8,16.16-0.784,22.624C7.444,334.228,11.7,335.924,15.988,335.924z" fill="#000000" data-original="#000000"></path>
		</g>
	</g>
</g>
<g>
</g>
<g>
</g>
<g>
</g>
<g>
</g>
<g>
</g>
<g>
</g>
<g>
</g>
<g>
</g>
<g>
</g>
<g>
</g>
<g>
</g>
<g>
</g>
<g>
</g>
<g>
</g>
<g>
</g>
</g></svg>