<svg xmlns="http://www.w3.org/2000/svg" version="1.1" xmlns:xlink="http://www.w3.org/1999/xlink" xmlns:svgjs="http://svgjs.com/svgjs" width="512" height="512" x="0" y="0" viewBox="0 0 512.009 512.009" style="" xml:space="preserve" class=""><g>
<g>
	<g>
		<path d="M381.783,121.017c-0.39-0.455-0.814-0.88-1.269-1.269h0.116L264.266,3.384c-4.539-4.512-11.869-4.512-16.407,0
			L131.496,119.747c-4.881,4.18-5.45,11.526-1.269,16.407c4.18,4.881,11.526,5.45,16.407,1.269c0.455-0.39,0.88-0.814,1.269-1.269
			l96.465-96.465v460.684c0,6.427,5.21,11.636,11.636,11.636s11.636-5.21,11.636-11.636V39.689l96.465,96.465
			c4.18,4.881,11.526,5.45,16.407,1.269S385.963,125.898,381.783,121.017z" fill="#000000" data-original="#000000" class="" style=""></path>
	</g>
</g>
<g>
</g>
<g>
</g>
<g>
</g>
<g>
</g>
<g>
</g>
<g>
</g>
<g>
</g>
<g>
</g>
<g>
</g>
<g>
</g>
<g>
</g>
<g>
</g>
<g>
</g>
<g>
</g>
<g>
</g>
</g></svg>