<svg xmlns="http://www.w3.org/2000/svg" version="1.1" xmlns:xlink="http://www.w3.org/1999/xlink" xmlns:svgjs="http://svgjs.com/svgjs" width="512" height="512" x="0" y="0" viewBox="0 0 20 20" style="" xml:space="preserve" class=""><g><path d="m17.3 3.1c-2.2-2.3-5.4-3.5-8.6-3-2.6.3-5 1.8-6.7 4.2v-2.3h-2v6h6v-2h-2.8l.3-.4c1.4-2 3.4-3.3 5.5-3.5 2.5-.3 5.1.6 6.9 2.4 2.9 3 2.9 8 0 11-1.5 1.6-3.5 2.5-5.7 2.5s-4.2-.8-5.8-2.3l-1.4 1.4c1.8 1.9 4.3 2.9 7 2.9h.1c2.7 0 5.3-1.1 7.1-3.1 3.7-3.8 3.7-10 .1-13.8z" fill="#000000" data-original="#000000" class="" style=""></path></g></svg>