<svg xmlns="http://www.w3.org/2000/svg" version="1.1" xmlns:xlink="http://www.w3.org/1999/xlink" xmlns:svgjs="http://svgjs.com/svgjs" width="512" height="512" x="0" y="0" viewBox="0 0 512.009 512.009" style="" xml:space="preserve"><g>
<g>
	<g>
		<path d="M380.63,375.806c-2.173-2.191-5.127-3.429-8.213-3.442c-3.093-0.018-6.066,1.196-8.262,3.375l-96.465,96.582V11.636
			C267.689,5.21,262.479,0,256.053,0s-11.636,5.21-11.636,11.636V472.32l-96.465-96.582c-4.563-4.563-11.961-4.563-16.524,0
			c-4.563,4.563-4.563,11.961,0,16.524l116.364,116.364c4.539,4.512,11.869,4.512,16.407,0l116.364-116.364
			C385.125,387.736,385.155,380.369,380.63,375.806z" fill="#000000" data-original="#000000"></path>
	</g>
</g>
<g>
</g>
<g>
</g>
<g>
</g>
<g>
</g>
<g>
</g>
<g>
</g>
<g>
</g>
<g>
</g>
<g>
</g>
<g>
</g>
<g>
</g>
<g>
</g>
<g>
</g>
<g>
</g>
<g>
</g>
</g></svg>