<svg xmlns="http://www.w3.org/2000/svg" version="1.1" xmlns:xlink="http://www.w3.org/1999/xlink" xmlns:svgjs="http://svgjs.com/svgjs" width="512" height="512" x="0" y="0" viewBox="0 0 64 64" style="" xml:space="preserve" class=""><g><g fill="rgb(0,0,0)"><path d="m59 17.561h-27.13507l7.14484-5.83741a2.00017 2.00017 0 0 0 -2.53125-3.09759l-11.48829 9.38621a2.0087 2.0087 0 0 0 -.23933 2.85291c.07386.08775.15972.16314.23933.24474l11.48829 9.38623a2.00038 2.00038 0 0 0 2.53117-3.09771l-7.14476-5.83738h27.13507a2.00022 2.00022 0 0 0 0-4z" fill="#000000" data-original="#000000"></path><path d="m39.49255 45.39124a2.0059 2.0059 0 0 0 -.48281-2.50109l-11.48826-9.38624a2.00037 2.00037 0 0 0 -2.53117 3.09771l7.14476 5.83738h-27.13507a2 2 0 0 0 0 4h27.13507l-7.14484 5.83741a2.00017 2.00017 0 0 0 2.53125 3.09759l11.48829-9.38623a2.23287 2.23287 0 0 0 .48278-.59653z" fill="#000000" data-original="#000000"></path></g></g></svg>