<svg xmlns="http://www.w3.org/2000/svg" version="1.1" xmlns:xlink="http://www.w3.org/1999/xlink" xmlns:svgjs="http://svgjs.com/svgjs" width="512" height="512" x="0" y="0" viewBox="0 0 20 20" style="" xml:space="preserve" class=""><g><g fill="rgb(0,0,0)"><path d="m6 6h-2.9c1.4-2.5 4-4 6.9-4 4.4 0 8 3.6 8 8h2c0-5.5-4.5-10-10-10-3.2 0-6.1 1.5-8 4v-2h-2v6h6z" fill="#000000" data-original="#000000" class="" style=""></path><path d="m14 14h2.9c-1.4 2.4-4 4-6.9 4-4.4 0-8-3.6-8-8h-2c0 5.5 4.5 10 10 10 3.2 0 6.1-1.5 8-4v2h2v-6h-6z" fill="#000000" data-original="#000000" class="" style=""></path></g></g></svg>