<svg xmlns="http://www.w3.org/2000/svg" version="1.1" xmlns:xlink="http://www.w3.org/1999/xlink" xmlns:svgjs="http://svgjs.com/svgjs" width="512" height="512" x="0" y="0" viewBox="0 0 512 512" style="" xml:space="preserve" class=""><g><path d="m506.142 313.781a20 20 0 0 1 0 28.286l-84.775 84.775a20 20 0 0 1 -28.284-28.285l49.168-49.168h-422.251a20 20 0 0 1 0-40h423.66c.541 0 1.072.039 1.6.081l-49.736-49.735a20 20 0 0 1 28.285-28.286zm-417.952-33.23a20 20 0 0 0 28.285-28.285l-49.736-49.735c.529.042 1.06.081 1.6.081h423.661a20 20 0 0 0 0-40h-422.251l49.168-49.168a20 20 0 1 0 -28.284-28.286l-84.775 84.776a20 20 0 0 0 0 28.285z" fill="#000000" data-original="#000000" class="" style=""></path></g></svg>