<svg xmlns="http://www.w3.org/2000/svg" version="1.1" xmlns:xlink="http://www.w3.org/1999/xlink" xmlns:svgjs="http://svgjs.com/svgjs" width="512" height="512" x="0" y="0" viewBox="0 0 288.824 288.824" style="" xml:space="preserve"><g>
<g>
	<path id="Arrow_Up_Left" d="M144.364,12.03c0-6.641-5.39-12.03-12.03-12.03H12.03C8.842,0,5.763,1.239,3.501,3.501
		C1.239,5.75,0,8.842,0,12.03v120.303c0,6.641,5.39,12.03,12.03,12.03s12.03-5.39,12.03-12.03V40.951l244.372,244.372
		c4.668,4.668,12.235,4.668,16.891,0c4.668-4.668,4.668-12.235,0-16.891L40.951,24.061h91.382
		C138.974,24.061,144.364,18.671,144.364,12.03z" fill="#000000" data-original="#000000"></path>
	<g>
	</g>
	<g>
	</g>
	<g>
	</g>
	<g>
	</g>
	<g>
	</g>
	<g>
	</g>
</g>
<g>
</g>
<g>
</g>
<g>
</g>
<g>
</g>
<g>
</g>
<g>
</g>
<g>
</g>
<g>
</g>
<g>
</g>
<g>
</g>
<g>
</g>
<g>
</g>
<g>
</g>
<g>
</g>
<g>
</g>
</g></svg>