<svg xmlns="http://www.w3.org/2000/svg" version="1.1" xmlns:xlink="http://www.w3.org/1999/xlink" xmlns:svgjs="http://svgjs.com/svgjs" width="512" height="512" x="0" y="0" viewBox="0 0 181.565 181.565" style="" xml:space="preserve" class=""><g>
<g>
	<path d="M162.43,16.866h-12.211V3.504c0-1.938-1.567-3.504-3.504-3.504H27.569c-6.581,0-11.937,5.354-11.937,11.935V169.63
		c0,6.577,5.356,11.936,11.937,11.936H162.43c1.937,0,3.504-1.566,3.504-3.504V20.367C165.934,18.432,164.366,16.866,162.43,16.866z
		 M27.569,7.012h115.642v9.857h-9.199H98.969h-71.4c-2.715,0-4.928-2.21-4.928-4.928C22.641,9.226,24.854,7.012,27.569,7.012z
		 M102.474,23.875h28.034v57.795l-12.054-8.136c-0.595-0.4-1.279-0.599-1.964-0.599c-0.688,0-1.369,0.198-1.964,0.599l-12.053,8.136
		V23.875z M158.925,174.558H27.569c-2.715,0-4.928-2.211-4.928-4.928V22.781c1.507,0.686,3.166,1.097,4.928,1.097h67.896v64.391
		c0,1.297,0.715,2.485,1.854,3.095c1.15,0.609,2.536,0.534,3.607-0.191l15.561-10.504l15.561,10.504
		c0.588,0.397,1.27,0.603,1.961,0.603c0.564,0,1.125-0.137,1.646-0.411c1.144-0.61,1.858-1.798,1.858-3.095V23.875h21.405v150.683
		H158.925z" fill="#000000" data-original="#000000" class="" style=""></path>
</g>
<g>
</g>
<g>
</g>
<g>
</g>
<g>
</g>
<g>
</g>
<g>
</g>
<g>
</g>
<g>
</g>
<g>
</g>
<g>
</g>
<g>
</g>
<g>
</g>
<g>
</g>
<g>
</g>
<g>
</g>
</g></svg>