<svg xmlns="http://www.w3.org/2000/svg" version="1.1" xmlns:xlink="http://www.w3.org/1999/xlink" xmlns:svgjs="http://svgjs.com/svgjs" width="512" height="512" x="0" y="0" viewBox="0 0 28 28" style="" xml:space="preserve"><g><g id="Layer_2" data-name="Layer 2"><path d="m20 7a5 5 0 1 0 5 5 5.006 5.006 0 0 0 -5-5zm2 6h-1v1a1 1 0 0 1 -2 0v-1h-1a1 1 0 0 1 0-2h1v-1a1 1 0 0 1 2 0v1h1a1 1 0 0 1 0 2z" fill="#000000" data-original="#000000"></path><path d="m13 12a6.948 6.948 0 0 1 8-6.92v-.13a3.955 3.955 0 0 0 -3.95-3.95h-10.1a3.955 3.955 0 0 0 -3.95 3.95v21.05a1 1 0 0 0 1.659.752l7.341-6.423 7.341 6.423a1 1 0 0 0 1.659-.752v-7.08a6.948 6.948 0 0 1 -8-6.92z" fill="#000000" data-original="#000000"></path></g></g></svg>