<svg xmlns="http://www.w3.org/2000/svg" version="1.1" xmlns:xlink="http://www.w3.org/1999/xlink" xmlns:svgjs="http://svgjs.com/svgjs" width="512" height="512" x="0" y="0" viewBox="0 0 32 32" style="" xml:space="preserve"><g><g id="Layer_17"><path d="m25.405 1.1h-18.81c-1.274 0-2.31 1.037-2.31 2.311v25.159c0 .928.527 1.736 1.375 2.112.85.376 1.802.223 2.488-.402l7.51-6.819c.195-.178.49-.178.686 0l7.51 6.819c.438.398.985.604 1.543.604.317 0 .638-.066.945-.202.848-.376 1.375-1.185 1.375-2.112v-25.16c-.002-1.273-1.038-2.31-2.312-2.31zm.511 27.469c0 .3-.212.426-.304.466-.091.041-.327.112-.549-.088l-7.51-6.819c-.442-.402-.998-.604-1.553-.604s-1.11.201-1.553.604l-7.51 6.819c-.223.2-.458.129-.549.088-.091-.04-.304-.166-.304-.466v-25.159c0-.281.229-.51.51-.51h18.811c.281 0 .51.229.51.51v25.159z" fill="#000000" data-original="#000000"></path><path d="m20.344 6.85h-8.688c-.497 0-.9.403-.9.9s.403.9.9.9h8.688c.497 0 .9-.403.9-.9s-.403-.9-.9-.9z" fill="#000000" data-original="#000000"></path></g></g></svg>