<svg xmlns="http://www.w3.org/2000/svg" version="1.1" xmlns:xlink="http://www.w3.org/1999/xlink" xmlns:svgjs="http://svgjs.com/svgjs" width="512" height="512" x="0" y="0" viewBox="0 0 520 520" style="" xml:space="preserve" class=""><g><g id="_6-Check" data-name="6-Check"><path d="m239.987 460.841a10 10 0 0 1 -7.343-3.213l-197.987-214.165a10 10 0 0 1 7.343-16.788h95.3a10.006 10.006 0 0 1 7.548 3.439l66.168 76.124c7.151-15.286 20.994-40.738 45.286-71.752 35.912-45.85 102.71-113.281 216.994-174.153a10 10 0 0 1 10.85 16.712c-.436.341-44.5 35.041-95.212 98.6-46.672 58.49-108.714 154.13-139.243 277.6a10 10 0 0 1 -9.707 7.6z" fill="#000000" data-original="#000000"></path></g></g></svg>