<svg xmlns="http://www.w3.org/2000/svg" version="1.1" xmlns:xlink="http://www.w3.org/1999/xlink" xmlns:svgjs="http://svgjs.com/svgjs" width="512" height="512" x="0" y="0" viewBox="0 0 512 512" style="" xml:space="preserve"><g><path d="m439.181 7.664h-288.241a72.9 72.9 0 0 0 -72.816 72.816v139.79h-24.124a54.056 54.056 0 0 0 -54 53.995v122.327a54.056 54.056 0 0 0 54 54h10.874v37.749a16 16 0 0 0 27.313 11.309l49.063-49.063h105.505a54.057 54.057 0 0 0 54-53.995v-14.292h11.24l75.689 75.688a16 16 0 0 0 27.313-11.314v-64.374h24.187a72.9 72.9 0 0 0 72.816-72.818v-229a72.9 72.9 0 0 0 -72.819-72.818zm-170.429 388.928a22.021 22.021 0 0 1 -22 22h-112.129a16 16 0 0 0 -11.314 4.686l-26.435 26.431v-15.122a16 16 0 0 0 -16-16h-26.874a22.02 22.02 0 0 1 -21.995-22v-122.322a22.02 22.02 0 0 1 21.995-21.995h24.124v57.212a72.9 72.9 0 0 0 72.816 72.818h117.812zm211.248-87.11a40.863 40.863 0 0 1 -40.819 40.818h-40.187a16 16 0 0 0 -16 16v41.747l-53.061-53.061a16 16 0 0 0 -11.314-4.686h-167.679a40.862 40.862 0 0 1 -40.816-40.817v-229a40.862 40.862 0 0 1 40.816-40.819h288.241a40.862 40.862 0 0 1 40.819 40.816zm-82.328-199.855a16 16 0 0 1 -16 16h-173.222a16 16 0 0 1 0-32h173.222a16 16 0 0 1 16 16zm0 85.354a16 16 0 0 1 -16 16h-173.222a16 16 0 0 1 0-32h173.222a16 16 0 0 1 16 16zm0 85.354a16 16 0 0 1 -16 16h-173.222a16 16 0 0 1 0-32h173.222a16 16 0 0 1 16 16z" fill="#000000" data-original="#000000"></path></g></svg>