<svg xmlns="http://www.w3.org/2000/svg" version="1.1" xmlns:xlink="http://www.w3.org/1999/xlink" xmlns:svgjs="http://svgjs.com/svgjs" width="512" height="512" x="0" y="0" viewBox="0 0 32 32" style="" xml:space="preserve" class=""><g><g id="b2b28f61-89ae-4474-9952-a315f8654032" data-name="Coment"><path d="M29,30a1,1,0,0,1-.77-.36l-4.4-5.28a1,1,0,0,0-.77-.36H5a3,3,0,0,1-3-3V5A3,3,0,0,1,5,2H27a3,3,0,0,1,3,3V29a1,1,0,0,1-.66.94A1,1,0,0,1,29,30ZM5,4A1,1,0,0,0,4,5V21a1,1,0,0,0,1,1H23.06a3,3,0,0,1,2.31,1.08L28,26.24V5a1,1,0,0,0-1-1ZM26,8a1,1,0,0,0-1-1H7A1,1,0,0,0,7,9H25A1,1,0,0,0,26,8Zm0,5a1,1,0,0,0-1-1H7a1,1,0,0,0,0,2H25A1,1,0,0,0,26,13Zm0,5a1,1,0,0,0-1-1H7a1,1,0,0,0,0,2H25A1,1,0,0,0,26,18Z" fill="#000000" data-original="#000000" class="" style=""></path></g></g></svg>