<svg xmlns="http://www.w3.org/2000/svg" version="1.1" xmlns:xlink="http://www.w3.org/1999/xlink" xmlns:svgjs="http://svgjs.com/svgjs" width="512" height="512" x="0" y="0" viewBox="0 0 512.003 512.003" style="" xml:space="preserve" class=""><g><path d="m383.668 276c0 11.046-8.954 20-20 20h-19.334c-11.046 0-20-8.954-20-20s8.954-20 20-20h19.334c11.046 0 20 8.954 20 20zm-109-20h-136.667c-11.046 0-20 8.954-20 20s8.954 20 20 20h136.667c11.046 0 20-8.954 20-20s-8.954-20-20-20zm99.333-118h-236c-11.046 0-20 8.954-20 20s8.954 20 20 20h236c11.046 0 20-8.954 20-20s-8.954-20-20-20zm138-58v273.833c0 44.112-35.888 80-80 80h-207.549l-64.162 64.163c-30.038 30.037-81.622 8.523-81.622-33.809v-30.365c-43.501-.712-78.667-36.321-78.667-79.989v-273.833c0-44.112 35.888-80 80-80h352c44.113 0 80 35.888 80 80zm-40 0c0-22.056-17.944-40-40-40h-352c-22.056 0-40 17.944-40 40v273.833c0 22.056 17.944 40 40 40 21.321 0 38.667 17.346 38.667 38.667v31.687c0 6.919 8.43 10.432 13.337 5.525l64.553-64.553c7.304-7.303 17.014-11.325 27.342-11.325h208.102c22.056 0 40-17.944 40-40v-273.834z" fill="#000000" data-original="#000000" class="" style=""></path></g></svg>