<svg width="512" height="512" viewBox="0 0 512 512" fill="none" xmlns="http://www.w3.org/2000/svg">
<g>
<path d="M461.414 21.632L170.069 21.0347C142.165 21.0347 119.467 43.7333 119.467 71.6373V115.362L50.6027 115.507C22.6987 115.507 0 138.206 0 166.11V346.513C0 374.417 22.6987 397.116 50.5941 397.116H102.4V482.449C102.4 485.973 104.567 489.139 107.853 490.411C108.86 490.803 109.901 490.982 110.933 490.982C113.289 490.982 115.601 490.01 117.248 488.192L200.055 397.099L341.931 396.518C369.835 396.518 392.533 373.82 392.533 345.916V344.951L437.419 394.325C439.066 396.143 441.378 397.116 443.733 397.116C444.766 397.116 445.807 396.937 446.805 396.544C450.099 395.281 452.267 392.107 452.267 388.582V303.249H461.397C489.301 303.249 512 280.55 512 252.646V72.2347C512 44.3307 489.31 21.6405 461.414 21.632ZM375.467 345.899C375.467 364.39 360.422 379.435 341.897 379.435L196.233 380.032C193.835 380.041 191.565 381.056 189.952 382.822L119.467 460.356V388.565C119.467 383.846 115.644 380.032 110.933 380.032H50.5941C32.1109 380.032 17.0667 364.988 17.0667 346.496V166.101C17.0667 147.61 32.1109 132.565 50.6197 132.565L128 132.403H128.017L340.241 131.968H341.931C360.422 131.968 375.467 147.012 375.467 165.504V322.859V345.899ZM494.933 252.629C494.933 271.121 479.889 286.165 461.397 286.165H443.733C439.014 286.165 435.2 289.98 435.2 294.699V366.49L392.533 319.556V165.504V165.495C392.533 137.591 369.835 114.901 341.922 114.901H341.035L136.533 115.319V71.6288C136.533 53.1371 151.578 38.0928 170.052 38.0928L461.389 38.6901C461.397 38.6901 461.397 38.6901 461.406 38.6901C479.898 38.6901 494.942 53.7344 494.942 72.2261V252.629H494.933Z" fill="black" stroke="black" stroke-width="6"/>
<path d="M102.4 225.698C83.5754 225.698 68.2666 241.007 68.2666 259.832C68.2666 278.656 83.5754 293.965 102.4 293.965C121.224 293.965 136.533 278.656 136.533 259.832C136.533 241.007 121.224 225.698 102.4 225.698ZM102.4 276.898C92.9877 276.898 85.3333 269.244 85.3333 259.832C85.3333 250.419 92.9877 242.765 102.4 242.765C111.812 242.765 119.467 250.419 119.467 259.832C119.467 269.244 111.812 276.898 102.4 276.898Z" fill="black" stroke="black" stroke-width="6"/>
<path d="M196.267 225.698C177.442 225.698 162.133 241.007 162.133 259.832C162.133 278.656 177.442 293.965 196.267 293.965C215.091 293.965 230.4 278.656 230.4 259.832C230.4 241.007 215.091 225.698 196.267 225.698ZM196.267 276.898C186.854 276.898 179.2 269.244 179.2 259.832C179.2 250.419 186.854 242.765 196.267 242.765C205.679 242.765 213.333 250.419 213.333 259.832C213.333 269.244 205.679 276.898 196.267 276.898Z" fill="black" stroke="black" stroke-width="6"/>
<path d="M290.133 225.698C271.309 225.698 256 241.007 256 259.832C256 278.656 271.309 293.965 290.133 293.965C308.958 293.965 324.267 278.656 324.267 259.832C324.267 241.007 308.958 225.698 290.133 225.698ZM290.133 276.898C280.721 276.898 273.067 269.244 273.067 259.832C273.067 250.419 280.721 242.765 290.133 242.765C299.546 242.765 307.2 250.419 307.2 259.832C307.2 269.244 299.546 276.898 290.133 276.898Z" fill="black" stroke="black" stroke-width="6"/>
</g>
</svg>
