<svg width="512" height="512" viewBox="0 0 512 512" fill="none" xmlns="http://www.w3.org/2000/svg">
<g clip-path="url(#clip0_12_66)">
<path d="M191.36 169.429H374.4C379.946 169.429 384.426 164.949 384.426 159.403C384.426 153.856 379.946 149.376 374.4 149.376H191.36C185.813 149.376 181.333 153.856 181.333 159.403C181.333 164.949 185.813 169.429 191.36 169.429Z" fill="black" stroke="black" stroke-width="6"/>
<path d="M384.427 218.091C384.427 212.544 379.947 208.064 374.4 208.064H89.5999C84.0746 208.064 79.5946 212.544 79.5732 218.091C79.5732 223.637 84.0532 228.117 89.5999 228.117H374.4C379.925 228.096 384.405 223.616 384.427 218.091Z" fill="black" stroke="black" stroke-width="6"/>
<path d="M307.84 266.603H89.5998H89.5784C84.0318 266.603 79.5518 271.104 79.5518 276.629C79.5518 282.176 84.0531 286.656 89.5784 286.656H307.818C313.344 286.656 317.824 282.176 317.845 276.629C317.866 271.104 313.386 266.624 307.84 266.603Z" fill="black" stroke="black" stroke-width="6"/>
<path d="M468.053 134.976H444.586C439.04 134.976 434.56 139.456 434.56 145.003C434.56 150.549 439.04 155.029 444.586 155.029H468.053C480.17 155.136 490.005 164.885 490.24 177.003V385.962C490.005 398.08 480.17 407.829 468.053 407.936H447.786C442.325 408.021 437.93 412.501 437.973 417.962L436.053 470.229L383.573 411.349C381.674 409.216 378.965 407.979 376.106 407.936H207.573C196.053 407.936 185.6 404.309 185.6 378.069C185.6 372.544 181.12 368.064 175.573 368.043C170.026 368.043 165.546 372.523 165.546 378.069C165.546 421.376 191.786 427.989 207.573 427.989H371.413L420.906 483.669C424.96 488.107 430.677 490.645 436.693 490.709C439.253 490.752 441.813 490.24 444.16 489.216C452.394 486.229 457.877 478.357 457.813 469.589V428.096H468.053C491.242 428.053 510.037 409.259 510.08 386.069V177.003C510.08 176.96 510.08 176.917 510.08 176.875C510.037 153.707 491.221 134.955 468.053 134.976Z" fill="black" stroke="black" stroke-width="6"/>
<path d="M112.853 189.269C115.477 189.333 118.016 188.331 119.893 186.496L163.413 144.576C163.541 144.576 163.627 144.491 163.627 144.363C179.413 127.829 179.413 101.803 163.627 85.2694C149.632 71.8721 127.723 71.3174 113.067 83.9894C98.3252 71.3174 76.3732 71.8721 62.2932 85.2694C54.6985 93.2267 50.4959 103.829 50.5599 114.816C50.4745 125.781 54.6772 136.363 62.2932 144.256V144.469H62.5065L106.027 186.496C107.84 188.288 110.293 189.291 112.853 189.269ZM76.5865 99.1361C83.8612 92.8854 94.7412 93.4614 101.333 100.416L101.76 100.843C104.597 104.213 108.672 106.304 113.067 106.603C117.397 106.219 121.408 104.107 124.16 100.736L124.587 100.309C131.136 93.5041 141.803 92.8427 149.12 98.8161C149.12 98.9227 149.205 99.0294 149.333 99.0294C157.44 107.819 157.44 121.387 149.333 130.176L112.853 165.483L76.3732 130.283C68.4372 121.387 68.5225 107.925 76.5865 99.1361Z" fill="black" stroke="black" stroke-width="6"/>
<path d="M426.453 305.429V66.2826C426.453 41.4293 406.293 21.2693 381.44 21.2693H46.9333C22.1439 21.3546 2.06926 41.408 1.91992 66.176V305.323C2.00526 330.155 22.1013 350.251 46.9333 350.336L61.6533 350.443V401.003C61.6533 407.019 64.2133 412.757 68.7146 416.768C77.4186 424.555 90.7946 423.787 98.5599 415.083L155.947 350.443H381.44C406.293 350.443 426.453 330.304 426.453 305.429ZM151.467 330.389C148.608 330.432 145.899 331.669 144 333.803L81.7066 401.003V340.309C81.7066 340.288 81.7066 340.288 81.7066 340.267C81.6853 334.741 77.2053 330.261 71.6799 330.283H46.9333C33.1519 330.261 21.9946 319.104 21.9733 305.323V66.176C22.0586 52.4373 33.1946 41.3013 46.9333 41.216H381.44C395.221 41.2373 406.379 52.3946 406.4 66.176V305.429C406.4 305.493 406.4 305.579 406.4 305.643C406.336 319.36 395.157 330.453 381.44 330.389H151.467Z" fill="black" stroke="black" stroke-width="6"/>
</g>
<defs>
<clipPath id="clip0_12_66">
<rect width="512" height="512" fill="white"/>
</clipPath>
</defs>
</svg>
