<svg xmlns="http://www.w3.org/2000/svg" version="1.1" xmlns:xlink="http://www.w3.org/1999/xlink" xmlns:svgjs="http://svgjs.com/svgjs" width="512" height="512" x="0" y="0" viewBox="0 0 24 24" style="" xml:space="preserve" class=""><g>
<title>Artboard 58</title>
<g>
	<path d="M8.97,7.942h8.58c0.26,0,0.47-0.21,0.47-0.47s-0.21-0.47-0.47-0.47H8.97c-0.26,0-0.47,0.21-0.47,0.47   S8.71,7.942,8.97,7.942z" fill="#000000" data-original="#000000" class="" style=""></path>
	<path d="M18.02,10.223c0-0.26-0.21-0.47-0.47-0.47H4.2c-0.259,0-0.469,0.21-0.47,0.47c0,0.26,0.21,0.47,0.47,0.47h13.35   C17.809,10.692,18.019,10.482,18.02,10.223z" fill="#000000" data-original="#000000" class=""></path>
	<path d="M14.43,12.497H4.2c0,0-0.001,0-0.001,0c-0.26,0-0.47,0.211-0.47,0.47c0,0.26,0.211,0.47,0.47,0.47h10.23   c0.259,0,0.469-0.21,0.47-0.47C14.9,12.708,14.69,12.498,14.43,12.497z" fill="#000000" data-original="#000000" class="" style=""></path>
	<path d="M21.94,6.327h-1.1c-0.26,0-0.47,0.21-0.47,0.47s0.21,0.47,0.47,0.47h1.1c0.568,0.005,1.029,0.462,1.04,1.03v9.795   c-0.011,0.568-0.472,1.025-1.04,1.03h-0.95c-0.256,0.004-0.462,0.214-0.46,0.47l-0.09,2.45l-2.46-2.76   c-0.089-0.1-0.216-0.158-0.35-0.16h-7.9c-0.54,0-1.03-0.17-1.03-1.4c0-0.259-0.21-0.469-0.47-0.47c-0.26,0-0.47,0.21-0.47,0.47   c0,2.03,1.23,2.34,1.97,2.34h7.68l2.32,2.61c0.19,0.208,0.458,0.327,0.74,0.33c0.12,0.002,0.24-0.022,0.35-0.07   c0.386-0.14,0.643-0.509,0.64-0.92v-1.945h0.48c1.087-0.002,1.968-0.883,1.97-1.97v-9.8c0-0.002,0-0.004,0-0.006   C23.908,7.205,23.026,6.326,21.94,6.327z" fill="#000000" data-original="#000000" class="" style=""></path>
	<path d="M5.29,8.872c0.123,0.003,0.242-0.044,0.33-0.13l2.04-1.965c0.006,0,0.01-0.004,0.01-0.01c0.74-0.775,0.74-1.995,0-2.77   C7.014,3.369,5.987,3.343,5.3,3.937c-0.691-0.594-1.72-0.568-2.38,0.06C2.564,4.37,2.367,4.867,2.37,5.382   c-0.004,0.514,0.193,1.01,0.55,1.38v0.01h0.01l2.04,1.97C5.055,8.826,5.17,8.873,5.29,8.872z M3.59,4.647   c0.341-0.293,0.851-0.266,1.16,0.06l0.02,0.02c0.133,0.158,0.324,0.256,0.53,0.27C5.503,4.979,5.691,4.88,5.82,4.722l0.02-0.02   c0.307-0.319,0.807-0.35,1.15-0.07c0,0.005,0.004,0.01,0.01,0.01c0.38,0.412,0.38,1.048,0,1.46L5.29,7.757l-1.71-1.65   C3.208,5.69,3.212,5.059,3.59,4.647z" fill="#000000" data-original="#000000" class=""></path>
	<path d="M19.99,14.317V3.107c0-1.165-0.945-2.11-2.11-2.11H2.2C1.038,1.001,0.097,1.941,0.09,3.102v11.21   c0.004,1.164,0.946,2.106,2.11,2.11l0.69,0.005v2.37c0,0.282,0.12,0.551,0.331,0.739c0.408,0.365,1.035,0.329,1.399-0.079   l2.69-3.03h10.57C19.045,16.427,19.99,15.483,19.99,14.317z M7.1,15.487c-0.134,0.002-0.261,0.06-0.35,0.16l-2.92,3.15v-2.845   c0-0.001,0-0.001,0-0.002c-0.001-0.259-0.211-0.469-0.47-0.468H2.2c-0.646-0.001-1.169-0.524-1.17-1.17V3.102   c0.004-0.644,0.526-1.166,1.17-1.17h15.68c0.646,0.001,1.169,0.524,1.17,1.17v11.215c0,0.003,0,0.007,0,0.01   c-0.003,0.643-0.527,1.163-1.17,1.16H7.1z" fill="#000000" data-original="#000000" class="" style=""></path>
</g>
</g></svg>