<svg xmlns="http://www.w3.org/2000/svg" version="1.1" xmlns:xlink="http://www.w3.org/1999/xlink" xmlns:svgjs="http://svgjs.com/svgjs" width="512" height="512" x="0" y="0" viewBox="0 0 32 32" style="" xml:space="preserve" class=""><g><g id="abfc6106-95b4-4c1e-8b8e-87ae6292fdb6" data-name="Coment"><path d="m27 2h-22a3 3 0 0 0 -3 3v16a3 3 0 0 0 3 3h18.06a1 1 0 0 1 .77.36l4.4 5.28a1 1 0 0 0 1.11.3 1 1 0 0 0 .66-.94v-24a3 3 0 0 0 -3-3zm-2 17h-18a1 1 0 0 1 0-2h18a1 1 0 0 1 0 2zm0-5h-18a1 1 0 0 1 0-2h18a1 1 0 0 1 0 2zm0-5h-18a1 1 0 0 1 0-2h18a1 1 0 0 1 0 2z" fill="#000000" data-original="#000000" class="" style=""></path></g></g></svg>