<svg xmlns="http://www.w3.org/2000/svg" version="1.1" xmlns:xlink="http://www.w3.org/1999/xlink" xmlns:svgjs="http://svgjs.com/svgjs" width="512" height="512" x="0" y="0" viewBox="0 0 64 64" style="" xml:space="preserve"><g><path d="m57.162 2h-50.324a4.838 4.838 0 0 0 -4.838 4.838v34.324a4.838 4.838 0 0 0 4.838 4.838h9.162v16l16-16h25.162a4.838 4.838 0 0 0 4.838-4.838v-34.324a4.838 4.838 0 0 0 -4.838-4.838zm-9.162 32h-32a2 2 0 0 1 0-4h32a2 2 0 0 1 0 4zm0-16h-32a2 2 0 0 1 0-4h32a2 2 0 0 1 0 4z" fill="#000000" data-original="#000000"></path></g></svg>