<svg xmlns="http://www.w3.org/2000/svg" version="1.1" xmlns:xlink="http://www.w3.org/1999/xlink" xmlns:svgjs="http://svgjs.com/svgjs" width="512" height="512" x="0" y="0" viewBox="0 0 511.606 511.606" style="" xml:space="preserve"><g><path d="m436.594 74.943c-99.917-99.917-261.637-99.932-361.568 0-80.348 80.347-95.531 199.817-48.029 294.96l-26.335 115.839c-3.423 15.056 10.071 28.556 25.133 25.133l115.839-26.335c168.429 84.092 369.846-37.653 369.846-228.812 0-68.29-26.595-132.494-74.886-180.785zm-127.451 244.451h-160c-11.598 0-21-9.402-21-21s9.402-21 21-21h160c11.598 0 21 9.402 21 21s-9.402 21-21 21zm53.334-85.333h-213.334c-11.598 0-21-9.402-21-21s9.402-21 21-21h213.334c11.598 0 21 9.402 21 21s-9.403 21-21 21z" fill="#000000" data-original="#000000"></path></g></svg>