<svg xmlns="http://www.w3.org/2000/svg" version="1.1" xmlns:xlink="http://www.w3.org/1999/xlink" xmlns:svgjs="http://svgjs.com/svgjs" width="512" height="512" x="0" y="0" viewBox="0 0 32 32" style="" xml:space="preserve"><g><g id="Layer_2" data-name="Layer 2"><path d="m2.87 28.56a1.88 1.88 0 0 1 -1.87-1.87v-15.38a3.88 3.88 0 0 1 3.87-3.87h18.25a3.88 3.88 0 0 1 3.88 3.87v10.25a3.88 3.88 0 0 1 -3.87 3.88h-15.22a.82.82 0 0 0 -.48.16l-3.43 2.59a1.89 1.89 0 0 1 -1.13.37zm2-19.12a1.88 1.88 0 0 0 -1.87 1.87v15.13l3.23-2.44a2.84 2.84 0 0 1 1.68-.56h15.21a1.88 1.88 0 0 0 1.88-1.88v-10.25a1.88 1.88 0 0 0 -1.87-1.87z" fill="#000000" data-original="#000000"></path><circle cx="17.94" cy="16.53" r="1" fill="#000000" data-original="#000000"></circle><circle cx="14.06" cy="16.53" r="1" fill="#000000" data-original="#000000"></circle><circle cx="10.06" cy="16.53" r="1" fill="#000000" data-original="#000000"></circle><path d="m30 18.44a1 1 0 0 1 -1-1v-10.13a1.88 1.88 0 0 0 -1.87-1.87h-20.13a1 1 0 0 1 -1-1 1 1 0 0 1 1-1h20.13a3.88 3.88 0 0 1 3.87 3.87v10.13a1 1 0 0 1 -1 1z" fill="#000000" data-original="#000000"></path></g></g></svg>