<svg xmlns="http://www.w3.org/2000/svg" version="1.1" xmlns:xlink="http://www.w3.org/1999/xlink" xmlns:svgjs="http://svgjs.com/svgjs" width="512" height="512" x="0" y="0" viewBox="0 0 64 64" style="" xml:space="preserve"><g><path d="M57.162,0H6.838A6.845,6.845,0,0,0,0,6.838V41.162A6.845,6.845,0,0,0,6.838,48H14V62a2,2,0,0,0,3.414,1.414L32.829,48H57.162A6.845,6.845,0,0,0,64,41.162V6.838A6.845,6.845,0,0,0,57.162,0ZM60,41.162A2.841,2.841,0,0,1,57.162,44H32a2,2,0,0,0-1.414.586L18,57.171V46a2,2,0,0,0-2-2H6.838A2.841,2.841,0,0,1,4,41.162V6.838A2.841,2.841,0,0,1,6.838,4H57.162A2.841,2.841,0,0,1,60,6.838Z" fill="#000000" data-original="#000000"></path><path d="M48,14H16a2,2,0,0,0,0,4H48a2,2,0,0,0,0-4Z" fill="#000000" data-original="#000000"></path><path d="M48,30H16a2,2,0,0,0,0,4H48a2,2,0,0,0,0-4Z" fill="#000000" data-original="#000000"></path></g></svg>