<svg xmlns="http://www.w3.org/2000/svg" version="1.1" xmlns:xlink="http://www.w3.org/1999/xlink" xmlns:svgjs="http://svgjs.com/svgjs" width="512" height="512" x="0" y="0" viewBox="0 0 60 60" style="" xml:space="preserve" class=""><g>
<g>
	<path d="M54.072,2.535L19.93,2.465c-3.27,0-5.93,2.66-5.93,5.93v3.124l26.065-0.054c4.377,0,7.935,3.557,7.935,7.929v21.142
		c0,0.634-0.083,1.248-0.224,1.84l3.484,3.833c0.193,0.213,0.464,0.327,0.74,0.327c0.121,0,0.243-0.021,0.36-0.067
		c0.386-0.148,0.64-0.52,0.64-0.933v-10h1.07c3.27,0,5.93-2.66,5.93-5.93V8.465C60,5.195,57.34,2.535,54.072,2.535z" fill="#000000" data-original="#000000" class="" style=""></path>
	<path d="M40.069,13.465L5.93,13.535c-3.27,0-5.93,2.66-5.93,5.93v21.141c0,3.27,2.66,5.93,5.929,5.93H12v10
		c0,0.413,0.254,0.784,0.639,0.933c0.118,0.046,0.24,0.067,0.361,0.067c0.276,0,0.547-0.114,0.74-0.327l9.704-10.675l16.626-0.068
		c3.27,0,5.93-2.66,5.93-5.93V19.394C46,16.124,43.34,13.465,40.069,13.465z M12,34.449c-2.206,0-4-1.794-4-4s1.794-4,4-4
		s4,1.794,4,4S14.206,34.449,12,34.449z M23,34.449c-2.206,0-4-1.794-4-4s1.794-4,4-4s4,1.794,4,4S25.206,34.449,23,34.449z
		 M34,34.449c-2.206,0-4-1.794-4-4s1.794-4,4-4s4,1.794,4,4S36.206,34.449,34,34.449z" fill="#000000" data-original="#000000" class=""></path>
</g>
<g>
</g>
<g>
</g>
<g>
</g>
<g>
</g>
<g>
</g>
<g>
</g>
<g>
</g>
<g>
</g>
<g>
</g>
<g>
</g>
<g>
</g>
<g>
</g>
<g>
</g>
<g>
</g>
<g>
</g>
</g></svg>