<svg width="512" height="512" viewBox="0 0 512 512" fill="none" xmlns="http://www.w3.org/2000/svg">
<g>
<path d="M85.3331 217.301H196.266C200.985 217.301 204.8 213.478 204.8 208.768C204.8 204.058 200.985 200.235 196.266 200.235H85.3331C80.6142 200.235 76.7998 204.058 76.7998 208.768C76.7998 213.478 80.6142 217.301 85.3331 217.301Z" fill="black" stroke="black" stroke-width="6"/>
<path d="M307.2 251.435H85.3331C80.6142 251.435 76.7998 255.258 76.7998 259.968C76.7998 264.678 80.6142 268.501 85.3331 268.501H307.2C311.919 268.501 315.733 264.678 315.733 259.968C315.733 255.258 311.919 251.435 307.2 251.435Z" fill="black" stroke="black" stroke-width="6"/>
<path d="M307.2 302.635H85.3331C80.6142 302.635 76.7998 306.458 76.7998 311.168C76.7998 315.878 80.6142 319.701 85.3331 319.701H307.2C311.919 319.701 315.733 315.878 315.733 311.168C315.733 306.458 311.919 302.635 307.2 302.635Z" fill="black" stroke="black" stroke-width="6"/>
<path d="M461.414 21.632L170.069 21.0347C142.165 21.0347 119.467 43.7333 119.467 71.6373V115.362L50.6027 115.507C22.6987 115.507 0 138.206 0 166.11V346.513C0 374.417 22.6987 397.107 50.6027 397.107H102.4V482.441C102.4 485.965 104.567 489.131 107.861 490.402C108.86 490.786 109.901 490.974 110.933 490.974C113.289 490.974 115.601 489.993 117.248 488.183L200.055 397.09L341.931 396.51C369.835 396.51 392.533 373.811 392.533 345.916V344.951L437.419 394.325C439.066 396.134 441.378 397.116 443.733 397.116C444.766 397.116 445.807 396.928 446.805 396.544C450.099 395.273 452.267 392.107 452.267 388.582V303.249H461.397C489.301 303.249 512 280.55 512 252.655V72.2347C512 44.3392 489.31 21.6405 461.414 21.632ZM375.467 345.907C375.467 364.399 360.422 379.435 341.897 379.435L196.233 380.032C193.843 380.041 191.556 381.056 189.952 382.822L119.467 460.365V388.565C119.467 383.855 115.652 380.032 110.933 380.032H50.6027C32.1109 380.032 17.0667 364.988 17.0667 346.505V166.101C17.0667 147.61 32.1109 132.565 50.6197 132.565L128 132.403C128.009 132.403 128.009 132.403 128.017 132.403L341.931 131.959C360.422 131.959 375.467 147.004 375.467 165.495V322.859V345.907ZM494.933 252.638C494.933 271.13 479.889 286.165 461.397 286.165H443.733C439.014 286.165 435.2 289.988 435.2 294.699V366.498L392.533 319.565V165.504C392.533 137.6 369.835 114.901 341.914 114.901L136.533 115.319V71.6288C136.533 53.1371 151.578 38.0928 170.052 38.0928L461.389 38.6901C461.397 38.6901 461.397 38.6901 461.406 38.6901C479.898 38.6901 494.942 53.7344 494.942 72.2261V252.638H494.933Z" fill="black" stroke="black" stroke-width="6"/>
</g>

</svg>
