<svg xmlns="http://www.w3.org/2000/svg" version="1.1" xmlns:xlink="http://www.w3.org/1999/xlink" xmlns:svgjs="http://svgjs.com/svgjs" width="512" height="512" x="0" y="0" viewBox="0 0 20 20" style="" xml:space="preserve" class=""><g><g><path d="m10 0c-5.5 0-10 4.5-10 10s4.5 10 10 10 10-4.5 10-10-4.5-10-10-10zm0 18c-4.4 0-8-3.6-8-8s3.6-8 8-8 8 3.6 8 8-3.6 8-8 8z" fill="#000000" data-original="#000000" class=""></path><path d="m10 7c.8 0 1.6.3 2.1.9l1.4-1.4c-.9-1-2.2-1.5-3.5-1.5-2.8 0-5 2.2-5 5s2.2 5 5 5c1.3 0 2.6-.5 3.5-1.5l-1.4-1.4c-.6.6-1.3.9-2.1.9-1.7 0-3-1.3-3-3s1.3-3 3-3z" fill="#000000" data-original="#000000" class=""></path></g></g></svg>