<svg xmlns="http://www.w3.org/2000/svg" version="1.1" xmlns:xlink="http://www.w3.org/1999/xlink" xmlns:svgjs="http://svgjs.com/svgjs" width="512" height="512" x="0" y="0" viewBox="0 0 60 60" style="" xml:space="preserve"><g><g id="Page-1" fill="none" fill-rule="evenodd"><g id="006---No-Copyright" fill="rgb(0,0,0)" fill-rule="nonzero" transform="translate(-1 -1)"><path id="Shape" d="m38.4 1.928c-13.8695965-3.53179142-28.3025935 3.22562169-34.47237207 16.1396873-6.16977853 12.9140657-2.35797572 28.3880501 9.10426877 36.9587099 11.4622446 8.5706597 27.382548 7.8509556 38.0247168-1.7189714 10.6421687-9.569927 13.0422217-25.3247288 5.7323865-37.6294258-4.0666632-6.83792472-10.6801716-11.78304081-18.389-13.75zm19.735 35.982c-3.2960019 12.9451046-15.2773748 21.7592218-28.6167583 21.0519663s-24.32155212-10.7389019-26.23022143-23.9599588c-1.9086693-13.2210568 5.78775474-25.94925442 18.38242643-30.40050221 12.5946717-4.45124779 26.5797795.61419587 33.4025533 12.09849471 3.7891592 6.3855439 4.8903723 14.0134763 3.062 21.21z" fill="#000000" data-original="#000000"></path><path id="Shape" d="m33.6 39.294c-.014-.02-.023-.042-.038-.062l-8.562-14.408-.012-.021-7.864-13.243c-.1463085-.2465255-.3913822-.4184049-.673-.472-.2818403-.0528206-.5728324.0170175-.8.192-9.94889316 7.7294245-12.58242345 21.6590074-6.142 32.487 3.3716301 5.7129912 8.8890464 9.8393503 15.322 11.459 2.0259351.5187171 4.1087148.7824239 6.2.785 3.4244927-.0022394 6.8110126-.7174135 9.944-2.1.2622492-.1151265.462548-.3371731.5501292-.6098603s.0540375-.5698389-.0921292-.8161397zm-10.7-14.094c-2.1912509 3.0373296-2.4950288 7.0466227-.7864339 10.3794376 1.708595 3.3328149 5.1411816 5.42663 8.8864339 5.4205624.4134511-.0030452.8262879-.0324381 1.236-.088l2.176 3.663c-6.0029212 1.5167117-12.2887389-1.0933998-15.4516662-6.4161217-3.1629274-5.3227218-2.4503405-12.0915036 1.7516662-16.6388783zm8.2 13.795c-.033 0-.064.005-.1.005-2.1596921.0007874-4.227955-.8716532-5.7346126-2.4189906-1.5066577-1.5473375-2.3236992-3.6381045-2.2653874-5.7970094.0380778-1.2895305.3954133-2.5494818 1.04-3.667zm-5.775 14.293c-8.3109931-2.1130949-14.7550066-8.6763164-16.71542304-17.0246422-1.96041647-8.3483258.88868795-17.093827 7.39042304-22.6853578l3.664 6.167c-4.4701619 4.4882822-5.8673638 11.1932282-3.5619916 17.0934217s7.8781073 9.8817883 14.2069916 10.1505783c.227.01.453.014.677.014 1.517107-.0011363 3.0260696-.2217547 4.48-.655l3.659 6.16c-4.4067544 1.6897118-9.2309099 1.9623815-13.8.78z" fill="#000000" data-original="#000000"></path><path id="Shape" d="m37.169 6.774c-5.3771753-1.39062196-11.0662435-.9266037-16.147 1.317-.2622492.11512654-.462548.3371731-.5501292.60986032s-.0540375.56983888.0921292.81613968l7.84 13.2c.012.018.02.038.033.055l16.439 27.668c.1463085.2465255.3913822.4184049.673.472.0613755.0111545.1236193.0168435.186.017.2217728-.0002651.4372555-.0737331.613-.209 9.9492358-7.7291374 12.5832037-21.6587668 6.143-32.487-3.3716301-5.7129912-8.8890464-9.83935026-15.322-11.459zm-7.408 14.309-2.175-3.661c5.5287376-1.3902893 11.3483329.7106819 14.714 5.312l-3.64 1.859c-1.9272229-2.3369728-4.8196373-3.6611885-7.848-3.593-.3515965.0082525-.7024666.0359616-1.051.083zm9.353 15.744c.027-.038.062-.076.087-.114l3.6 1.827c-.4505003.6852062-.9601117 1.3296655-1.523 1.926zm14.174-.151c-1.1477716 4.5783649-3.6954968 8.6845093-7.288 11.746l-3.656-6.154c.8061558-.80609 1.5232794-1.6965437 2.139-2.656.306282-.4858957.3937656-1.078316.241-1.632-.1518148-.5398996-.5233439-.9912495-1.024-1.244l-3.6-1.811c-.6521794-.3222759-1.4274982-.267606-2.028.143l-7.172-12.068c2.4065818-.0431786 4.7007642 1.0166099 6.228 2.877.3722705.4347351.9166577.6840784 1.489.682.3149173-.0003443.625436-.0739512.907-.215l3.663-1.822c.5268883-.2629519.910005-.7460599 1.046-1.319.1392984-.5783107.0155526-1.1886194-.338-1.667-3.9653254-5.4305978-10.9128003-7.7876339-17.364-5.891l-3.656-6.153c10.4366223-3.95362132 22.2049751.16403673 27.9 9.762 3.1311593 5.2385313 4.0360811 11.5121275 2.513 17.422z" fill="#000000" data-original="#000000"></path></g></g></g></svg>