<svg xmlns="http://www.w3.org/2000/svg" version="1.1" xmlns:xlink="http://www.w3.org/1999/xlink" xmlns:svgjs="http://svgjs.com/svgjs" width="512" height="512" x="0" y="0" viewBox="0 0 512 512" style="" xml:space="preserve"><g>
<g>
	<g>
		<g>
			<path d="M481.28,81.92H30.72C13.783,81.92,0,95.703,0,112.64v51.2h512v-51.2C512,95.703,498.217,81.92,481.28,81.92z" fill="#000000" data-original="#000000"></path>
			<path d="M0,399.36c0,16.937,13.783,30.72,30.72,30.72h450.56c16.937,0,30.72-13.783,30.72-30.72V225.28H0V399.36z M92.16,286.72
				h184.32c5.652,0,10.24,4.588,10.24,10.24c0,5.652-4.588,10.24-10.24,10.24H92.16c-5.652,0-10.24-4.588-10.24-10.24
				C81.92,291.307,86.508,286.72,92.16,286.72z M92.16,327.68h102.4c5.652,0,10.24,4.588,10.24,10.24s-4.588,10.24-10.24,10.24
				H92.16c-5.652,0-10.24-4.588-10.24-10.24S86.508,327.68,92.16,327.68z" fill="#000000" data-original="#000000"></path>
		</g>
	</g>
</g>
<g>
</g>
<g>
</g>
<g>
</g>
<g>
</g>
<g>
</g>
<g>
</g>
<g>
</g>
<g>
</g>
<g>
</g>
<g>
</g>
<g>
</g>
<g>
</g>
<g>
</g>
<g>
</g>
<g>
</g>
</g></svg>