<svg xmlns="http://www.w3.org/2000/svg" version="1.1" xmlns:xlink="http://www.w3.org/1999/xlink" xmlns:svgjs="http://svgjs.com/svgjs" width="512" height="512" x="0" y="0" viewBox="0 0 64 64" style="" xml:space="preserve" class=""><g><g id="Voucher"><circle cx="18" cy="41" r="1" fill="#000000" data-original="#000000"></circle><circle cx="18" cy="51" r="1" fill="#000000" data-original="#000000"></circle><path d="m63.707 20.293-20-20a.9994.9994 0 0 0 -1.414 0l-24 24a.9993.9993 0 0 0 -.293.707v3h-3a1 1 0 0 0 -.707.293l-14 14a.9994.9994 0 0 0 0 1.414l20 20a.9995.9995 0 0 0 1.414 0l14-14a.9993.9993 0 0 0 .293-.707v-3h3a.9993.9993 0 0 0 .707-.293l24-24a.9994.9994 0 0 0 0-1.414zm-36.414 5 16-16a1 1 0 0 1 1.414 1.414l-16 16a1 1 0 0 1 -1.414-1.414zm-7 5a.9994.9994 0 0 1 1.414 0l2 2a1 1 0 1 1 -1.414 1.414l-2-2a.9994.9994 0 0 1 0-1.414zm-2.293 7.707a3 3 0 1 1 -3 3 3.0033 3.0033 0 0 1 3-3zm0 16a3 3 0 1 1 3-3 3.0033 3.0033 0 0 1 -3 3zm6-7h-12a1 1 0 0 1 0-2h12a1 1 0 0 1 0 2zm4.707-8.293a.9995.9995 0 0 1 -1.414 0l-2-2a1 1 0 0 1 1.414-1.414l2 2a.9994.9994 0 0 1 0 1.414zm5 5a.9995.9995 0 0 1 -1.414 0l-2-2a1 1 0 0 1 1.414-1.414l2 2a.9994.9994 0 0 1 0 1.414zm11.5-13.5-6.5 6.5a1 1 0 0 1 -1.414-1.414l6.5-6.5a1 1 0 0 1 1.414 1.414zm4.5-14.5-16 16a1 1 0 0 1 -1.414-1.414l16-16a1 1 0 0 1 1.414 1.414z" fill="#000000" data-original="#000000"></path></g></g></svg>