<svg xmlns="http://www.w3.org/2000/svg" version="1.1" xmlns:xlink="http://www.w3.org/1999/xlink" xmlns:svgjs="http://svgjs.com/svgjs" width="512" height="512" x="0" y="0" viewBox="0 0 511.979 511.979" style="" xml:space="preserve"><g><path id="XMLID_250_" d="m182.841 269.03c2.559 0 5.118-.976 7.07-2.929 3.906-3.905 3.906-10.236.001-14.142l-4.708-4.708c-3.903-3.904-10.236-3.906-14.142 0-3.906 3.905-3.906 10.236-.001 14.142l4.708 4.708c1.953 1.953 4.512 2.929 7.072 2.929z" fill="#000000" data-original="#000000"></path><path id="XMLID_473_" d="m228.061 290.108-5.882-5.882c-3.905-3.905-10.236-3.905-14.142 0s-3.906 10.237-.001 14.142l5.882 5.882c1.953 1.953 4.512 2.929 7.071 2.929s5.118-.977 7.07-2.929c3.907-3.905 3.907-10.237.002-14.142z" fill="#000000" data-original="#000000"></path><path id="XMLID_474_" d="m245.242 321.432c-3.905 3.905-3.905 10.237 0 14.142l6.593 6.591c1.952 1.953 4.511 2.929 7.07 2.929s5.119-.977 7.071-2.929c3.905-3.905 3.905-10.237 0-14.142l-6.593-6.591c-3.904-3.905-10.237-3.905-14.141 0z" fill="#000000" data-original="#000000"></path><path id="XMLID_475_" d="m498.489 136.38-33.062-33.061c-1.876-1.875-4.419-2.929-7.071-2.929s-5.196 1.054-7.071 2.929c-5.667 5.667-13.202 8.789-21.218 8.789-8.015 0-15.551-3.122-21.218-8.789-11.699-11.7-11.699-30.737 0-42.437 3.905-3.905 3.905-10.237 0-14.142l-33.24-33.24c-17.986-17.985-47.254-17.985-65.24 0l-169.192 169.194c-1.875 1.875-2.929 4.418-2.929 7.07l-.001 24.673h-24.672c-2.652 0-5.195 1.054-7.071 2.929l-92.992 92.992c-8.713 8.713-13.512 20.297-13.512 32.62s4.799 23.907 13.512 32.62l33.24 33.241c3.906 3.906 10.236 3.906 14.143 0 5.667-5.667 13.203-8.789 21.218-8.789 8.016 0 15.551 3.121 21.218 8.789 5.668 5.667 8.789 13.203 8.789 21.218s-3.121 15.55-8.789 21.218c-1.875 1.875-2.929 4.419-2.929 7.071s1.054 5.196 2.929 7.071l33.062 33.061c8.994 8.993 20.807 13.49 32.62 13.49s23.627-4.497 32.62-13.49l92.992-92.992c1.875-1.875 2.929-4.419 2.929-7.071v-24.672h24.672c2.652 0 5.195-1.054 7.071-2.929l60.467-60.467c3.905-3.905 3.905-10.237 0-14.142-3.906-3.905-10.236-3.905-14.143 0l-57.538 57.538h-30.529c-5.522 0-10 4.477-10 10v30.53l-90.063 90.063c-10.187 10.188-26.767 10.189-36.955 0l-26.693-26.692c5.387-8.112 8.278-17.627 8.278-27.586 0-13.357-5.201-25.915-14.646-35.36s-22.003-14.647-35.36-14.647c-9.959 0-19.475 2.892-27.586 8.278l-26.872-26.873c-10.188-10.188-10.188-26.767 0-36.955l90.063-90.063h30.529c5.522 0 10-4.477 10-10l.001-30.531 166.262-166.264c10.188-10.189 26.767-10.188 36.955 0l26.88 26.88c-12.837 19.406-10.716 45.862 6.36 62.939 9.445 9.445 22.004 14.646 35.36 14.646 9.96 0 19.475-2.892 27.586-8.278l26.693 26.692c10.188 10.189 10.188 26.768 0 36.956l-45.109 45.109c-3.905 3.905-3.905 10.237 0 14.143 3.906 3.905 10.236 3.906 14.143 0l45.109-45.109c17.986-17.987 17.987-47.253 0-65.241z" fill="#000000" data-original="#000000"></path><path id="XMLID_476_" d="m300.901 131.529c-5.32 1.481-8.433 6.995-6.952 12.315l32.44 116.551c1.231 4.424 5.25 7.321 9.628 7.321.888 0 1.791-.119 2.688-.369 5.32-1.481 8.433-6.995 6.952-12.315l-32.44-116.551c-1.481-5.32-6.994-8.43-12.316-6.952z" fill="#000000" data-original="#000000"></path><path id="XMLID_479_" d="m356.93 168.797c-11.697 11.698-11.698 30.732 0 42.432 5.85 5.849 13.532 8.773 21.216 8.773s15.366-2.925 21.216-8.774c11.698-11.699 11.697-30.733 0-42.431-5.667-5.667-13.201-8.788-21.216-8.788s-15.549 3.121-21.216 8.788zm28.289 28.289c-3.9 3.901-10.246 3.9-14.146 0s-3.9-10.247 0-14.147c1.89-1.889 4.401-2.93 7.073-2.93s5.184 1.041 7.073 2.93c3.9 3.9 3.9 10.247 0 14.147z" fill="#000000" data-original="#000000"></path><path id="XMLID_866_" d="m283.508 172.314c-5.667-5.667-13.201-8.788-21.216-8.788s-15.549 3.121-21.216 8.788c-11.697 11.698-11.698 30.732 0 42.432 5.85 5.849 13.532 8.773 21.216 8.773s15.366-2.925 21.216-8.774c11.698-11.699 11.697-30.734 0-42.431zm-14.143 28.288c-3.9 3.901-10.246 3.9-14.146 0s-3.9-10.247 0-14.147c1.89-1.889 4.401-2.93 7.073-2.93s5.184 1.041 7.073 2.93c3.901 3.901 3.901 10.247 0 14.147z" fill="#000000" data-original="#000000"></path><path id="XMLID_870_" d="m156.915 292.839c-3.904-3.905-10.234-3.905-14.143 0l-33.947 33.947c-3.905 3.905-3.905 10.237 0 14.142 1.953 1.953 4.512 2.929 7.071 2.929s5.118-.977 7.071-2.929l33.947-33.947c3.906-3.905 3.906-10.237.001-14.142z" fill="#000000" data-original="#000000"></path><path id="XMLID_883_" d="m147.015 374.975c2.559 0 5.118-.977 7.071-2.929l33.947-33.947c3.905-3.905 3.905-10.237 0-14.142-3.904-3.905-10.234-3.905-14.143 0l-33.947 33.947c-3.905 3.905-3.905 10.237 0 14.142 1.953 1.953 4.512 2.929 7.072 2.929z" fill="#000000" data-original="#000000"></path><path id="XMLID_884_" d="m178.133 406.092c2.56 0 5.118-.977 7.071-2.929l33.946-33.947c3.905-3.905 3.905-10.237 0-14.142-3.906-3.905-10.236-3.905-14.143 0l-33.946 33.947c-3.905 3.905-3.905 10.237 0 14.142 1.954 1.953 4.512 2.929 7.072 2.929z" fill="#000000" data-original="#000000"></path><path id="XMLID_984_" d="m414.492 261.479c-2.63 0-5.21 1.07-7.07 2.93-1.87 1.86-2.93 4.44-2.93 7.07s1.06 5.21 2.93 7.07c1.86 1.86 4.44 2.93 7.07 2.93s5.21-1.07 7.069-2.93c1.86-1.86 2.931-4.44 2.931-7.07s-1.07-5.21-2.931-7.07c-1.859-1.86-4.439-2.93-7.069-2.93z" fill="#000000" data-original="#000000"></path></g></svg>