<svg xmlns="http://www.w3.org/2000/svg" version="1.1" xmlns:xlink="http://www.w3.org/1999/xlink" xmlns:svgjs="http://svgjs.com/svgjs" width="512" height="512" x="0" y="0" viewBox="0 0 480 480" style="" xml:space="preserve" class=""><g><path d="m75.695 199.467c0 5.256 4.276 9.533 9.533 9.533h8.767c14.079 0 25.533 11.454 25.533 25.533s-11.454 25.533-25.533 25.533h-26.3c-4.418 0-8-3.582-8-8s3.582-8 8-8h26.3c5.256 0 9.533-4.276 9.533-9.533 0-5.256-4.276-9.533-9.533-9.533h-8.767c-14.079 0-25.533-11.454-25.533-25.533s11.454-25.533 25.533-25.533h26.299c4.418 0 8 3.582 8 8s-3.582 8-8 8h-26.299c-5.257 0-9.533 4.276-9.533 9.533zm96.067-19.919 21.916 70.132c1.318 4.217-1.032 8.704-5.25 10.022-4.216 1.317-8.704-1.033-10.022-5.25l-2.355-7.536h-23.851l-2.355 7.536c-1.069 3.423-4.227 5.616-7.633 5.616-5.395 0-9.247-5.24-7.638-10.388 2.085-6.672 19.644-62.859 21.917-70.132 2.331-7.464 12.94-7.459 15.271 0zm-.711 51.368-6.925-22.161-6.926 22.161zm45.674-56.982c-4.418 0-8 3.582-8 8v70.132c0 4.418 3.582 8 8 8h35.066c4.418 0 8-3.582 8-8s-3.582-8-8-8h-27.066v-62.132c0-4.418-3.582-8-8-8zm109.58 16c4.418 0 8-3.582 8-8s-3.582-8-8-8h-43.832c-4.418 0-8 3.582-8 8v70.132c0 4.418 3.582 8 8 8h43.832c4.418 0 8-3.582 8-8s-3.582-8-8-8h-35.832v-19.066h18.299c4.418 0 8-3.582 8-8s-3.582-8-8-8h-18.299v-19.066zm17.695-102.934c0-4.418-3.582-8-8-8h-296c-22.056 0-40 17.944-40 40v196c0 22.056 17.944 40 40 40h270c4.418 0 8-3.582 8-8s-3.582-8-8-8h-270c-13.234 0-24-10.766-24-24v-196c0-13.234 10.766-24 24-24h296c4.418 0 8-3.582 8-8zm96-8h-45.667c-4.418 0-8 3.582-8 8v27.342c0 4.418 3.582 8 8 8s8-3.582 8-8v-19.342h37.667c13.233 0 24 10.766 24 24v196c0 4.585-1.294 9.039-3.744 12.879-3.406 5.34.473 12.302 6.738 12.302 2.641 0 5.227-1.308 6.752-3.7 4.091-6.415 6.254-13.843 6.254-21.481v-196c0-22.056-17.944-40-40-40zm-45.667 124.228c4.418 0 8-3.582 8-8v-37.342c0-4.418-3.582-8-8-8s-8 3.582-8 8v37.342c0 4.418 3.582 8 8 8zm0 80.886c4.418 0 8-3.582 8-8v-37.342c0-4.418-3.582-8-8-8s-8 3.582-8 8v37.342c0 4.418 3.582 8 8 8zm56.667 90.886c0 14.336-11.664 26-26 26-11.093 0-20.581-6.986-24.308-16.787l-4.692-9.63-4.692 9.63c-3.727 9.801-13.215 16.787-24.308 16.787-14.336 0-26-11.664-26-26 0-23.803 29.549-35.083 45.413-17.271l.688-1.413-23.293-47.812c-1.935-3.972-.284-8.761 3.688-10.696 3.974-1.936 8.761-.284 10.696 3.688l17.808 36.554 17.808-36.554c1.935-3.972 6.723-5.624 10.696-3.688 3.972 1.935 5.623 6.724 3.688 10.696l-23.293 47.812.688 1.413c15.887-17.837 45.413-6.486 45.413 17.271zm-74 0c0-5.514-4.486-10-10-10s-10 4.486-10 10 4.486 10 10 10 10-4.486 10-10zm58 0c0-5.514-4.486-10-10-10s-10 4.486-10 10 4.486 10 10 10 10-4.486 10-10z" fill="#000000" data-original="#000000" class="" style=""></path></g></svg>