<svg xmlns="http://www.w3.org/2000/svg" version="1.1" xmlns:xlink="http://www.w3.org/1999/xlink" xmlns:svgjs="http://svgjs.com/svgjs" width="512" height="512" x="0" y="0" viewBox="0 0 64 64" style="" xml:space="preserve" class=""><g><g id="Voucher"><path d="m63.707 20.293-20-20a.9994.9994 0 0 0 -1.414 0l-24 24a.9993.9993 0 0 0 -.293.707v3h-3a1 1 0 0 0 -.707.293l-14 14a.9994.9994 0 0 0 0 1.414l20 20a.9995.9995 0 0 0 1.414 0l14-14a.9993.9993 0 0 0 .293-.707v-3h3a.9993.9993 0 0 0 .707-.293l24-24a.9994.9994 0 0 0 0-1.414zm-25.1211 23.707h-3.5859a1 1 0 0 0 -1 1v3.5859l-13 13-18.5859-18.5859 13-13h3.5859a1 1 0 0 0 1-1v-3.5859l23-23 18.5859 18.5859z" fill="#000000" data-original="#000000"></path><path d="m31.293 32.707a.9995.9995 0 0 0 1.414 0l16-16a1 1 0 0 0 -1.414-1.414l-16 16a.9994.9994 0 0 0 0 1.414z" fill="#000000" data-original="#000000"></path><path d="m42.293 10.293-16 16a1 1 0 1 0 1.414 1.414l16-16a1 1 0 0 0 -1.414-1.414z" fill="#000000" data-original="#000000"></path><path d="m42.793 29.793-6.5 6.5a1 1 0 1 0 1.414 1.414l6.5-6.5a1 1 0 0 0 -1.414-1.414z" fill="#000000" data-original="#000000"></path><path d="m28.707 37.293-2-2a1 1 0 0 0 -1.414 1.414l2 2a1 1 0 0 0 1.414-1.414z" fill="#000000" data-original="#000000"></path><path d="m23.293 34.707a1 1 0 0 0 1.414-1.414l-2-2a1 1 0 0 0 -1.414 1.414z" fill="#000000" data-original="#000000"></path><path d="m30.707 39.293a1 1 0 0 0 -1.414 1.414l2 2a1 1 0 0 0 1.414-1.414z" fill="#000000" data-original="#000000"></path><path d="m19 43a3 3 0 1 0 -3-3 3.0033 3.0033 0 0 0 3 3zm0-4a1 1 0 1 1 -1 1 1.0009 1.0009 0 0 1 1-1z" fill="#000000" data-original="#000000"></path><path d="m19 47a3 3 0 1 0 3 3 3.0033 3.0033 0 0 0 -3-3zm0 4a1 1 0 1 1 1-1 1.0009 1.0009 0 0 1 -1 1z" fill="#000000" data-original="#000000"></path><path d="m25 44h-12a1 1 0 0 0 0 2h12a1 1 0 0 0 0-2z" fill="#000000" data-original="#000000"></path></g></g></svg>