<svg xmlns="http://www.w3.org/2000/svg" version="1.1" xmlns:xlink="http://www.w3.org/1999/xlink" xmlns:svgjs="http://svgjs.com/svgjs" width="512" height="512" x="0" y="0" viewBox="0 0 64 64" style="" xml:space="preserve"><g><path d="M63.9,37.553l-7-14A1,1,0,0,0,56,23H44V13a1,1,0,0,0-1-1H1a1,1,0,0,0-1,1V46a1,1,0,0,0,1,1h9.09a5.993,5.993,0,0,0,11.82,0H46.09a5.993,5.993,0,0,0,11.82,0H63a1,1,0,0,0,1-1V38A1,1,0,0,0,63.9,37.553ZM59.382,33H51.947A1.95,1.95,0,0,1,50,31.053V25h5.382ZM2,41.965H9a1,1,0,0,0,0-2H2V14H42V39.965H23.1a1,1,0,0,0,0,2H42V45H21.91a5.993,5.993,0,0,0-11.82,0H2ZM16,50a4,4,0,1,1,4-4A4,4,0,0,1,16,50Zm36,0a4,4,0,1,1,4-4A4,4,0,0,1,52,50Zm10-5H57.91a5.993,5.993,0,0,0-11.82,0H44V25h4v6.053A3.952,3.952,0,0,0,51.947,35h8.435L62,38.236Z" fill="#000000" data-original="#000000"></path><path d="M52,43a3,3,0,1,0,3,3A3,3,0,0,0,52,43Zm0,4a1,1,0,1,1,1-1A1,1,0,0,1,52,47Z" fill="#000000" data-original="#000000"></path><path d="M16,43a3,3,0,1,0,3,3A3,3,0,0,0,16,43Zm0,4a1,1,0,1,1,1-1A1,1,0,0,1,16,47Z" fill="#000000" data-original="#000000"></path><path d="M11,28a1,1,0,0,0-1-1H7V24h5a1,1,0,0,0,0-2H6a1,1,0,0,0-1,1V33a1,1,0,0,0,2,0V29h3A1,1,0,0,0,11,28Z" fill="#000000" data-original="#000000"></path><path d="M24,34h6a1,1,0,0,0,0-2H25V29h3a1,1,0,0,0,0-2H25V24h5a1,1,0,0,0,0-2H24a1,1,0,0,0-1,1V33A1,1,0,0,0,24,34Z" fill="#000000" data-original="#000000"></path><path d="M33,34h6a1,1,0,0,0,0-2H34V29h3a1,1,0,0,0,0-2H34V24h5a1,1,0,0,0,0-2H33a1,1,0,0,0-1,1V33A1,1,0,0,0,33,34Z" fill="#000000" data-original="#000000"></path><path d="M15,34a1,1,0,0,0,1-1V29h1.434l2.709,4.515a1,1,0,0,0,1.714-1.03l-2.215-3.692A3.491,3.491,0,0,0,18.5,22H15a1,1,0,0,0-1,1V33A1,1,0,0,0,15,34Zm1-10h2.5a1.5,1.5,0,0,1,0,3H16Z" fill="#000000" data-original="#000000"></path><path d="M51,36H50a1,1,0,0,0,0,2h1a1,1,0,0,0,0-2Z" fill="#000000" data-original="#000000"></path></g></svg>