<svg xmlns="http://www.w3.org/2000/svg" version="1.1" xmlns:xlink="http://www.w3.org/1999/xlink" xmlns:svgjs="http://svgjs.com/svgjs" width="512" height="512" x="0" y="0" viewBox="0 0 24 24" style="" xml:space="preserve" class=""><g><path d="m12 14c-.192 0-.384-.073-.53-.22l-5.25-5.25c-.471-.471-.136-1.28.53-1.28h2.75v-6c0-.689.561-1.25 1.25-1.25h2.5c.689 0 1.25.561 1.25 1.25v6h2.75c.666 0 1.001.809.53 1.28l-5.25 5.25c-.146.147-.338.22-.53.22z" fill="#000000" data-original="#000000" class=""></path><path d="m11 21.192-11-5.042v2.35c0 .199.118.379.301.458l10.699 4.652z" fill="#000000" data-original="#000000" class=""></path><path d="m13 21.192v2.419l10.699-4.652c.183-.08.301-.26.301-.459v-2.35z" fill="#000000" data-original="#000000" class=""></path><path d="m17.581 11.558-3.636 3.636c-.52.52-1.211.806-1.945.806s-1.425-.286-1.944-.806l-3.636-3.636-6.42 2.942 12 5.5 12-5.5z" fill="#000000" data-original="#000000" class=""></path></g></svg>