<svg xmlns="http://www.w3.org/2000/svg" version="1.1" xmlns:xlink="http://www.w3.org/1999/xlink" xmlns:svgjs="http://svgjs.com/svgjs" width="512" height="512" x="0" y="0" viewBox="0 0 48 48" style="" xml:space="preserve" class=""><g><g><path d="m39.8 41.9c.9 0 1.8-.6 2.1-1.5l6-18.8c.2-.7.1-1.4-.3-1.9-.4-.6-1.1-.9-1.8-.9h-37.6c-.9 0-1.8.6-2.1 1.5l-6 18.7v.2c-.1.6 0 1.2.4 1.8s1 .9 1.7.9z" fill="#000000" data-original="#000000" class="" style=""></path><path d="m8.2 16.5h30.4v-3.8c0-.6-.5-1.1-1.1-1.1h-19.3c-1.3 0-2.6-.8-3.1-2.1l-1-2.7c-.2-.4-.6-.7-1-.7h-12c-.6 0-1.1.5-1.1 1.1v24.9l4-12.6c.6-1.8 2.3-3 4.2-3z" fill="#000000" data-original="#000000" class=""></path></g></g></svg>