<svg width="512" height="512" viewBox="0 0 512 512" fill="none" xmlns="http://www.w3.org/2000/svg">
<g>
<path d="M500.093 163.13C491.758 153.227 479.481 147.539 466.566 147.597H459.011V144.613C458.988 122.706 441.303 104.953 419.482 104.93H241.658C232.862 104.962 224.679 100.405 220.051 92.8962L197.53 56.7194C189.808 44.2041 176.169 36.6099 161.504 36.6609H32.5561C14.5832 36.6789 0.0179301 51.3012 0 69.3447V423.653C0.0229107 445.56 17.708 463.314 39.529 463.337H426.189C447.12 463.517 465.165 448.601 469.005 427.944L509.381 197.522C511.505 185.243 508.104 172.651 500.093 163.13ZM17.0008 69.3447C17.0127 60.7245 23.9706 53.7393 32.5571 53.7273H161.505C170.301 53.6953 178.483 58.2514 183.112 65.7606L205.633 101.936C213.355 114.452 226.994 122.046 241.659 121.995H419.483C431.921 122.006 442.001 132.126 442.013 144.612V147.595H83.7566C62.8262 147.367 44.7785 162.315 41.0231 182.988L17.0008 320.054V69.3447ZM492.63 194.59L452.263 424.962C449.863 437.469 438.875 446.449 426.189 446.271H39.529C27.0914 446.26 17.0117 436.14 16.9998 423.653V420.753C17.0017 419.275 17.1322 417.8 17.3902 416.345L57.7749 185.93C60.1167 173.433 71.091 164.45 83.7566 164.664H466.565C474.46 164.612 481.974 168.072 487.085 174.114C491.858 179.78 493.889 187.276 492.63 194.59Z" fill="black" stroke="black" stroke-width="4"/>
</g>

</svg>
