<svg xmlns="http://www.w3.org/2000/svg" version="1.1" xmlns:xlink="http://www.w3.org/1999/xlink" xmlns:svgjs="http://svgjs.com/svgjs" width="512" height="512" x="0" y="0" viewBox="0 0 32 32" style="" xml:space="preserve" class=""><g><path d="m29 7.783h-13.422l-2.639-3.704c-.188-.264-.491-.42-.814-.42h-9.125c-1.654 0-3 1.346-3 3v18.682c0 1.654 1.346 3 3 3h26c1.654 0 3-1.346 3-3v-14.558c0-1.654-1.346-3-3-3zm1 17.558c0 .551-.449 1-1 1h-26c-.551 0-1-.449-1-1v-18.682c0-.551.449-1 1-1h8.609l2.639 3.704c.188.264.491.42.814.42h13.938c.551 0 1 .449 1 1z" fill="#000000" data-original="#000000" class="" style=""></path></g></svg>