<svg xmlns="http://www.w3.org/2000/svg" version="1.1" xmlns:xlink="http://www.w3.org/1999/xlink" xmlns:svgjs="http://svgjs.com/svgjs" width="512" height="512" x="0" y="0" viewBox="0 0 468 468" style="" xml:space="preserve" class=""><g><g id="XMLID_265_"><g id="XMLID_615_"><path id="XMLID_943_" d="m263.15 96h-6.933c-8.836 0-16-7.163-16-16s7.164-16 16-16h6.933c8.836 0 16 7.163 16 16s-7.163 16-16 16z" fill="#000000" data-original="#000000" class=""></path></g><path id="XMLID_909_" d="m412 64h-103.194c-8.836 0-16 7.163-16 16s7.164 16 16 16h103.194c13.233 0 24 10.767 24 24v68.385h-195.764c9.599-19.617 6.628-43.945-9.044-59.557-15.815-15.756-39.91-18.637-59.755-8.958v-23.87h39.008c8.836 0 16-7.163 16-16s-7.164-16-16-16h-154.445c-30.879 0-56 25.121-56 56v228c0 30.879 25.121 56 56 56h356c30.878 0 56-25.121 56-56v-228c0-30.879-25.121-56-56-56zm-280.086 89.274c7.337 7.31 7.711 25.631 7.523 35.11-9.491.179-27.104.949-35.387-7.521-7.604-7.776-10.025-21.153-1.783-29.365 8.299-8.266 21.883-5.959 29.647 1.776zm74.911 27.589c-7.393 7.366-25.83 7.71-35.388 7.521-.186-9.466.176-27.821 7.524-35.11 12.205-12.108 26.109-5.301 29.646-1.776 8.234 8.201 5.915 21.698-1.782 29.365zm-150.825-84.863h83.438v23.869c-19.845-9.678-43.94-6.795-59.755 8.959-15.669 15.612-18.643 39.939-9.043 59.557h-38.64v-68.385c0-13.233 10.766-24 24-24zm-24 252v-127.615h84.937l-27.435 27.563c-5.823 5.85-6.169 15.511-.763 21.754 6.002 6.93 16.972 7.323 23.443.821l27.256-27.383v128.86h-83.438c-13.234 0-24-10.767-24-24zm380 24h-240.563v-128.718l26.667 26.929c6.217 6.279 16.348 6.328 22.627.111 6.279-6.218 6.329-16.349.111-22.627l-27.045-27.312h242.203v127.617c0 13.233-10.766 24-24 24z" fill="#000000" data-original="#000000" class="" style=""></path></g></g></svg>