<svg xmlns="http://www.w3.org/2000/svg" version="1.1" xmlns:xlink="http://www.w3.org/1999/xlink" xmlns:svgjs="http://svgjs.com/svgjs" width="512" height="512" x="0" y="0" viewBox="0 0 36 36" style="" xml:space="preserve" class=""><g><g fill-rule="evenodd"><path d="m16.86 6.57a4.57 4.57 0 0 0 -4.57-4.57h-5.72a4.57 4.57 0 0 0 -4.57 4.57v5.71a4.57 4.57 0 0 0 4.57 4.57h8a2.29 2.29 0 0 0 2.29-2.29v-8z" fill="#000000" data-original="#000000" class=""></path><path d="m19.14 6.57a4.57 4.57 0 0 1 4.57-4.57h5.71a4.57 4.57 0 0 1 4.58 4.57v5.71a4.57 4.57 0 0 1 -4.57 4.57h-8a2.29 2.29 0 0 1 -2.29-2.29v-8z" fill="#000000" data-original="#000000" class=""></path><path d="m16.86 29.43a4.57 4.57 0 0 1 -4.57 4.57h-5.72a4.57 4.57 0 0 1 -4.57-4.57v-5.72a4.57 4.57 0 0 1 4.57-4.57h8a2.29 2.29 0 0 1 2.29 2.29z" fill="#000000" data-original="#000000" class=""></path><path d="m19.14 29.43a4.57 4.57 0 0 0 4.57 4.57h5.71a4.57 4.57 0 0 0 4.58-4.57v-5.72a4.57 4.57 0 0 0 -4.57-4.57h-8a2.29 2.29 0 0 0 -2.29 2.29z" fill="#000000" data-original="#000000" class="" style=""></path></g></g></svg>