<svg xmlns="http://www.w3.org/2000/svg" version="1.1" xmlns:xlink="http://www.w3.org/1999/xlink" xmlns:svgjs="http://svgjs.com/svgjs" width="512" height="512" x="0" y="0" viewBox="0 0 24 24" style="" xml:space="preserve" class=""><g><path d="m4.5 6h-3c-.827 0-1.5-.673-1.5-1.5v-3c0-.827.673-1.5 1.5-1.5h3c.827 0 1.5.673 1.5 1.5v3c0 .827-.673 1.5-1.5 1.5zm-3-5c-.276 0-.5.225-.5.5v3c0 .275.224.5.5.5h3c.276 0 .5-.225.5-.5v-3c0-.275-.224-.5-.5-.5z" fill="#000000" data-original="#000000" class=""></path><path d="m4.5 15h-3c-.827 0-1.5-.673-1.5-1.5v-3c0-.827.673-1.5 1.5-1.5h3c.827 0 1.5.673 1.5 1.5v3c0 .827-.673 1.5-1.5 1.5zm-3-5c-.276 0-.5.225-.5.5v3c0 .275.224.5.5.5h3c.276 0 .5-.225.5-.5v-3c0-.275-.224-.5-.5-.5z" fill="#000000" data-original="#000000" class=""></path><path d="m4.5 24h-3c-.827 0-1.5-.673-1.5-1.5v-3c0-.827.673-1.5 1.5-1.5h3c.827 0 1.5.673 1.5 1.5v3c0 .827-.673 1.5-1.5 1.5zm-3-5c-.276 0-.5.225-.5.5v3c0 .275.224.5.5.5h3c.276 0 .5-.225.5-.5v-3c0-.275-.224-.5-.5-.5z" fill="#000000" data-original="#000000" class=""></path><path d="m13.5 6h-3c-.827 0-1.5-.673-1.5-1.5v-3c0-.827.673-1.5 1.5-1.5h3c.827 0 1.5.673 1.5 1.5v3c0 .827-.673 1.5-1.5 1.5zm-3-5c-.276 0-.5.225-.5.5v3c0 .275.224.5.5.5h3c.276 0 .5-.225.5-.5v-3c0-.275-.224-.5-.5-.5z" fill="#000000" data-original="#000000" class=""></path><path d="m13.5 15h-3c-.827 0-1.5-.673-1.5-1.5v-3c0-.827.673-1.5 1.5-1.5h3c.827 0 1.5.673 1.5 1.5v3c0 .827-.673 1.5-1.5 1.5zm-3-5c-.276 0-.5.225-.5.5v3c0 .275.224.5.5.5h3c.276 0 .5-.225.5-.5v-3c0-.275-.224-.5-.5-.5z" fill="#000000" data-original="#000000" class=""></path><path d="m13.5 24h-3c-.827 0-1.5-.673-1.5-1.5v-3c0-.827.673-1.5 1.5-1.5h3c.827 0 1.5.673 1.5 1.5v3c0 .827-.673 1.5-1.5 1.5zm-3-5c-.276 0-.5.225-.5.5v3c0 .275.224.5.5.5h3c.276 0 .5-.225.5-.5v-3c0-.275-.224-.5-.5-.5z" fill="#000000" data-original="#000000" class=""></path><path d="m22.5 6h-3c-.827 0-1.5-.673-1.5-1.5v-3c0-.827.673-1.5 1.5-1.5h3c.827 0 1.5.673 1.5 1.5v3c0 .827-.673 1.5-1.5 1.5zm-3-5c-.276 0-.5.225-.5.5v3c0 .275.224.5.5.5h3c.276 0 .5-.225.5-.5v-3c0-.275-.224-.5-.5-.5z" fill="#000000" data-original="#000000" class=""></path><path d="m22.5 15h-3c-.827 0-1.5-.673-1.5-1.5v-3c0-.827.673-1.5 1.5-1.5h3c.827 0 1.5.673 1.5 1.5v3c0 .827-.673 1.5-1.5 1.5zm-3-5c-.276 0-.5.225-.5.5v3c0 .275.224.5.5.5h3c.276 0 .5-.225.5-.5v-3c0-.275-.224-.5-.5-.5z" fill="#000000" data-original="#000000" class=""></path><path d="m22.5 24h-3c-.827 0-1.5-.673-1.5-1.5v-3c0-.827.673-1.5 1.5-1.5h3c.827 0 1.5.673 1.5 1.5v3c0 .827-.673 1.5-1.5 1.5zm-3-5c-.276 0-.5.225-.5.5v3c0 .275.224.5.5.5h3c.276 0 .5-.225.5-.5v-3c0-.275-.224-.5-.5-.5z" fill="#000000" data-original="#000000" class="" style=""></path></g></svg>