<svg xmlns="http://www.w3.org/2000/svg" version="1.1" xmlns:xlink="http://www.w3.org/1999/xlink" xmlns:svgjs="http://svgjs.com/svgjs" width="512" height="512" x="0" y="0" viewBox="0 0 32 32" style="" xml:space="preserve"><g><path d="m10 3.5h-6a.5.5 0 0 0 -.5.5v6a.5.5 0 0 0 .5.5h6a.5.5 0 0 0 .5-.5v-6a.5.5 0 0 0 -.5-.5zm-.5 6h-5v-5h5z" fill="#000000" data-original="#000000"></path><path d="m19 3.5h-6a.5.5 0 0 0 -.5.5v6a.5.5 0 0 0 .5.5h6a.5.5 0 0 0 .5-.5v-6a.5.5 0 0 0 -.5-.5zm-.5 6h-5v-5h5z" fill="#000000" data-original="#000000"></path><path d="m28 3.5h-6a.5.5 0 0 0 -.5.5v6a.5.5 0 0 0 .5.5h6a.5.5 0 0 0 .5-.5v-6a.5.5 0 0 0 -.5-.5zm-.5 6h-5v-5h5z" fill="#000000" data-original="#000000"></path><path d="m10 12.5h-6a.5.5 0 0 0 -.5.5v6a.5.5 0 0 0 .5.5h6a.5.5 0 0 0 .5-.5v-6a.5.5 0 0 0 -.5-.5zm-.5 6h-5v-5h5z" fill="#000000" data-original="#000000"></path><path d="m19 12.5h-6a.5.5 0 0 0 -.5.5v6a.5.5 0 0 0 .5.5h6a.5.5 0 0 0 .5-.5v-6a.5.5 0 0 0 -.5-.5zm-.5 6h-5v-5h5z" fill="#000000" data-original="#000000"></path><path d="m28 12.5h-6a.5.5 0 0 0 -.5.5v6a.5.5 0 0 0 .5.5h6a.5.5 0 0 0 .5-.5v-6a.5.5 0 0 0 -.5-.5zm-.5 6h-5v-5h5z" fill="#000000" data-original="#000000"></path><path d="m10 21.5h-6a.5.5 0 0 0 -.5.5v6a.5.5 0 0 0 .5.5h6a.5.5 0 0 0 .5-.5v-6a.5.5 0 0 0 -.5-.5zm-.5 6h-5v-5h5z" fill="#000000" data-original="#000000"></path><path d="m19 21.5h-6a.5.5 0 0 0 -.5.5v6a.5.5 0 0 0 .5.5h6a.5.5 0 0 0 .5-.5v-6a.5.5 0 0 0 -.5-.5zm-.5 6h-5v-5h5z" fill="#000000" data-original="#000000"></path><path d="m28 21.5h-6a.5.5 0 0 0 -.5.5v6a.5.5 0 0 0 .5.5h6a.5.5 0 0 0 .5-.5v-6a.5.5 0 0 0 -.5-.5zm-.5 6h-5v-5h5z" fill="#000000" data-original="#000000"></path></g></svg>