<svg xmlns="http://www.w3.org/2000/svg" version="1.1" xmlns:xlink="http://www.w3.org/1999/xlink" xmlns:svgjs="http://svgjs.com/svgjs" width="512" height="512" x="0" y="0" viewBox="0 0 512 512" style="" xml:space="preserve"><g>
<g>
	<g>
		<path d="M487.953,42.787l-17.519-17.413C454.94,9.973,434.313,1.492,412.354,1.492c-21.961,0-42.587,8.481-58.081,23.882
			l-105.112,104.48c-15.53,15.436-24.083,35.962-24.083,57.799c0,14.064,3.573,27.571,10.25,39.534l-8.308,8.258
			c-12.031-6.639-25.623-10.192-39.783-10.192c-21.96,0-42.586,8.482-58.08,23.883L24.046,353.618
			C8.539,369.03-0.001,389.557,0,411.415c0,21.858,8.539,42.385,24.045,57.797l17.518,17.413
			c15.495,15.401,36.121,23.882,58.081,23.882c21.96,0,42.587-8.481,58.081-23.882l105.112-104.48
			c15.53-15.435,24.084-35.962,24.084-57.8c0-15.801-4.507-30.9-12.871-43.894l6.538-6.498
			c13.075,8.335,28.271,12.827,44.173,12.827c21.938,0,42.565-8.494,58.081-23.918l105.113-104.481
			C503.46,142.971,512,122.444,512,100.586S503.46,58.2,487.953,42.787z M251.788,371.03l-105.112,104.48
			c-12.539,12.463-29.24,19.325-47.032,19.325c-17.79,0-34.494-6.863-47.032-19.325l-17.518-17.413
			c-12.524-12.449-19.422-29.027-19.422-46.682c-0.001-17.655,6.897-34.233,19.422-46.682l105.114-104.482
			c12.537-12.463,29.239-19.325,47.03-19.325c9.875,0,19.405,2.134,28.081,6.151l-27.591,27.424
			c-0.164-0.002-0.326-0.019-0.49-0.019c-8.708,0-16.892,3.367-23.043,9.48L59.083,388.443c-6.163,6.126-9.557,14.285-9.557,22.971
			c0,8.687,3.394,16.846,9.557,22.972l17.519,17.412c6.15,6.114,14.334,9.48,23.043,9.48s16.894-3.367,23.043-9.48l105.11-104.478
			c6.171-6.133,9.57-14.291,9.57-22.973c0-2.288-0.252-4.537-0.715-6.725l25.983-25.828c5.617,9.817,8.61,20.956,8.61,32.553
			C271.247,341.98,264.337,358.558,251.788,371.03z M153.685,354.285c6.158,6.12,14.341,9.491,23.043,9.491
			c6.166,0,12.069-1.7,17.178-4.865l-82.266,81.772c-3.194,3.174-7.453,4.923-11.994,4.923s-8.8-1.748-11.994-4.923l-17.518-17.411
			c-3.182-3.163-4.933-7.374-4.933-11.856s1.751-8.694,4.933-11.855l74.512-74.062c-0.344,1.901-0.528,3.844-0.528,5.816
			C144.115,339.994,147.513,348.151,153.685,354.285z M188.723,343.168c-3.203,3.182-7.462,4.934-11.995,4.934
			c-4.533,0-8.793-1.752-11.994-4.934c-3.188-3.169-4.944-7.38-4.944-11.855c0-4.476,1.756-8.686,4.944-11.855l155.041-154.108
			c3.201-3.182,7.461-4.934,11.992-4.934c4.534,0,8.793,1.752,11.994,4.934c3.189,3.17,4.944,7.38,4.944,11.857
			c0,4.475-1.756,8.684-4.944,11.854L188.723,343.168z M354.811,154.234c-6.158-6.121-14.34-9.492-23.043-9.492
			c-1.965,0-3.902,0.181-5.798,0.518l74.389-73.943c3.194-3.174,7.453-4.923,11.993-4.923s8.801,1.748,11.994,4.924l17.518,17.412
			c3.182,3.162,4.934,7.373,4.934,11.855c0,4.484-1.752,8.695-4.933,11.857l-82.402,81.906c3.197-5.096,4.915-10.986,4.915-17.144
			C364.381,168.525,360.982,160.366,354.811,154.234z M476.904,147.267L371.791,251.749c-12.56,12.484-29.262,19.36-47.032,19.36
			c-11.66,0-22.859-2.964-32.73-8.528l25.928-25.771c2.212,0.467,4.487,0.721,6.803,0.721c8.702,0,16.885-3.37,23.043-9.491
			l105.114-104.481c6.163-6.127,9.557-14.286,9.556-22.973c0-8.686-3.395-16.845-9.558-22.971l-17.518-17.412
			c-6.151-6.114-14.335-9.48-23.044-9.48s-16.892,3.367-23.043,9.479l-105.113,104.48c-6.17,6.133-9.568,14.291-9.568,22.972
			c0,0.153,0.016,0.301,0.018,0.452l-27.657,27.491c-4.073-8.637-6.237-18.122-6.237-27.944c0-17.632,6.91-34.211,19.458-46.683
			l105.112-104.48c12.538-12.463,29.239-19.325,47.032-19.325c17.79,0,34.493,6.863,47.031,19.325l17.52,17.413
			c12.523,12.45,19.422,29.028,19.422,46.683S489.428,134.817,476.904,147.267z" fill="#000000" data-original="#000000"></path>
	</g>
</g>
<g>
</g>
<g>
</g>
<g>
</g>
<g>
</g>
<g>
</g>
<g>
</g>
<g>
</g>
<g>
</g>
<g>
</g>
<g>
</g>
<g>
</g>
<g>
</g>
<g>
</g>
<g>
</g>
<g>
</g>
</g></svg>