<svg xmlns="http://www.w3.org/2000/svg" version="1.1" xmlns:xlink="http://www.w3.org/1999/xlink" xmlns:svgjs="http://svgjs.com/svgjs" width="512" height="512" x="0" y="0" viewBox="0 0 512 512" style="" xml:space="preserve"><g><path d="m388.679 218.632h-2.592v-84.9c0-73.74-59.982-133.732-133.722-133.732s-133.727 60-133.727 133.736v85.114a49.315 49.315 0 0 0 -44.573 49.026v194.878a49.3 49.3 0 0 0 49.243 49.246h265.371a49.3 49.3 0 0 0 49.255-49.237v-194.887a49.3 49.3 0 0 0 -49.256-49.244zm-136.314-192.719a107.93 107.93 0 0 1 107.8 107.823v84.9h-215.6v-84.9a107.926 107.926 0 0 1 107.8-107.81v-.011zm3.635 265.265v.013a52.351 52.351 0 0 1 12.963 103.071v32.22a12.962 12.962 0 1 1 -25.923-.01v-32.2a52.364 52.364 0 0 1 12.96-103.094zm0 78.79a26.427 26.427 0 1 1 26.43-26.426 26.45 26.45 0 0 1 -26.43 26.426z" fill-rule="evenodd" fill="#000000" data-original="#000000"></path></g></svg>