<svg xmlns="http://www.w3.org/2000/svg" version="1.1" xmlns:xlink="http://www.w3.org/1999/xlink" xmlns:svgjs="http://svgjs.com/svgjs" width="512" height="512" x="0" y="0" viewBox="0 0 512 512" style="" xml:space="preserve" class=""><g>
<g>
	<g>
		<path d="M256.005,0h-0.004c-79.042,0.002-143.348,64.31-143.348,143.353v1.445c0,4.78,3.876,8.656,8.656,8.656h48.06
			c4.78,0,8.656-3.876,8.656-8.656v-1.445c0-20.793,8.122-40.366,22.868-55.112c3.532-3.533,7.419-6.741,11.553-9.536
			c8.496-5.743,17.87-9.695,27.861-11.744c5.132-1.053,10.412-1.587,15.698-1.587c42.997,0,77.978,34.982,77.978,77.98v70.194
			c0,4.78,3.876,8.656,8.656,8.656h48.06c4.78,0,8.656-3.876,8.656-8.656v-70.194C399.355,64.308,335.048,0,256.005,0z
			 M382.043,204.891h-30.748h-0.001v-61.537c0-52.544-42.748-95.292-95.294-95.292c-6.448,0-12.9,0.652-19.174,1.94
			c-12.225,2.507-23.69,7.338-34.079,14.361c-5.045,3.412-9.789,7.327-14.098,11.637c-16.302,16.301-25.976,37.437-27.67,60.142
			h-30.813c3.752-66.152,58.757-118.827,125.832-118.83h0.004c69.499,0,126.039,56.541,126.039,126.04V204.891z" fill="#000000" data-original="#000000" class=""></path>
	</g>
</g>
<g>
	<g>
		<path d="M410.629,204.891H101.372c-20.507,0-37.189,16.683-37.189,37.188v232.733c0,20.505,16.683,37.188,37.189,37.188h309.257
			c20.506,0,37.188-16.683,37.188-37.189V242.079C447.817,221.574,431.135,204.891,410.629,204.891z M430.505,474.811
			c0,10.96-8.916,19.876-19.876,19.876H101.372c-10.96,0-19.877-8.916-19.877-19.876V242.079c0-10.96,8.917-19.876,19.877-19.876
			h309.257c10.96,0,19.876,8.916,19.876,19.876V474.811z" fill="#000000" data-original="#000000" class="" style=""></path>
	</g>
</g>
<g>
	<g>
		<path d="M283.96,369.309c9.49-8.111,15.007-19.888,15.007-32.538c0-23.693-19.274-42.967-42.967-42.967
			c-23.693,0-42.968,19.275-42.968,42.967c0,12.649,5.517,24.427,15.008,32.538l-9.097,43.344c-0.535,2.554,0.108,5.211,1.752,7.236
			c1.645,2.023,4.113,3.2,6.72,3.2h57.17c2.608,0,5.077-1.176,6.72-3.2c1.643-2.026,2.286-4.683,1.751-7.234L283.96,369.309z
			 M269.706,358.369c-3.042,1.936-4.566,5.553-3.825,9.081l8.043,38.324h-35.848l8.042-38.322c0.74-3.529-0.783-7.147-3.825-9.081
			c-7.482-4.762-11.95-12.836-11.95-21.601c0-14.145,11.51-25.655,25.656-25.655c14.145,0,25.655,11.51,25.655,25.655
			C281.653,345.535,277.187,353.61,269.706,358.369z" fill="#000000" data-original="#000000" class=""></path>
	</g>
</g>
<g>
</g>
<g>
</g>
<g>
</g>
<g>
</g>
<g>
</g>
<g>
</g>
<g>
</g>
<g>
</g>
<g>
</g>
<g>
</g>
<g>
</g>
<g>
</g>
<g>
</g>
<g>
</g>
<g>
</g>
</g></svg>