<svg xmlns="http://www.w3.org/2000/svg" version="1.1" xmlns:xlink="http://www.w3.org/1999/xlink" xmlns:svgjs="http://svgjs.com/svgjs" width="512" height="512" x="0" y="0" viewBox="0 0 512 512" style="" xml:space="preserve" class=""><g><path d="m388.684 218.623h-2.593v-84.9c0-73.74-59.983-133.723-133.72-133.723s-133.736 60-133.736 133.735a12.962 12.962 0 1 0 25.924 0 107.8 107.8 0 1 1 215.607 0v84.888h-236.847a49.316 49.316 0 0 0 -49.258 49.252v194.871a49.307 49.307 0 0 0 49.256 49.254l265.367-.01a49.294 49.294 0 0 0 49.254-49.231v-194.891a49.3 49.3 0 0 0 -49.257-49.234v-.011zm-132.684 147.344a26.427 26.427 0 1 1 26.429-26.426 26.45 26.45 0 0 1 -26.429 26.426zm0-78.79v.013a52.351 52.351 0 0 1 12.963 103.071v32.22a12.962 12.962 0 1 1 -25.924-.01v-32.2a52.364 52.364 0 0 1 12.961-103.094z" fill-rule="evenodd" fill="#000000" data-original="#000000"></path></g></svg>