<svg xmlns="http://www.w3.org/2000/svg" version="1.1" xmlns:xlink="http://www.w3.org/1999/xlink" xmlns:svgjs="http://svgjs.com/svgjs" width="512" height="512" x="0" y="0" viewBox="0 0 512 512" style="" xml:space="preserve" class=""><g><path d="m387.672 215.912v-80.655c0-74.581-60.672-135.257-135.256-135.257s-135.257 60.676-135.257 135.257v81.228a51.908 51.908 0 0 0 -44.015 51.238v192.45a51.886 51.886 0 0 0 51.827 51.827h262.058a51.886 51.886 0 0 0 51.827-51.827v-192.45a51.879 51.879 0 0 0 -51.184-51.811zm-135.256-183.912a103.373 103.373 0 0 1 103.256 103.257v80.643h-206.513v-80.643a103.374 103.374 0 0 1 103.257-103.257zm154.44 428.173a19.85 19.85 0 0 1 -19.827 19.827h-262.058a19.85 19.85 0 0 1 -19.827-19.827v-192.45a19.85 19.85 0 0 1 19.827-19.823h262.058a19.85 19.85 0 0 1 19.827 19.828zm-150.856-172.621a54.9 54.9 0 0 0 -16 107.412v29.38a16 16 0 1 0 32 0v-29.379a54.9 54.9 0 0 0 -16-107.413zm0 77.8a22.9 22.9 0 1 1 22.9-22.9 22.926 22.926 0 0 1 -22.9 22.898z" fill="#000000" data-original="#000000" class="" style=""></path></g></svg>