<svg xmlns="http://www.w3.org/2000/svg" version="1.1" xmlns:xlink="http://www.w3.org/1999/xlink" xmlns:svgjs="http://svgjs.com/svgjs" width="512" height="512" x="0" y="0" viewBox="0 0 512 512" style="" xml:space="preserve" class=""><g><g><path d="m76 180c0 88.916 67.881 185.384 127.778 268.748 14.238 19.805 27.876 38.774 39.741 56.572 2.783 4.175 7.471 6.68 12.48 6.68s9.697-2.505 12.48-6.68c11.865-17.798 25.503-36.768 39.741-56.572 59.899-83.364 127.78-179.832 127.78-268.748 0-99.258-80.742-180-180-180s-180 80.742-180 180zm270 0c0 49.629-40.371 90-90 90s-90-40.371-90-90 40.371-90 90-90 90 40.371 90 90z" fill="#000000" data-original="#000000" class="" style=""></path><circle cx="256" cy="180" r="60" fill="#000000" data-original="#000000" class=""></circle></g></g></svg>