<svg xmlns="http://www.w3.org/2000/svg" version="1.1" xmlns:xlink="http://www.w3.org/1999/xlink" xmlns:svgjs="http://svgjs.com/svgjs" width="512" height="512" x="0" y="0" viewBox="0 0 88 88" style="" xml:space="preserve" class=""><g><g id="Tracking"><path d="M86,1H52a1,1,0,0,0-1,1V32a1,1,0,0,0,1,1H86a1,1,0,0,0,1-1V2A1,1,0,0,0,86,1ZM85,9H75V3H85ZM73,13.5859,69.707,10.293a.9995.9995,0,0,0-1.414,0L65,13.5859V3h8ZM53,3H63V9H53Zm0,28V11H63v5a1,1,0,0,0,1.707.707L69,12.4141l4.293,4.2929A1,1,0,0,0,75,16V11H85V31Z" fill="#000000" data-original="#000000" class=""></path><path d="M15,54a7,7,0,1,0,7,7A7.0078,7.0078,0,0,0,15,54Zm0,12a5,5,0,1,1,5-5A5.0059,5.0059,0,0,1,15,66Z" fill="#000000" data-original="#000000" class=""></path><path d="M27.3682,54.6963a13.6821,13.6821,0,0,0-11.2954-7.6592,15.741,15.741,0,0,0-2.1456,0A13.6821,13.6821,0,0,0,2.6318,54.6963,15.1225,15.1225,0,0,0,3.34,69.5718L14.1567,86.5376a1,1,0,0,0,1.6866,0L26.66,69.5718A15.1225,15.1225,0,0,0,27.3682,54.6963ZM15,84.14,5.0264,68.4966a13.1148,13.1148,0,0,1-.6089-12.9,11.7,11.7,0,0,1,9.6474-6.5645Q14.5286,49,15,49t.9351.0322a11.7,11.7,0,0,1,9.6474,6.5645,13.1148,13.1148,0,0,1-.6089,12.9Z" fill="#000000" data-original="#000000" class=""></path><path d="M77.5,68h-33a4.5,4.5,0,0,1,0-9H65a11,11,0,0,0,0-22H29.5a8.5,8.5,0,0,1,0-17H48a1,1,0,0,0,0-2H29.5a10.5,10.5,0,0,0,0,21H65a9,9,0,0,1,0,18H44.5a6.5,6.5,0,0,0,0,13h33a7.5,7.5,0,0,1,0,15H20a1,1,0,0,0,0,2H77.5a9.5,9.5,0,0,0,0-19Z" fill="#000000" data-original="#000000" class="" style=""></path><path d="M29.5,43H65a5,5,0,0,1,0,10H44.5a10.5,10.5,0,0,0,0,21h33a3.5,3.5,0,0,1,0,7H23a1,1,0,0,0,0,2H77.5a5.5,5.5,0,0,0,0-11h-33a8.5,8.5,0,0,1,0-17H65a7,7,0,0,0,0-14H29.5a12.5,12.5,0,0,1,0-25H48a1,1,0,0,0,0-2H29.5a14.5,14.5,0,0,0,0,29Z" fill="#000000" data-original="#000000" class=""></path><path d="M67,24H56a1,1,0,0,0,0,2H67a1,1,0,0,0,0-2Z" fill="#000000" data-original="#000000" class=""></path><path d="M61,27H56a1,1,0,0,0,0,2h5a1,1,0,0,0,0-2Z" fill="#000000" data-original="#000000" class=""></path></g></g></svg>