<svg xmlns="http://www.w3.org/2000/svg" version="1.1" xmlns:xlink="http://www.w3.org/1999/xlink" xmlns:svgjs="http://svgjs.com/svgjs" width="512" height="512" x="0" y="0" viewBox="0 0 88 88" style="" xml:space="preserve"><g><g id="Tracking"><circle cx="15" cy="61" r="5" fill="#000000" data-original="#000000"></circle><path d="M27.37,54.7a13.657,13.657,0,0,0-11.3-7.66,15.2841,15.2841,0,0,0-2.14,0A13.657,13.657,0,0,0,2.63,54.7a15.1084,15.1084,0,0,0,.71,14.87L14.16,86.54a.997.997,0,0,0,1.68,0L26.66,69.57A15.1084,15.1084,0,0,0,27.37,54.7ZM15,68a7,7,0,1,1,7-7A7.0077,7.0077,0,0,1,15,68Z" fill="#000000" data-original="#000000"></path><path d="M77.5,68h-33a4.5,4.5,0,0,1,0-9H65a11,11,0,0,0,0-22H29.5a8.5,8.5,0,0,1,0-17H48a1,1,0,0,0,1-1V15a1,1,0,0,0-1-1H29.5a14.5,14.5,0,0,0,0,29H65a5,5,0,0,1,0,10H44.5a10.5,10.5,0,0,0,0,21h33a3.5,3.5,0,0,1,0,7H23a.9983.9983,0,0,0-.8.4l-3,4A1,1,0,0,0,20,87H77.5a9.5,9.5,0,0,0,0-19Z" fill="#000000" data-original="#000000"></path><path d="M63,1H52a1,1,0,0,0-1,1V9H63Z" fill="#000000" data-original="#000000"></path><path d="M86,1H75V9H87V2A1,1,0,0,0,86,1Z" fill="#000000" data-original="#000000"></path><path d="M69,10a.9967.9967,0,0,1,.707.293L73,13.5859V1H65V13.5859l3.293-3.2929A.9967.9967,0,0,1,69,10Z" fill="#000000" data-original="#000000"></path><path d="M75,16a1,1,0,0,1-1.707.707L69,12.4141,64.707,16.707A1,1,0,0,1,63,16V11H51V32a1,1,0,0,0,1,1H86a1,1,0,0,0,1-1V11H75ZM60,30H55a1,1,0,0,1,0-2h5a1,1,0,0,1,0,2Zm6-4H55a1,1,0,0,1,0-2H66a1,1,0,0,1,0,2Z" fill="#000000" data-original="#000000"></path></g></g></svg>