<svg xmlns="http://www.w3.org/2000/svg" version="1.1" xmlns:xlink="http://www.w3.org/1999/xlink" xmlns:svgjs="http://svgjs.com/svgjs" width="512" height="512" x="0" y="0" viewBox="0 0 64 64" style="" xml:space="preserve" class=""><g><g id="Tracking"><path d="M54,26a1.00052,1.00052,0,0,0,.74414-.332C55.69141,24.6123,64,15.20313,64,10a10,10,0,0,0-20,0c0,5.20313,8.30859,14.6123,9.25586,15.668A1.00052,1.00052,0,0,0,54,26ZM49,10a5,5,0,1,1,5,5A5.00588,5.00588,0,0,1,49,10Z" fill="#000000" data-original="#000000" class=""></path><circle cx="54" cy="10" r="3" fill="#000000" data-original="#000000" class=""></circle><path d="M57,34H19a4,4,0,0,1,0-8H49a1,1,0,0,0,0-2H19a6,6,0,0,0,0,12H57a4,4,0,0,1,0,8H34a5,5,0,0,0,0,10H47a4,4,0,0,1,0,8H18.81573a2.80554,2.80554,0,0,0,0-2H21a1,1,0,0,0,0-2H3.5a.5.5,0,0,1,0-1H18a.9989.9989,0,0,0,.94824-.68359l3-9A.999.999,0,0,0,21,46H5.71875l-.74414-3.22461A.99976.99976,0,0,0,4,42H1a1,1,0,0,0,0,2H3.2041L5.74274,55H3.5a2.5,2.5,0,0,0,0,5H5.18427A2.96457,2.96457,0,0,0,5,61a3,3,0,0,0,6,0,2.96457,2.96457,0,0,0-.18427-1h2.36854A2.96457,2.96457,0,0,0,13,61a3.00328,3.00328,0,0,0,3,3H47a6,6,0,0,0,0-12H34a3,3,0,0,1,0-6H57a6,6,0,0,0,0-12Z" fill="#000000" data-original="#000000" class=""></path></g></g></svg>