<svg xmlns="http://www.w3.org/2000/svg" version="1.1" xmlns:xlink="http://www.w3.org/1999/xlink" xmlns:svgjs="http://svgjs.com/svgjs" width="512" height="512" x="0" y="0" viewBox="0 0 25 25" style="" xml:space="preserve" class=""><g><g id="Layer_38" data-name="Layer 38"><circle cx="9.5" cy="9.51" r=".78" fill="#000000" data-original="#000000" class=""></circle><path d="m15.49 14.72a.78.78 0 0 0 -.78.78.79.79 0 1 0 .78-.78z" fill="#000000" data-original="#000000" class=""></path><path d="m21.7 10.19a4.44 4.44 0 0 1 -.88-1.14 4.63 4.63 0 0 1 -.2-1.49 3.5 3.5 0 0 0 -.71-2.47 3.5 3.5 0 0 0 -2.47-.71 4.63 4.63 0 0 1 -1.44-.2 4.44 4.44 0 0 1 -1.14-.88 3.66 3.66 0 0 0 -2.36-1.3 3.61 3.61 0 0 0 -2.31 1.3 4.61 4.61 0 0 1 -1.14.88 4.67 4.67 0 0 1 -1.49.2 3.51 3.51 0 0 0 -2.48.71 3.49 3.49 0 0 0 -.7 2.47 4.9 4.9 0 0 1 -.21 1.49 4.22 4.22 0 0 1 -.88 1.14 3.64 3.64 0 0 0 -1.29 2.31 3.59 3.59 0 0 0 1.28 2.31 4.38 4.38 0 0 1 .89 1.19 4.67 4.67 0 0 1 .2 1.49 3.56 3.56 0 0 0 .71 2.48 3.51 3.51 0 0 0 2.48.7 5 5 0 0 1 1.49.21 4.38 4.38 0 0 1 1.14.88 3.59 3.59 0 0 0 2.31 1.24 3.64 3.64 0 0 0 2.31-1.28 4.22 4.22 0 0 1 1.19-.89 4.63 4.63 0 0 1 1.49-.2 3.55 3.55 0 0 0 2.47-.71 3.51 3.51 0 0 0 .71-2.48 4.67 4.67 0 0 1 .2-1.49 4.61 4.61 0 0 1 .88-1.14 3.61 3.61 0 0 0 1.25-2.31 3.66 3.66 0 0 0 -1.3-2.31zm-14-.68a1.79 1.79 0 1 1 1.8 1.78 1.79 1.79 0 0 1 -1.79-1.78zm1.71 6.77a.48.48 0 0 1 -.7 0 .48.48 0 0 1 0-.7l6.85-6.86a.5.5 0 1 1 .71.71zm6.07 1a1.79 1.79 0 1 1 1.79-1.79 1.79 1.79 0 0 1 -1.78 1.8z" fill="#000000" data-original="#000000" class="" style=""></path></g></g></svg>