<svg xmlns="http://www.w3.org/2000/svg" version="1.1" xmlns:xlink="http://www.w3.org/1999/xlink" xmlns:svgjs="http://svgjs.com/svgjs" width="512" height="512" x="0" y="0" viewBox="0 0 25 25" style="" xml:space="preserve"><g><g id="Layer_38" data-name="Layer 38"><path d="M16.28,8.72a.51.51,0,0,0-.71,0L8.72,15.58a.48.48,0,0,0,0,.7.48.48,0,0,0,.7,0l6.86-6.85A.51.51,0,0,0,16.28,8.72Z" fill="#000000" data-original="#000000"></path><path d="M15.49,13.72a1.79,1.79,0,1,0,1.79,1.78A1.78,1.78,0,0,0,15.49,13.72Zm0,2.57a.79.79,0,0,1-.78-.79.79.79,0,0,1,1.57,0A.79.79,0,0,1,15.49,16.29Z" fill="#000000" data-original="#000000"></path><path d="M11.28,9.51A1.79,1.79,0,1,0,9.5,11.29,1.79,1.79,0,0,0,11.28,9.51Zm-2.57,0a.79.79,0,0,1,.79-.79.79.79,0,1,1-.79.79Z" fill="#000000" data-original="#000000"></path><path d="M21.7,10.19a4.44,4.44,0,0,1-.88-1.14,4.63,4.63,0,0,1-.2-1.49,3.5,3.5,0,0,0-.71-2.47,3.5,3.5,0,0,0-2.47-.71A4.63,4.63,0,0,1,16,4.18a4.44,4.44,0,0,1-1.14-.88A3.66,3.66,0,0,0,12.5,2,3.61,3.61,0,0,0,10.19,3.3a4.61,4.61,0,0,1-1.14.88,4.67,4.67,0,0,1-1.49.2,3.51,3.51,0,0,0-2.48.71,3.49,3.49,0,0,0-.7,2.47,4.9,4.9,0,0,1-.21,1.49,4.22,4.22,0,0,1-.88,1.14A3.64,3.64,0,0,0,2,12.5a3.59,3.59,0,0,0,1.28,2.31A4.38,4.38,0,0,1,4.17,16a4.67,4.67,0,0,1,.2,1.49,3.56,3.56,0,0,0,.71,2.48,3.51,3.51,0,0,0,2.48.7,5,5,0,0,1,1.49.21,4.38,4.38,0,0,1,1.14.88A3.59,3.59,0,0,0,12.5,23a3.64,3.64,0,0,0,2.31-1.28A4.22,4.22,0,0,1,16,20.83a4.63,4.63,0,0,1,1.49-.2,3.55,3.55,0,0,0,2.47-.71,3.51,3.51,0,0,0,.71-2.48,4.67,4.67,0,0,1,.2-1.49,4.61,4.61,0,0,1,.88-1.14A3.61,3.61,0,0,0,23,12.5,3.66,3.66,0,0,0,21.7,10.19ZM21,14.13a5.19,5.19,0,0,0-1.07,1.44,5.33,5.33,0,0,0-.28,1.84,2.88,2.88,0,0,1-.41,1.8,2.86,2.86,0,0,1-1.81.42,5.33,5.33,0,0,0-1.84.28A5.19,5.19,0,0,0,14.12,21c-.55.52-1.08,1-1.62,1s-1.07-.49-1.63-1a5.19,5.19,0,0,0-1.44-1.07,5.31,5.31,0,0,0-1.83-.28,2.83,2.83,0,0,1-1.81-.42,2.83,2.83,0,0,1-.42-1.81,5.31,5.31,0,0,0-.28-1.83A5.19,5.19,0,0,0,4,14.13c-.52-.56-1-1.08-1-1.63s.49-1.07,1-1.62A5.19,5.19,0,0,0,5.09,9.44,5.33,5.33,0,0,0,5.37,7.6a2.86,2.86,0,0,1,.42-1.81A2.9,2.9,0,0,1,7.6,5.38,5.31,5.31,0,0,0,9.43,5.1,5.19,5.19,0,0,0,10.87,4c.56-.52,1.08-1,1.63-1s1.07.5,1.62,1A5.19,5.19,0,0,0,15.56,5.1a5.33,5.33,0,0,0,1.84.28,2.93,2.93,0,0,1,1.81.41,2.91,2.91,0,0,1,.41,1.81,5.33,5.33,0,0,0,.28,1.84A5.19,5.19,0,0,0,21,10.88c.52.55,1,1.08,1,1.62S21.49,13.57,21,14.13Z" fill="#000000" data-original="#000000"></path></g></g></svg>