<svg xmlns="http://www.w3.org/2000/svg" version="1.1" xmlns:xlink="http://www.w3.org/1999/xlink" xmlns:svgjs="http://svgjs.com/svgjs" width="512" height="512" x="0" y="0" viewBox="0 0 512 512" style="" xml:space="preserve" class=""><g><path d="m508.485 153.113-149.597-149.596c-2.251-2.25-5.303-3.515-8.486-3.515s-6.235 1.265-8.485 3.516l-3.782 3.783c-13.262 13.263-21.583 30.728-24.061 50.508-2.034 16.232-.068 33.419 5.686 50.146l-78.448 78.447c-30.335-19.259-61.369-29.777-88.244-29.777-21.102 0-38.873 6.617-51.392 19.135l-4.73 4.73c-4.686 4.687-4.686 12.284 0 16.971l86.833 86.833-111.458 111.458c-.459.46-.881.956-1.26 1.483l-68.806 95.761c-3.43 4.773-2.897 11.33 1.26 15.487 2.323 2.323 5.396 3.515 8.489 3.515 2.44 0 4.892-.742 6.998-2.255l95.764-68.803c.528-.379 1.024-.801 1.483-1.26l111.457-111.457 86.834 86.834c2.343 2.343 5.415 3.515 8.485 3.515 3.071 0 6.142-1.172 8.485-3.515l4.73-4.73c28.999-28.999 24.494-84.297-10.642-139.636l78.452-78.452c12.388 4.246 25.217 6.468 37.53 6.468 24.686 0 47.103-8.821 63.117-24.838l3.785-3.784c2.251-2.25 3.516-5.303 3.516-8.485.002-3.183-1.262-6.236-3.513-8.487zm-408.516 268.907-35.479 25.49 25.491-35.478 110.767-110.767 9.987 9.987zm341.613-247.313c-11.716 0-24.134-2.597-35.913-7.51-4.489-1.874-9.666-.851-13.105 2.589l-90.871 90.871c-4.099 4.099-4.682 10.542-1.385 15.31 30.913 44.71 39.626 90.135 22.438 113.354l-200.07-200.069c7.706-5.728 17.901-8.626 30.392-8.626 24.17 0 54.411 11.324 82.968 31.069 4.768 3.297 11.21 2.714 15.31-1.385l90.871-90.871c3.439-3.44 4.462-8.616 2.59-13.105-11.967-28.688-9.613-57.555 5.868-77.089l132.086 132.085c-11.053 8.774-25.152 13.377-41.179 13.377z" fill="#000000" data-original="#000000" class="" style=""></path></g></svg>