<svg xmlns="http://www.w3.org/2000/svg" version="1.1" xmlns:xlink="http://www.w3.org/1999/xlink" xmlns:svgjs="http://svgjs.com/svgjs" width="512" height="512" x="0" y="0" viewBox="0 0 512 512" style="" xml:space="preserve" class=""><g><path clip-rule="evenodd" d="m511.999 256.001c0 68.326-26.666 132.706-74.979 181.02-48.314 48.314-112.695 74.979-181.02 74.979-68.324 0-132.703-26.666-181.016-74.978-48.314-48.316-74.983-112.693-74.983-181.021 0-90.737 48.286-174.912 126.455-220.827 9.48-5.568 20.451-5.63 29.992-.169 9.542 5.461 15.046 14.953 15.046 25.947 0 11.608-4.538 20.972-14.684 26.969-59.324 35.067-95.954 99.102-95.954 168.079 0 107.596 87.548 195.144 195.144 195.144 107.595 0 195.144-87.548 195.144-195.144 0-68.975-36.623-133.013-95.948-168.077-9.337-5.519-14.685-14.889-14.685-25.736 0-11.755 4.685-21.253 15.046-27.183 9.541-5.461 20.513-5.4 29.992.167 78.17 45.912 126.45 130.097 126.45 220.83zm-226.441-40.133v-186.315c0-16.319-13.24-29.553-29.558-29.553s-29.553 13.235-29.553 29.553v186.314c0 16.323 13.229 29.554 29.553 29.554 16.323.001 29.558-13.229 29.558-29.553z" fill-rule="evenodd" fill="#000000" data-original="#000000" class="" style=""></path></g></svg>