<svg xmlns="http://www.w3.org/2000/svg" version="1.1" xmlns:xlink="http://www.w3.org/1999/xlink" xmlns:svgjs="http://svgjs.com/svgjs" width="512" height="512" x="0" y="0" viewBox="0 0 511.422 511.422" style="" xml:space="preserve"><g><g><g><path d="m255.683 511.422c-67.925 0-131.844-26.327-180.088-74.199-48.483-48.11-75.33-112.222-75.593-180.524-.264-68.302 26.087-132.619 74.197-181.103s112.222-75.33 180.524-75.594c.337-.001.679-.002 1.016-.002 67.926 0 131.844 26.326 180.087 74.199 48.484 48.11 75.33 112.222 75.594 180.524.264 68.302-26.087 132.618-74.197 181.103-48.11 48.483-112.222 75.33-180.524 75.594-.338.001-.678.002-1.016.002zm.053-481.422c-.302 0-.596.001-.897.002-60.289.232-116.879 23.93-159.345 66.725-42.466 42.796-65.725 99.567-65.492 159.856.232 60.288 23.929 116.878 66.725 159.345 42.581 42.253 99.008 65.491 158.96 65.494.302 0 .594-.001.896-.002 60.289-.232 116.879-23.93 159.345-66.726 42.467-42.795 65.726-99.566 65.492-159.855-.232-60.289-23.929-116.878-66.725-159.345-42.581-42.254-99.007-65.494-158.959-65.494z" fill="#000000" data-original="#000000"></path></g><g><path d="m255.615 386.608c-33.187.001-64.603-12.469-88.84-35.348-25.166-23.755-39.575-55.889-40.572-90.481-.92-31.905 9.901-62.897 30.47-87.269 5.344-6.331 14.807-7.133 21.138-1.788 6.331 5.343 7.131 14.807 1.788 21.138-15.802 18.723-24.115 42.536-23.409 67.054.767 26.583 11.839 51.276 31.178 69.531 19.339 18.256 44.654 27.893 71.211 27.12 54.876-1.582 98.233-47.514 96.651-102.39-.667-23.141-9.433-45.443-24.682-62.799-5.468-6.224-4.855-15.701 1.368-21.169s15.699-4.855 21.169 1.368c19.853 22.595 31.264 51.622 32.133 81.734 2.059 71.412-54.364 131.185-125.774 133.243-1.276.038-2.557.056-3.829.056z" fill="#000000" data-original="#000000"></path></g><g><path d="m255.478 212.017c-8.257 0-14.967-6.678-14.999-14.942l-.331-85.627c-.032-8.284 6.658-15.025 14.942-15.058h.059c8.258 0 14.967 6.678 14.999 14.942l.331 85.627c.032 8.284-6.658 15.025-14.942 15.058-.02 0-.039 0-.059 0z" fill="#000000" data-original="#000000"></path></g></g></g></svg>