<svg xmlns="http://www.w3.org/2000/svg" version="1.1" xmlns:xlink="http://www.w3.org/1999/xlink" xmlns:svgjs="http://svgjs.com/svgjs" width="512" height="512" x="0" y="0" viewBox="0 0 512.002 512.002" style="" xml:space="preserve"><g><path d="m256.03.058c-.342 0-.676.001-1.018.002-68.38.264-132.564 27.135-180.729 75.662-48.165 48.528-74.545 112.904-74.281 181.268.264 68.363 27.141 132.533 75.679 180.687 48.295 47.912 112.295 74.263 180.293 74.266.342 0 .673-.001 1.016-.002 68.38-.264 132.564-27.135 180.729-75.663 48.166-48.527 74.546-112.902 74.281-181.267-.264-68.364-27.14-132.533-75.679-180.687-48.295-47.913-112.294-74.266-180.291-74.266zm-.733 75.282h.066c9.366 0 16.975 7.572 17.012 16.944l.375 97.096c.037 9.394-7.552 17.038-16.948 17.074h-.066c-9.365 0-16.975-7.572-17.012-16.944l-.375-97.096c-.035-9.393 7.552-17.037 16.948-17.074zm4.939 329.029c-1.449.041-2.901.062-4.344.062-37.641.001-73.273-14.139-100.762-40.082-28.543-26.937-44.886-63.374-46.017-102.601-1.043-36.179 11.23-71.322 34.559-98.957 6.061-7.179 16.794-8.088 23.974-2.028 7.18 6.058 8.088 16.79 2.028 23.969-17.923 21.23-27.352 48.233-26.55 76.035.869 30.144 13.428 58.144 35.362 78.844 21.934 20.701 50.647 31.629 80.768 30.753 62.24-1.794 111.416-53.878 109.622-116.104-.757-26.24-10.698-51.53-27.994-71.21-6.202-7.057-5.507-17.804 1.552-24.004 7.058-6.2 17.806-5.506 24.01 1.551 22.517 25.621 35.459 58.536 36.445 92.682 2.336 80.977-61.659 148.756-142.653 151.09z" fill="#000000" data-original="#000000"></path></g></svg>