<svg xmlns="http://www.w3.org/2000/svg" version="1.1" xmlns:xlink="http://www.w3.org/1999/xlink" xmlns:svgjs="http://svgjs.com/svgjs" width="512" height="512" x="0" y="0" viewBox="0 0 512 512" style="" xml:space="preserve" class=""><g><path d="m512 256c0 68.38-26.629 132.668-74.98 181.02s-112.64 74.98-181.02 74.98-132.668-26.629-181.02-74.98-74.98-112.64-74.98-181.02c0-100.905 59.559-192.698 151.731-233.854 8.068-3.604 17.531.018 21.133 8.086 3.604 8.069-.018 17.53-8.086 21.133-80.66 36.015-132.778 116.339-132.778 204.635 0 123.514 100.486 224 224 224s224-100.486 224-224c0-88.295-52.118-168.619-132.778-204.634-8.068-3.603-11.689-13.064-8.086-21.133s13.064-11.688 21.133-8.086c92.172 41.155 151.731 132.948 151.731 233.853zm-240-61.203v-178.797c0-8.836-7.163-16-16-16s-16 7.164-16 16v178.797c0 8.836 7.163 16 16 16s16-7.163 16-16z" fill="#000000" data-original="#000000" class="" style=""></path></g></svg>