<svg xmlns="http://www.w3.org/2000/svg" version="1.1" xmlns:xlink="http://www.w3.org/1999/xlink" xmlns:svgjs="http://svgjs.com/svgjs" width="512" height="512" x="0" y="0" viewBox="0 0 24 24" style="" xml:space="preserve"><g><path d="m19.3 6.3c1 1.1 1.6 2.3 1.6 4.3 0 3.5-2.5 6.6-6 8.2l-.9-1.3c3.3-1.8 4-4.1 4.2-5.6-.5.3-1.2.4-1.9.3-1.8-.2-3.2-1.6-3.2-3.5 0-.9.4-1.8 1-2.5.7-.7 1.5-1 2.5-1 1.1 0 2.1.5 2.7 1.1zm-10 0c1 1.1 1.6 2.3 1.6 4.3 0 3.5-2.5 6.6-6 8.2l-.9-1.3c3.3-1.8 4-4.1 4.2-5.6-.5.3-1.2.4-1.9.3-1.8-.2-3.2-1.7-3.2-3.5 0-.9.4-1.8 1-2.5.7-.7 1.5-1 2.5-1 1.1 0 2.1.5 2.7 1.1z" fill="#000000" data-original="#000000"></path></g></svg>