<svg xmlns="http://www.w3.org/2000/svg" version="1.1" xmlns:xlink="http://www.w3.org/1999/xlink" xmlns:svgjs="http://svgjs.com/svgjs" width="512" height="512" x="0" y="0" viewBox="0 0 20 20" style="" xml:space="preserve" class=""><g><g fill="rgb(0,0,0)"><path d="m4.5 3c-2.5 0-4.5 2-4.5 4.5s2 4.5 4.5 4.5c.5 0 1-.1 1.4-.2-1.2 1.9-3.4 3.2-5.9 3.2v2c5 0 9-4 9-9v-.5c0-2.5-2-4.5-4.5-4.5zm0 7c-1.4 0-2.5-1.1-2.5-2.5s1.1-2.5 2.5-2.5 2.5 1.1 2.5 2.5-1.1 2.5-2.5 2.5z" fill="#000000" data-original="#000000"></path><path d="m15.5 3c-2.5 0-4.5 2-4.5 4.5s2 4.5 4.5 4.5c.5 0 1-.1 1.4-.2-1.2 1.9-3.4 3.2-5.9 3.2v2c5 0 9-4 9-9v-.5c0-2.5-2-4.5-4.5-4.5zm-2.5 4.5c0-1.4 1.1-2.5 2.5-2.5s2.5 1.1 2.5 2.5-1.1 2.5-2.5 2.5-2.5-1.1-2.5-2.5z" fill="#000000" data-original="#000000"></path></g></g></svg>