<svg xmlns="http://www.w3.org/2000/svg" version="1.1" xmlns:xlink="http://www.w3.org/1999/xlink" xmlns:svgjs="http://svgjs.com/svgjs" width="512" height="512" x="0" y="0" viewBox="0 0 24 24" style="" xml:space="preserve" class=""><g><path d="m2 20.5a1 1 0 0 1 0-2 7.0078 7.0078 0 0 0 7-7v-.5548a3.9591 3.9591 0 0 1 -2 .5548 4 4 0 1 1 4-4v4a9.01 9.01 0 0 1 -9 9zm17-17a4 4 0 0 0 0 8 3.9591 3.9591 0 0 0 2-.5548v.5548a7.0078 7.0078 0 0 1 -7 7 1 1 0 0 0 0 2 9.01 9.01 0 0 0 9-9v-4a4 4 0 0 0 -4-4z" fill="#000000" data-original="#000000" class="" style=""></path></g></svg>