<svg xmlns="http://www.w3.org/2000/svg" version="1.1" xmlns:xlink="http://www.w3.org/1999/xlink" xmlns:svgjs="http://svgjs.com/svgjs" width="512" height="512" x="0" y="0" viewBox="0 0 512 512" style="" xml:space="preserve" class=""><g>
<g>
	<g>
		<path d="M371.626,161.698H228.749v-34.311c0-11.413-6.097-22.062-15.914-27.791c-4.861-2.835-10.401-4.333-16.02-4.333
			c-5.582,0-11.089,1.481-15.928,4.281l-164.88,95.451C6.132,200.71,0,211.38,0,222.838s6.133,22.127,16.006,27.843l164.879,95.451
			c4.838,2.801,10.346,4.282,15.929,4.282c5.618,0,11.158-1.498,16.021-4.335c9.816-5.726,15.914-16.375,15.914-27.789v-41.336
			h119.984c34.878,0,63.252,28.626,63.252,63.813v43.845c0,12.646,7.415,24.156,18.887,29.322c4.132,1.86,8.519,2.803,13.042,2.803
			c7.889,0,15.466-2.918,21.337-8.218c8.133-7.345,15.435-15.674,21.704-24.757C503.339,360.023,512,332.138,512,303.121
			C512,225.14,449.028,161.698,371.626,161.698z M474.055,374.86c-5.579,8.084-12.075,15.496-19.307,22.025
			c-2.984,2.695-6.833,4.179-10.833,4.179c-2.289,0-4.512-0.479-6.607-1.421c-5.861-2.639-9.649-8.539-9.649-15.031v-43.845
			c0-43.829-35.406-79.486-78.925-79.486H220.912c-4.329,0-7.837,3.509-7.837,7.837v49.173c0,5.862-3.118,11.323-8.137,14.251
			c-4.922,2.869-11.278,2.878-16.2,0.028l-164.88-95.454c-5.049-2.923-8.186-8.394-8.186-14.279s3.137-11.356,8.186-14.279
			l164.879-95.45c4.927-2.853,11.285-2.841,16.199,0.025c5.021,2.93,8.139,8.392,8.139,14.253v42.148
			c0,4.328,3.508,7.837,7.837,7.837h150.714c68.76-0.001,124.7,56.41,124.7,125.748C496.327,328.942,488.625,353.749,474.055,374.86
			z" fill="#000000" data-original="#000000" class="" style=""></path>
	</g>
</g>
<g>
	<g>
		<path d="M306.155,195.918h-87.771c-4.329,0-7.837,3.509-7.837,7.837c0,4.328,3.508,7.837,7.837,7.837h87.771
			c4.329,0,7.837-3.509,7.837-7.837C313.992,199.427,310.484,195.918,306.155,195.918z" fill="#000000" data-original="#000000" class=""></path>
	</g>
</g>
<g>
	<g>
		<path d="M267.146,228.31h-48.762c-4.329,0-7.837,3.509-7.837,7.837c0,4.328,3.508,7.837,7.837,7.837h48.762
			c4.329,0,7.837-3.509,7.837-7.837C274.983,231.819,271.475,228.31,267.146,228.31z" fill="#000000" data-original="#000000" class=""></path>
	</g>
</g>
<g>
</g>
<g>
</g>
<g>
</g>
<g>
</g>
<g>
</g>
<g>
</g>
<g>
</g>
<g>
</g>
<g>
</g>
<g>
</g>
<g>
</g>
<g>
</g>
<g>
</g>
<g>
</g>
<g>
</g>
</g></svg>