<svg xmlns="http://www.w3.org/2000/svg" version="1.1" xmlns:xlink="http://www.w3.org/1999/xlink" xmlns:svgjs="http://svgjs.com/svgjs" width="512" height="512" x="0" y="0" viewBox="0 0 511.999 511.999" style="" xml:space="preserve"><g>
<g>
	<g>
		<path d="M468.973,80.923c-4.328,0-7.837,3.508-7.837,7.837c0,23.015-19.049,41.739-42.465,41.739
			c-4.328,0-7.837,3.508-7.837,7.837c0,4.328,3.509,7.837,7.837,7.837c32.057,0,58.138-25.755,58.138-57.413
			C476.809,84.431,473.301,80.923,468.973,80.923z" fill="#000000" data-original="#000000"></path>
	</g>
</g>
<g>
	<g>
		<path d="M468.973,415.402c-4.328,0-7.837,3.508-7.837,7.837c0,23.015-19.049,41.74-42.465,41.74c-4.328,0-7.837,3.508-7.837,7.837
			c0,4.329,3.509,7.837,7.837,7.837c32.057,0,58.138-25.755,58.138-57.413C476.809,418.91,473.301,415.402,468.973,415.402z" fill="#000000" data-original="#000000"></path>
	</g>
</g>
<g>
	<g>
		<path d="M143.632,246.706c-4.328,0-7.837,3.508-7.837,7.837c0,23.015-19.05,41.74-42.465,41.74c-4.328,0-7.837,3.508-7.837,7.837
			c0,4.329,3.509,7.837,7.837,7.837c32.057,0,58.138-25.755,58.138-57.413C151.469,250.214,147.961,246.706,143.632,246.706z" fill="#000000" data-original="#000000"></path>
	</g>
</g>
<g>
	<g>
		<path d="M418.671,334.478c-21.834,0-41.858,7.806-57.408,20.739L185.536,254.542l173.695-99.509
			c15.819,13.973,36.641,22.486,59.44,22.486c49.342,0,89.485-39.817,89.485-88.76c0-48.943-40.143-88.76-89.485-88.76
			c-49.344,0-89.488,39.817-89.488,88.76c0,1.829,0.074,3.639,0.184,5.442l-171.934,98.499
			c-16.268-16.586-38.986-26.918-64.101-26.918c-49.344,0-89.489,39.817-89.489,88.76c0,48.943,40.145,88.76,89.489,88.76
			c25.116,0,47.833-10.332,64.101-26.918l172.149,98.624c-0.253,2.712-0.399,5.453-0.399,8.23c0,48.943,40.144,88.76,89.488,88.76
			c49.342,0,89.485-39.817,89.485-88.76C508.156,374.296,468.013,334.478,418.671,334.478z M418.671,15.672
			c40.7,0,73.812,32.787,73.812,73.086s-33.112,73.086-73.812,73.086c-40.702,0-73.815-32.787-73.815-73.086
			S377.969,15.672,418.671,15.672z M331.971,110.773c3.103,12.016,8.702,23.044,16.188,32.541l-166.77,95.542
			c-2.233-12.36-7.027-23.849-13.857-33.878L331.971,110.773z M93.332,327.63c-40.702,0-73.816-32.787-73.816-73.086
			c0-40.3,33.114-73.086,73.816-73.086c40.7,0,73.812,32.787,73.812,73.086C167.142,294.843,134.032,327.63,93.332,327.63z
			 M167.531,304.108c6.831-10.029,11.626-21.519,13.857-33.879l168.364,96.457c-7.754,9.281-13.621,20.155-17.07,32.037
			L167.531,304.108z M418.671,496.326c-40.702,0-73.815-32.787-73.815-73.086s33.113-73.086,73.815-73.086
			c40.7,0,73.812,32.787,73.812,73.086S459.371,496.326,418.671,496.326z" fill="#000000" data-original="#000000"></path>
	</g>
</g>
<g>
</g>
<g>
</g>
<g>
</g>
<g>
</g>
<g>
</g>
<g>
</g>
<g>
</g>
<g>
</g>
<g>
</g>
<g>
</g>
<g>
</g>
<g>
</g>
<g>
</g>
<g>
</g>
<g>
</g>
</g></svg>