<svg xmlns="http://www.w3.org/2000/svg" version="1.1" xmlns:xlink="http://www.w3.org/1999/xlink" xmlns:svgjs="http://svgjs.com/svgjs" width="512" height="512" x="0" y="0" viewBox="0 0 511.999 511.999" style="" xml:space="preserve" class=""><g>
<g>
	<g>
		<path d="M485.915,118.72c-1.92-2.765-4.975-4.528-8.33-4.805L124.687,84.764L107.885,8.835C106.743,3.674,102.166,0,96.881,0
			H35.341c-6.225,0-11.27,5.045-11.27,11.27s5.045,11.27,11.27,11.27h52.491l16.346,73.868c0.044,0.445,0.114,0.889,0.212,1.331
			l47.809,215.95c-26.2,6.198-45.76,29.767-45.76,57.834c0,28.565,20.257,52.481,47.157,58.157
			c-6.276,8.568-9.993,19.122-9.993,30.531c0,28.555,23.232,51.787,51.787,51.787c28.555,0,51.786-23.232,51.786-51.787
			c0-10.845-3.357-20.919-9.078-29.248h98.837c-5.721,8.328-9.08,18.402-9.08,29.248c0,28.555,23.232,51.787,51.787,51.787
			s51.786-23.232,51.786-51.787c0-14.497-5.995-27.615-15.627-37.024c0.358-1.101,0.559-2.273,0.559-3.494
			c0-6.225-5.045-11.27-11.27-11.27H165.881c-20.348,0-36.902-16.554-36.902-36.901c0-20.343,16.547-36.893,36.889-36.901
			c0.003,0,0.004,0,0.006,0s0.005,0,0.008,0c0.016,0,0.033,0.003,0.049,0.003c0.071,0,0.143-0.01,0.214-0.011
			c0.179-0.004,0.357-0.006,0.537-0.02l260.13-18.53c4.738-0.338,8.757-3.61,10.046-8.183l50.646-179.677
			C488.418,124.963,487.834,121.486,485.915,118.72z M149.757,198.059l-19.973-90.257l66.803,5.517l9.841,84.74H149.757z
			 M174.841,311.417l-20.096-90.818h54.302l10.179,87.656L174.841,311.417z M284.796,303.584l-43.064,3.068l-9.994-86.054h53.381
			L284.796,303.584z M285.206,198.059h-56.087l-9.621-82.847l66.01,5.452L285.206,198.059z M350.024,298.937l-42.681,3.04
			l0.317-81.379h51.121L350.024,298.937z M361.3,198.059h-53.553l0.294-75.533l61.137,5.05L361.3,198.059z M417.312,294.144
			l-44.427,3.164l8.575-76.711h56.582L417.312,294.144z M444.397,198.059h-60.416l7.671-68.627l70.449,5.819L444.397,198.059z" fill="#000000" data-original="#000000" class="" style=""></path>
	</g>
</g>
<g>
</g>
<g>
</g>
<g>
</g>
<g>
</g>
<g>
</g>
<g>
</g>
<g>
</g>
<g>
</g>
<g>
</g>
<g>
</g>
<g>
</g>
<g>
</g>
<g>
</g>
<g>
</g>
<g>
</g>
</g></svg>