<svg xmlns="http://www.w3.org/2000/svg" version="1.1" xmlns:xlink="http://www.w3.org/1999/xlink" xmlns:svgjs="http://svgjs.com/svgjs" width="512" height="512" x="0" y="0" viewBox="0 0 339.2 339.2" style="" xml:space="preserve" class=""><g>
<g>
	<g>
		<path d="M292,223.2l46.8-143.6c0.8-2,0.4-4.4-1.2-6.4c-1.2-2-3.6-2.8-5.6-2.8H86.4L63.2,41.6c-1.2-1.6-3.6-2.8-5.6-2.8H7.2
			C3.2,38.8,0,42,0,46c0,4,3.2,7.2,7.2,7.2h47.2l22.4,27.2l28,142l10.8,53.6c0.8,3.2,3.6,5.6,7.2,5.6h14.4
			c3.2,10.8,13.2,18.8,24.8,18.8c11.6,0,21.6-8,24.8-18.8h68.8c3.2,10.8,13.2,18.8,24.8,18.8c14.4,0,26-11.6,26-26
			c0-14.4-11.6-26-26-26c-12,0-21.6,8-24.8,18.8h-68.8c-3.2-10.8-13.2-18.8-24.8-18.8c-11.6,0-21.6,8-24.8,18.8h-8.4l-8-39.2h164.4
			C288.4,228,291.2,226,292,223.2z M280.4,263.2c6.4,0,11.6,5.2,11.6,11.6c0,6.4-5.2,11.6-11.6,11.6c-6.4,0-11.6-5.2-11.6-11.6
			S274,263.2,280.4,263.2z M161.6,263.2c6.4,0,11.6,5.2,11.6,11.6c0,6.4-5.2,11.6-11.6,11.6c-6.4,0-11.6-5.2-11.6-11.6
			S155.2,263.2,161.6,263.2z M117.6,214L92,84.4h229.6v0.4l-42,129.2H117.6z" fill="#000000" data-original="#000000"></path>
	</g>
</g>
<g>
	<g>
		<path d="M278,117.6H128.8c-4,0-7.2,3.2-7.2,7.2s3.2,7.2,7.2,7.2H278c4,0,7.2-3.2,7.2-7.2S282,117.6,278,117.6z" fill="#000000" data-original="#000000"></path>
	</g>
</g>
<g>
	<g>
		<path d="M265.6,165.6H140.8c-4,0-7.2,3.2-7.2,7.2s3.2,7.2,7.2,7.2h124.8c4,0,7.2-3.2,7.2-7.2S269.6,165.6,265.6,165.6z" fill="#000000" data-original="#000000"></path>
	</g>
</g>
<g>
</g>
<g>
</g>
<g>
</g>
<g>
</g>
<g>
</g>
<g>
</g>
<g>
</g>
<g>
</g>
<g>
</g>
<g>
</g>
<g>
</g>
<g>
</g>
<g>
</g>
<g>
</g>
<g>
</g>
</g></svg>