<svg xmlns="http://www.w3.org/2000/svg" version="1.1" xmlns:xlink="http://www.w3.org/1999/xlink" xmlns:svgjs="http://svgjs.com/svgjs" width="512" height="512" x="0" y="0" viewBox="0 0 406 406.65697" style="" xml:space="preserve"><g><path d="m92.089844 75.234375c0-33.820313 27.414062-61.234375 61.234375-61.234375 33.816406 0 61.234375 27.414062 61.234375 61.234375v38.386719h14v-38.386719c0-41.550781-33.683594-75.234375-75.234375-75.234375s-75.234375 33.683594-75.234375 75.234375v38.386719h14zm0 0" fill="#000000" data-original="#000000"></path><path d="m290.929688 255.429688-23.050782-130.144532c-.007812-.042968-.015625-.089844-.023437-.132812-1.015625-6.652344-6.75-11.558594-13.480469-11.53125h-25.816406v38.035156c0 3.867188-3.136719 7-7 7-3.867188 0-7-3.132812-7-7v-38.035156h-122.46875v38.035156c0 3.867188-3.132813 7-7 7-3.867188 0-7-3.132812-7-7v-38.035156h-25.816406c-6.730469-.027344-12.464844 4.878906-13.480469 11.53125-.007813.042968-.015625.089844-.023438.132812l-38.441406 217.011719c.34375 18.695313 15.585937 33.679687 34.285156 33.699219h185.046875c-12.96875-25.289063-12.066406-55.464844 2.398438-79.933594 14.460937-24.464844 40.460937-39.808594 68.871094-40.636719zm0 0" fill="#000000" data-original="#000000"></path><path d="m298.765625 269.578125c-1.800781-.136719-3.632813-.210937-5.441406-.210937-37.382813.035156-67.863281 29.972656-68.570313 67.347656-.707031 37.375 28.621094 68.441406 65.972656 69.890625 37.351563 1.449219 68.996094-27.257813 71.1875-64.574219 2.1875-37.316406-25.882812-69.523438-63.148437-72.453125zm39.742187 51.894531-50.359374 48.101563c-2.75 2.625-7.09375 2.578125-9.785157-.113281l-28.566406-28.566407c-2.734375-2.730469-2.734375-7.164062 0-9.898437s7.167969-2.734375 9.902344 0l23.726562 23.730468 45.414063-43.378906c2.796875-2.667968 7.226562-2.566406 9.898437.230469 2.667969 2.792969 2.566407 7.226563-.230469 9.894531zm0 0" fill="#000000" data-original="#000000"></path></g></svg>