<svg xmlns="http://www.w3.org/2000/svg" version="1.1" xmlns:xlink="http://www.w3.org/1999/xlink" xmlns:svgjs="http://svgjs.com/svgjs" width="512" height="512" x="0" y="0" viewBox="0 0 512.004 512.004" style="" xml:space="preserve"><g>
<g>
	<g>
		<g>
			<path d="M256.002,93.869c-89.404,0-162.133,72.73-162.133,162.133s72.73,162.133,162.133,162.133s162.133-72.73,162.133-162.133
				S345.406,93.869,256.002,93.869z M256.002,401.069c-79.991,0-145.067-65.075-145.067-145.067s65.075-145.067,145.067-145.067
				s145.067,65.075,145.067,145.067S335.994,401.069,256.002,401.069z" fill="#000000" data-original="#000000"></path>
			<path d="M256.002,204.802c-28.237,0-51.2,22.963-51.2,51.2s22.963,51.2,51.2,51.2s51.2-22.963,51.2-51.2
				S284.239,204.802,256.002,204.802z M256.002,290.135c-18.825,0-34.133-15.309-34.133-34.133s15.309-34.133,34.133-34.133
				c18.825,0,34.133,15.309,34.133,34.133S274.827,290.135,256.002,290.135z" fill="#000000" data-original="#000000"></path>
			<path d="M256.002,469.336c-110.309,0-201.332-84.157-212.237-191.638l9.938,9.938c1.664,1.664,3.849,2.5,6.033,2.5
				s4.369-0.836,6.033-2.5c3.336-3.337,3.336-8.73,0-12.066L40.169,249.97c-0.199-0.199-0.408-0.387-0.625-0.566
				c-0.107-0.088-0.22-0.165-0.33-0.247c-0.112-0.083-0.221-0.171-0.338-0.248c-0.137-0.092-0.28-0.173-0.421-0.256
				c-0.097-0.057-0.191-0.118-0.291-0.172c-0.152-0.081-0.307-0.151-0.463-0.223c-0.096-0.045-0.19-0.093-0.289-0.134
				c-0.162-0.067-0.327-0.123-0.492-0.18c-0.097-0.034-0.193-0.072-0.292-0.102c-0.181-0.055-0.363-0.098-0.547-0.141
				c-0.087-0.02-0.172-0.046-0.26-0.064c-0.237-0.048-0.475-0.082-0.714-0.109c-0.037-0.004-0.073-0.012-0.11-0.016
				c-0.574-0.058-1.153-0.058-1.727,0c-0.037,0.004-0.073,0.012-0.11,0.016c-0.239,0.027-0.478,0.062-0.714,0.109
				c-0.088,0.018-0.173,0.043-0.26,0.064c-0.183,0.043-0.366,0.086-0.546,0.141c-0.099,0.03-0.195,0.069-0.292,0.102
				c-0.165,0.057-0.33,0.113-0.492,0.18c-0.098,0.041-0.191,0.089-0.287,0.134c-0.156,0.072-0.312,0.142-0.464,0.224
				c-0.1,0.053-0.194,0.115-0.291,0.172c-0.141,0.083-0.283,0.164-0.421,0.256c-0.116,0.077-0.224,0.164-0.336,0.247
				c-0.111,0.083-0.224,0.16-0.332,0.249c-0.217,0.178-0.426,0.366-0.624,0.565l-25.6,25.6c-3.336,3.336-3.336,8.73,0,12.066
				c3.337,3.337,8.73,3.337,12.066,0l11.889-11.889C36.507,393.581,135.61,486.402,256.002,486.402c4.71,0,8.533-3.823,8.533-8.533
				S260.713,469.336,256.002,469.336z" fill="#000000" data-original="#000000"></path>
			<path d="M509.502,224.369c-3.336-3.337-8.73-3.337-12.066,0l-11.889,11.889C475.498,118.423,376.395,25.602,256.002,25.602
				c-4.71,0-8.533,3.823-8.533,8.533c0,4.71,3.823,8.533,8.533,8.533c110.309,0,201.332,84.157,212.237,191.638l-9.938-9.938
				c-3.336-3.337-8.73-3.337-12.066,0c-3.337,3.337-3.337,8.73,0,12.066l25.6,25.6c0.199,0.199,0.408,0.387,0.625,0.565
				c0.096,0.079,0.198,0.148,0.297,0.222c0.124,0.093,0.246,0.189,0.375,0.276c0.116,0.078,0.238,0.145,0.357,0.217
				c0.12,0.072,0.237,0.147,0.36,0.213c0.121,0.065,0.246,0.119,0.369,0.178c0.129,0.061,0.255,0.125,0.388,0.18
				c0.12,0.05,0.242,0.089,0.364,0.133c0.141,0.051,0.28,0.105,0.424,0.149c0.121,0.037,0.245,0.063,0.367,0.094
				c0.147,0.037,0.292,0.078,0.442,0.108c0.144,0.029,0.289,0.045,0.434,0.066c0.13,0.019,0.259,0.044,0.391,0.057
				c0.28,0.028,0.56,0.042,0.841,0.042s0.561-0.015,0.841-0.042c0.132-0.013,0.261-0.038,0.391-0.057
				c0.144-0.021,0.289-0.038,0.433-0.066c0.15-0.03,0.296-0.071,0.443-0.108c0.122-0.031,0.245-0.057,0.366-0.094
				c0.144-0.044,0.284-0.098,0.425-0.149c0.121-0.044,0.244-0.084,0.363-0.133c0.132-0.055,0.259-0.119,0.388-0.18
				c0.123-0.059,0.248-0.113,0.369-0.178c0.123-0.066,0.24-0.141,0.36-0.213c0.119-0.072,0.24-0.139,0.357-0.217
				c0.129-0.086,0.251-0.182,0.375-0.276c0.099-0.074,0.2-0.143,0.297-0.222c0.217-0.178,0.427-0.367,0.625-0.565l25.6-25.6
				C512.838,233.099,512.838,227.706,509.502,224.369z" fill="#000000" data-original="#000000"></path>
		</g>
	</g>
</g>
<g>
</g>
<g>
</g>
<g>
</g>
<g>
</g>
<g>
</g>
<g>
</g>
<g>
</g>
<g>
</g>
<g>
</g>
<g>
</g>
<g>
</g>
<g>
</g>
<g>
</g>
<g>
</g>
<g>
</g>
</g></svg>