<svg xmlns="http://www.w3.org/2000/svg" version="1.1" xmlns:xlink="http://www.w3.org/1999/xlink" xmlns:svgjs="http://svgjs.com/svgjs" width="512" height="512" x="0" y="0" viewBox="0 0 16 16" style="" xml:space="preserve"><g><path d="m8 1c.146 0 .26583.04683.3595.1405s.1405.2135.1405.3595v3c0 .146-.04683.26583-.1405.3595s-.2135.1405-.3595.1405-.26583-.04683-.3595-.1405-.1405-.2135-.1405-.3595v-3c0-.146.04683-.26583.1405-.3595s.2135-.1405.3595-.1405zm0 10c.146 0 .26583.0468.3595.1405s.1405.2135.1405.3595v3c0 .146-.04683.2658-.1405.3595s-.2135.1405-.3595.1405-.26583-.0468-.3595-.1405-.1405-.2135-.1405-.3595v-3c0-.146.04683-.2658.1405-.3595s.2135-.1405.3595-.1405zm7-3c0 .146-.0468.26583-.1405.3595s-.2135.1405-.3595.1405h-3c-.146 0-.2658-.04683-.3595-.1405s-.1405-.2135-.1405-.3595.0468-.26583.1405-.3595.2135-.1405.3595-.1405h3c.146 0 .2658.04683.3595.1405s.1405.2135.1405.3595zm-10 0c0 .146-.04683.26583-.1405.3595s-.2135.1405-.3595.1405h-3c-.146 0-.26583-.04683-.3595-.1405s-.1405-.2135-.1405-.3595.04683-.26583.1405-.3595.2135-.1405.3595-.1405h3c.146 0 .26583.04683.3595.1405s.1405.2135.1405.3595zm-1.953-4.953c.10433-.09367.22417-.1405.3595-.1405s.25.04683.344.1405l2.125 2.125c.09367.10433.1405.2215.1405.3515s-.0495.24467-.1485.344-.21367.14883-.344.1485-.2475-.04717-.3515-.1405l-2.125-2.125c-.09367-.09367-.1405-.20833-.1405-.344s.04683-.2555.1405-.3595zm7.078 7.078c.1043-.1043.2215-.1565.3515-.1565s.2472.0522.3515.1565l2.125 2.125c.0937.0937.1405.2083.1405.344s-.0495.2528-.1485.3515-.2162.1482-.3515.1485-.25-.0465-.344-.1405l-2.125-2.125c-.1043-.1043-.1565-.2215-.1565-.3515s.0522-.2472.1565-.3515zm2.828-7.078c.0937.10433.1405.22417.1405.3595s-.0468.25-.1405.344l-2.125 2.125c-.1043.09367-.2215.1405-.3515.1405s-.2447-.0495-.344-.1485-.14883-.21367-.1485-.344.0472-.2475.1405-.3515l2.125-2.125c.0937-.09367.2083-.1405.344-.1405s.2555.04683.3595.1405zm-7.078 7.078c.10433.1043.1565.2215.1565.3515s-.05217.2472-.1565.3515l-2.125 2.125c-.09367.0937-.20833.1405-.344.1405s-.25283-.0495-.3515-.1485-.14817-.2162-.1485-.3515.0465-.25.1405-.344l2.125-2.125c.10433-.1043.2215-.1565.3515-.1565s.24717.0522.3515.1565z" fill="#000000" fill-opacity=".96" data-original="#000000"></path></g></svg>