<svg xmlns="http://www.w3.org/2000/svg" version="1.1" xmlns:xlink="http://www.w3.org/1999/xlink" xmlns:svgjs="http://svgjs.com/svgjs" width="512" height="512" x="0" y="0" viewBox="0 0 512 512" style="" xml:space="preserve"><g><g><path d="m497 145.5h-137.347v-36.271c19.12-6.145 33-24.093 33-45.229 0-26.191-21.309-47.5-47.5-47.5s-47.5 21.309-47.5 47.5c0 20.765 13.399 38.448 32 44.89v30.024l-197.202-73.372c-7.672-2.854-16.215.969-19.198 8.591l-112.221 286.669c-1.457 3.72-1.369 7.868.245 11.524 1.613 3.655 4.618 6.516 8.348 7.948l168.028 64.497v35.729c0 8.284 6.716 15 15 15h304.347c8.284 0 15-6.716 15-15v-320c0-8.284-6.716-15-15-15zm-151.847-99c9.649 0 17.5 7.851 17.5 17.5s-7.851 17.5-17.5 17.5-17.5-7.851-17.5-17.5 7.85-17.5 17.5-17.5zm-310.681 311.177 101.34-258.876 125.51 46.699h-68.669c-8.284 0-15 6.716-15 15v62.49l-18.718-7.2c-7.731-2.974-16.411.883-19.385 8.615s.883 16.411 8.615 19.385l29.488 11.343v53.558l-47.429-18.241c-7.731-2.973-16.411.884-19.385 8.616s.884 16.411 8.616 19.385l58.197 22.382v71.803zm447.528 107.823h-274.347v-290h122v33c0 8.284 6.716 15 15 15s15-6.716 15-15v-33h122.347z" fill="#000000" data-original="#000000"></path><path d="m272.653 288.5c-8.284 0-15 6.716-15 15s6.716 15 15 15h144c8.284 0 15-6.716 15-15s-6.716-15-15-15z" fill="#000000" data-original="#000000"></path><path d="m416.653 368.5h-144c-8.284 0-15 6.716-15 15s6.716 15 15 15h144c8.284 0 15-6.716 15-15s-6.716-15-15-15z" fill="#000000" data-original="#000000"></path></g></g></svg>