<svg xmlns="http://www.w3.org/2000/svg" version="1.1" xmlns:xlink="http://www.w3.org/1999/xlink" xmlns:svgjs="http://svgjs.com/svgjs" width="512" height="512" x="0" y="0" viewBox="0 0 68 68" style="" xml:space="preserve" class=""><g><g><g><path d="m66.5511 41.521-7.6914-20.9658c-.1895-.5176-.7637-.7842-1.2832-.5938-.5186.1895-.7842.7646-.5938 1.2832l7.6914 20.9658c1.003 2.7371-.393 5.7883-3.1504 6.8008l-12.751 4.6784v-30.6618c0-4.0254-3.2744-7.2998-7.2998-7.2998h-13.4726v-1.045l18.4463-6.7675c2.7451-1.0072 5.7934.403 6.8018 3.1514l2.2383 6.0996c.1904.5186.7646.7861 1.2832.5938.5186-.1904.7842-.7646.5938-1.2832l-2.2383-6.0996c-1.3875-3.7827-5.5811-5.7292-9.3682-4.3389l-17.7568 6.5145v-3.3124c0-2.6152-2.127-4.7422-4.7422-4.7422s-4.7432 2.127-4.7432 4.7422v6.4873h-10.2158c-4.0254 0-7.2998 3.2744-7.2998 7.2998v8.4873c0 .5527.4473 1 1 1s1-.4473 1-1v-8.4873c0-2.9219 2.3779-5.2998 5.2998-5.2998h10.2158v1.5439c0 2.5816 2.0852 4.7422 4.7432 4.7422 2.6152 0 4.7422-2.127 4.7422-4.7422v-1.5439h13.4726c2.9219 0 5.2998 2.3779 5.2998 5.2998v33.1738c0 2.9219-2.3779 5.2998-5.2998 5.2998h-33.1738c-2.9219 0-5.2998-2.3779-5.2998-5.2998v-18.914c0-.5527-.4473-1-1-1s-1 .4473-1 1v18.9141c0 4.0254 3.2744 7.2998 7.2998 7.2998h33.1738c4.0254 0 7.2998-3.2744 7.2998-7.2998v-.3821l13.4404-4.9314c3.7752-1.3834 5.7311-5.5744 4.3379-9.3672zm-40.5508-22.249c0 1.5117-1.2305 2.7422-2.7422 2.7422-1.539 0-2.7432-1.2538-2.7432-2.7422v-10.0313c0-1.5117 1.2305-2.7422 2.7432-2.7422 1.5117 0 2.7422 1.2305 2.7422 2.7422z" fill="#000000" data-original="#000000" class=""></path><path d="m10.6634 38.8354h28.4453c.5527 0 1-.4473 1-1s-.4473-1-1-1h-28.4453c-.5527 0-1 .4473-1 1s.4473 1 1 1z" fill="#000000" data-original="#000000" class=""></path><path d="m10.6634 47.0425h28.4453c.5527 0 1-.4473 1-1s-.4473-1-1-1h-28.4453c-.5527 0-1 .4473-1 1s.4473 1 1 1z" fill="#000000" data-original="#000000" class=""></path><path d="m10.6634 55.2485h28.4453c.5527 0 1-.4473 1-1s-.4473-1-1-1h-28.4453c-.5527 0-1 .4473-1 1s.4473 1 1 1z" fill="#000000" data-original="#000000" class=""></path></g></g></g></svg>