<svg xmlns="http://www.w3.org/2000/svg" version="1.1" xmlns:xlink="http://www.w3.org/1999/xlink" xmlns:svgjs="http://svgjs.com/svgjs" width="512" height="512" x="0" y="0" viewBox="0 0 512 512" style="" xml:space="preserve" class=""><g><path d="m483.863 112.046h-122.469l7.02-14.254c3.348.693 6.693 1.05 9.996 1.05 22.204 0 42.44-15.1 47.982-37.604 3.156-12.816 1.132-26.094-5.698-37.388s-17.65-19.252-30.466-22.408c-12.815-3.155-26.094-1.132-37.388 5.698-11.294 6.831-19.252 17.65-22.408 30.466s-1.132 26.094 5.698 37.388c3.61 5.969 8.343 10.994 13.887 14.883l-10.917 22.169h-13.523l-186.944-62.319c-2.515-.839-5.262-.644-7.635.542-2.372 1.186-4.176 3.266-5.015 5.782l-107.333 321.981c-.839 2.516-.644 5.262.542 7.634s3.266 4.177 5.782 5.016l112.083 37.363v35.974c0 5.522 4.477 10 10 10h118.612l112.867 37.472c1.045.348 2.107.513 3.152.513 4.131 0 7.99-2.58 9.434-6.688l10.999-31.297h81.743c5.523 0 10-4.478 10-10v-341.973c-.001-5.523-4.478-10-10.001-10zm-134.011-69.657c1.878-7.628 6.615-14.069 13.338-18.135 4.652-2.813 9.869-4.256 15.169-4.256 2.359 0 4.736.286 7.086.865 15.748 3.878 25.405 19.845 21.527 35.593s-19.844 25.402-35.593 21.526c-7.629-1.879-14.069-6.616-18.135-13.338s-5.271-14.626-3.392-22.255zm-309.066 332.481 101.008-303.007 120.541 40.183h-115.278c-5.523 0-10 4.477-10 10v284.915zm334.725 114.543-46.37-15.395h51.78zm98.352-35.394h-204.963l-.303-.101-.033.101h-111.507v-321.973h172.194l-25.617 52.016c-2.44 4.955-.401 10.949 4.553 13.389 1.421.7 2.927 1.031 4.411 1.031 3.689 0 7.238-2.051 8.979-5.584l29.968-60.852h122.319v321.973zm-63.997-228.028c5.523 0 10 4.477 10 10s-4.477 10-10 10h-188.812c-5.523 0-10-4.477-10-10s4.477-10 10-10zm10 81.499c0 5.522-4.477 10-10 10h-188.812c-5.523 0-10-4.478-10-10s4.477-10 10-10h188.813c5.522 0 9.999 4.478 9.999 10zm0 71.5c0 5.522-4.477 10-10 10h-188.812c-5.523 0-10-4.478-10-10s4.477-10 10-10h188.813c5.522 0 9.999 4.478 9.999 10z" fill="#000000" data-original="#000000" class="" style=""></path></g></svg>