<svg xmlns="http://www.w3.org/2000/svg" version="1.1" xmlns:xlink="http://www.w3.org/1999/xlink" xmlns:svgjs="http://svgjs.com/svgjs" width="512" height="512" x="0" y="0" viewBox="0 0 128 128" style="" xml:space="preserve"><g><g fill="rgb(0,0,0)"><path clip-rule="evenodd" d="m18.3345 17.7566c-3.626 3.483-6.2547 7.4603-7.5157 11.1528-1.22384 3.5835-1.32281 7.4981 1.169 10.0923 2.4398 2.54 6.2444 2.6492 9.8094 1.6402l7.6023 8.1454c-1.5792 3.1332-2.5331 6.285-2.6866 9.1842-.1658 3.1336.6061 6.115 2.7137 8.3092 3.1967 3.328 8.246 3.6538 13.222 2.2885 3.5808-.9825 7.3946-2.8948 11.0503-5.5921l11.7368 11.4123c2.5737 2.5026 6.6889 2.4449 9.1915-.1288s2.4449-6.6889-.1288-9.1915l-11.5713-11.2514c2.3851-3.1951 4.137-6.5083 5.1416-9.6658 1.5643-4.9171 1.442-9.9753-1.7548-13.3034-2.095-2.181-5.021-3.0749-8.1376-3.0463-2.8343.0261-5.9415.8076-9.0615 2.1903l-8.0753-7.7869c1.1735-3.5405 1.234-7.3795-1.2217-9.936-2.4918-2.59416-6.4073-2.65275-10.0371-1.5741-3.7402 1.1115-7.8201 3.5781-11.4462 7.0611zm-3.4619 18.4742c-.9228-.9608-1.3211-2.9464-.2685-6.0287 1.0154-2.9732 3.239-6.4271 6.5014-9.5608s6.8029-5.2165 9.8146-6.1115c3.1221-.9278 5.0901-.45 6.013.5108.9228.9607 1.3211 2.9463.2684 6.0286-1.0154 2.9733-3.2389 6.4271-6.5013 9.5608s-6.8029 5.2166-9.8146 6.1116c-3.1222.9278-5.0902.4499-6.013-.5108zm24.4297-10.1435c-1.4224 2.5415-3.4032 5.0953-5.8312 7.4275-2.4362 2.3401-5.0773 4.2214-7.6826 5.5412l7.5438 8.0826c2.1625 2.3169 5.754 2.5524 8.2005.5377l2.6961-2.2203c.8527-.7022 2.1131-.5802 2.8153.2724.7022.8527.5802 2.1131-.2725 2.8153l-2.696 2.2203c-3.3635 2.7699-8.0257 2.9879-11.5783.8118-1.0934 2.4025-1.6869 4.6583-1.79 6.6072-.1258 2.3758.4743 4.1506 1.6039 5.3267 1.7011 1.7709 4.8919 2.4057 9.2789 1.202 4.3018-1.1803 9.2609-4.0326 13.7629-8.3569 4.502-4.3244 7.5514-9.1648 8.9038-13.4156 1.3792-4.335.8733-7.5488-.8278-9.3197-1.1231-1.1693-2.8583-1.8391-5.2161-1.8174-1.7596.0161-3.7873.4223-5.9655 1.2312 2.1237 2.3498 2.0606 5.9872-.2133 8.2611l-.1197.1196c-.781.7811-2.0473.7811-2.8284 0-.781-.781-.781-2.0473 0-2.8284l.1197-.1197c.7911-.7911.7794-2.0773-.0259-2.8539zm28.9219 45.4343-11.3978-11.0827c.437-.3885.8697-.7884 1.2976-1.1994.7886-.7575 1.5402-1.5331 2.2529-2.3223l11.333 11.0197c.9898.9625 1.012 2.5453.0495 3.5352s-2.5453 1.0121-3.5352.0495z" fill-rule="evenodd" fill="#000000" data-original="#000000"></path><path d="m71.5664 38.6208c-.2815-1.068.3561-2.1621 1.4242-2.4436l24.3244-6.4107c3.204-.8445 6.486 1.0685 7.331 4.2728l15.189 57.6311c.844 3.2043-1.069 6.4865-4.273 7.331l-21.5617 5.6826v9.316c0 3.314-2.6863 6-6 6h-55.3431c-1.5913 0-3.1174-.632-4.2427-1.758l-14.6568-14.656c-1.1252-1.126-1.7574-2.652-1.7574-4.243v-45.3432c0-3.3137 2.6863-6 6-6h3.5c1.1046 0 2 .8955 2 2 0 1.1046-.8954 2-2 2h-3.5c-1.1045 0-2 .8955-2 2v45.3432c0 .5304.2107 1.039.5858 1.414l14.6569 14.657c.375.375.8837.586 1.4142.586h55.3431c1.1046 0 2-.896 2-2v-10.814c-.0006-.03-.0006-.059 0-.089v-49.0972c0-1.1045-.8954-2-2-2h-16.5c-1.1045 0-2-.8954-2-2 0-1.1045.8955-2 2-2h16.5c3.3137 0 6 2.6863 6 6v46.5472l20.5417-5.4136c1.069-.2815 1.706-1.3755 1.425-2.4436l-15.189-57.6311c-.281-1.0681-1.3755-1.7058-2.4436-1.4243l-24.3244 6.4107c-1.0681.2815-2.1621-.3562-2.4436-1.4243z" fill="#000000" data-original="#000000"></path><path d="m21.0003 96.9998c-1.1045 0-2 .8955-2 2 0 1.1042.8955 2.0002 2 2.0002h11v11c0 1.104.8955 2 2 2 1.1046 0 2-.896 2-2v-13.0002c0-1.1045-.8954-2-2-2z" fill="#000000" data-original="#000000"></path></g></g></svg>