<svg xmlns="http://www.w3.org/2000/svg" version="1.1" xmlns:xlink="http://www.w3.org/1999/xlink" xmlns:svgjs="http://svgjs.com/svgjs" width="512" height="512" x="0" y="0" viewBox="0 0 512.009 512.009" style="" xml:space="preserve" class=""><g>
<g>
	<g>
		<g>
			<path d="M104.786,69.818c-19.28,0-34.909,15.629-34.909,34.909c0,19.28,15.629,34.909,34.909,34.909
				c19.28,0,34.909-15.629,34.909-34.909C139.695,85.448,124.065,69.818,104.786,69.818z M104.786,116.364
				c-6.427,0-11.636-5.21-11.636-11.636c0-6.427,5.21-11.636,11.636-11.636c6.427,0,11.636,5.21,11.636,11.636
				C116.422,111.154,111.212,116.364,104.786,116.364z" fill="#000000" data-original="#000000" class=""></path>
			<path d="M279.331,314.182c3.093,0.018,6.066-1.196,8.262-3.375l46.545-46.545c4.18-4.881,3.612-12.227-1.269-16.407
				c-4.356-3.731-10.781-3.731-15.138,0L271.186,294.4c-4.499,4.589-4.427,11.956,0.162,16.456
				C273.483,312.949,276.341,314.14,279.331,314.182z" fill="#000000" data-original="#000000" class=""></path>
			<path d="M259.711,415.583c2.135,2.093,4.994,3.284,7.983,3.326c3.093,0.018,6.066-1.196,8.262-3.375l69.818-69.818
				c4.881-4.18,5.45-11.526,1.269-16.407c-4.18-4.881-11.526-5.45-16.407-1.269c-0.455,0.39-0.88,0.814-1.269,1.269l-69.818,69.818
				C255.05,403.716,255.123,411.083,259.711,415.583z" fill="#000000" data-original="#000000" class=""></path>
			<path d="M236.16,329.193l-23.273,23.273c-4.881,4.18-5.45,11.526-1.269,16.407c4.18,4.881,11.526,5.45,16.407,1.269
				c0.455-0.39,0.88-0.814,1.269-1.269l23.273-23.273c4.881-4.18,5.45-11.526,1.269-16.407c-4.18-4.881-11.526-5.45-16.407-1.269
				C236.974,328.313,236.55,328.738,236.16,329.193z" fill="#000000" data-original="#000000" class=""></path>
			<path d="M508.567,259.491v-0.116l-256-256c-2.167-2.15-5.093-3.362-8.145-3.375H34.967C15.688,0,0.058,15.629,0.058,34.909
				v209.455c-0.018,3.093,1.196,6.066,3.375,8.262l256,256c4.539,4.512,11.869,4.512,16.407,0l232.727-232.727
				C513.079,271.36,513.079,264.03,508.567,259.491z M267.695,483.956L23.331,239.593V34.909c0-6.427,5.21-11.636,11.636-11.636
				h204.684l244.364,244.364L267.695,483.956z" fill="#000000" data-original="#000000" class=""></path>
		</g>
	</g>
</g>
<g>
</g>
<g>
</g>
<g>
</g>
<g>
</g>
<g>
</g>
<g>
</g>
<g>
</g>
<g>
</g>
<g>
</g>
<g>
</g>
<g>
</g>
<g>
</g>
<g>
</g>
<g>
</g>
<g>
</g>
</g></svg>