<svg xmlns="http://www.w3.org/2000/svg" version="1.1" xmlns:xlink="http://www.w3.org/1999/xlink" xmlns:svgjs="http://svgjs.com/svgjs" width="512" height="512" x="0" y="0" viewBox="0 0 511.999 511.999" style="" xml:space="preserve" class=""><g>
<g>
	<g>
		<path d="M493.858,68.869l-51.781-52.087C431.316,5.96,417.01,0,401.792,0c-1.001,0-2.016,0.027-3.016,0.08l-93.148,4.958
			c-14.078,0.757-27.314,6.687-37.266,16.702L18.109,273.474c-6.93,6.973-11.695,15.31-14.293,24.161
			c-1.559,5.31-2.338,10.804-2.338,16.299c0,14.652,5.545,29.304,16.634,40.458l139.995,140.824
			c10.758,10.821,25.065,16.781,40.287,16.782h0.001c15.219,0,29.527-5.96,40.284-16.782l247.869-249.342l2.376-2.391
			c9.952-10.009,15.844-23.303,16.589-37.433l4.931-93.698C511.293,96.176,505.248,80.328,493.858,68.869z M227.562,484.168
			c-7.794,7.841-18.152,12.158-29.168,12.158c-2.754,0-5.467-0.271-8.11-0.798c-7.927-1.582-15.215-5.48-21.06-11.361
			L29.227,343.342c-16.121-16.215-16.121-42.602-0.001-58.817L265.43,46.922l198.985,198.985L227.562,484.168z M494.792,111.528
			l-4.931,93.696c-0.543,10.274-4.822,19.938-12.053,27.209l-2.344,2.358L276.48,35.808l2.998-3.017
			c7.211-7.256,16.797-11.555,26.987-12.101l93.145-4.958c0.729-0.039,1.457-0.059,2.183-0.059c11.013,0,21.373,4.319,29.169,12.161
			l51.78,52.087C491.018,88.245,495.41,99.766,494.792,111.528z" fill="#000000" data-original="#000000" class=""></path>
	</g>
</g>
<g>
	<g>
		<path d="M434.968,76.078c-6.732-6.774-15.688-10.503-25.214-10.503c-9.527,0-18.482,3.729-25.215,10.503
			c-13.868,13.949-13.869,36.647-0.001,50.601c6.733,6.77,15.689,10.5,25.215,10.5c9.527,0,18.482-3.73,25.215-10.504
			C448.831,112.725,448.831,90.028,434.968,76.078z M423.851,115.625c-3.768,3.792-8.775,5.88-14.099,5.88
			c-5.324,0-10.332-2.088-14.101-5.878c-7.811-7.859-7.81-20.643,0.002-28.5c3.769-3.792,8.776-5.88,14.1-5.88
			c5.323,0,10.33,2.088,14.098,5.879C431.66,94.983,431.66,107.769,423.851,115.625z" fill="#000000" data-original="#000000" class=""></path>
	</g>
</g>
<g>
	<g>
		<path d="M386.77,219.064l-93.835-93.835c-5.231-5.23-12.184-8.109-19.58-8.109c-7.397,0-14.35,2.88-19.58,8.109L86.055,292.949
			c-5.23,5.231-8.111,12.184-8.111,19.579c0,7.397,2.881,14.35,8.111,19.58l93.835,93.835c5.231,5.23,12.184,8.11,19.58,8.11
			c7.396,0,14.349-2.881,19.58-8.11l167.719-167.72c5.23-5.231,8.11-12.184,8.11-19.58
			C394.88,231.247,391.999,224.294,386.77,219.064z M375.686,247.14L207.969,414.86c-2.271,2.271-5.288,3.52-8.498,3.52
			c-3.21,0-6.228-1.25-8.497-3.52l-93.835-93.835c-2.271-2.27-3.52-5.287-3.52-8.497c0-3.209,1.25-6.227,3.52-8.496l167.719-167.72
			c2.27-2.271,5.287-3.519,8.497-3.519c3.21,0,6.228,1.249,8.497,3.519l93.836,93.835c2.27,2.269,3.519,5.287,3.519,8.496
			C379.207,241.854,377.957,244.872,375.686,247.14z" fill="#000000" data-original="#000000" class=""></path>
	</g>
</g>
<g>
	<g>
		<path d="M261.867,189.96c-3.062-3.059-8.023-3.059-11.083,0L145.015,295.729c-3.061,3.062-3.061,8.023,0,11.083
			c1.531,1.53,3.537,2.295,5.542,2.295c2.005,0,4.011-0.765,5.542-2.295l105.769-105.769
			C264.927,197.983,264.927,193.021,261.867,189.96z" fill="#000000" data-original="#000000" class=""></path>
	</g>
</g>
<g>
	<g>
		<path d="M290.379,218.471c-3.062-3.059-8.023-3.059-11.083,0l-105.77,105.77c-3.061,3.062-3.061,8.023,0,11.083
			c1.531,1.53,3.537,2.295,5.542,2.295s4.011-0.765,5.542-2.295l105.77-105.77C293.439,226.494,293.439,221.533,290.379,218.471z" fill="#000000" data-original="#000000" class=""></path>
	</g>
</g>
<g>
	<g>
		<path d="M318.891,246.984c-3.062-3.059-8.023-3.059-11.084,0L202.038,352.752c-3.06,3.062-3.06,8.023,0,11.083
			c1.531,1.53,3.537,2.295,5.542,2.295c2.005,0,4.011-0.765,5.542-2.295l105.769-105.769
			C321.952,255.005,321.952,250.044,318.891,246.984z" fill="#000000" data-original="#000000" class=""></path>
	</g>
</g>
<g>
</g>
<g>
</g>
<g>
</g>
<g>
</g>
<g>
</g>
<g>
</g>
<g>
</g>
<g>
</g>
<g>
</g>
<g>
</g>
<g>
</g>
<g>
</g>
<g>
</g>
<g>
</g>
<g>
</g>
</g></svg>