<svg xmlns="http://www.w3.org/2000/svg" version="1.1" xmlns:xlink="http://www.w3.org/1999/xlink" xmlns:svgjs="http://svgjs.com/svgjs" width="512" height="512" x="0" y="0" viewBox="0 0 512.085 512.085" style="" xml:space="preserve"><g><g><g><path d="m140.994 263.015-17.549 45.545c-1.849 4.8-.739 10.04 2.898 13.678 3.65 3.65 8.895 4.742 13.678 2.898l45.546-17.55c8.575-3.304 16.217-8.273 22.714-14.771l154.38-154.381c.003-.003.007-.006.01-.009s.006-.007.009-.01l16.038-16.038c14.513-14.513 14.515-38.001 0-52.517-14.479-14.477-38.037-14.477-52.516 0l-16.046 16.046s0 0 0 0l-154.39 154.39c-6.498 6.502-11.468 14.143-14.772 22.719zm57.726 18.147-10.829-10.829 148.041-148.041 10.829 10.829zm138.089-200.693c8.631-8.631 22.673-8.63 31.303 0 8.65 8.65 8.652 22.651 0 31.302l-10.744 10.744-31.302-31.303zm-21.35 21.35 9.866 9.867-148.041 148.041-9.867-9.866zm-128.657 188.639c-2.12 1.193-4.327 2.245-6.628 3.132l-40.968 15.785 15.785-40.968c.886-2.301 1.938-4.508 3.132-6.628 10.277 10.277 18.371 18.371 28.679 28.679z" fill="#000000" data-original="#000000"></path><path d="m457.443 163.24h-101.108c-4.142 0-7.5 3.357-7.5 7.5s3.358 7.5 7.5 7.5h101.108c21.859 0 39.642 17.783 39.642 39.643v180.556c0 21.859-17.783 39.643-39.642 39.643h-325.488c-11.602 0-22.582-5.057-30.124-13.873l-77.228-90.277c-12.773-14.933-12.773-36.607 0-51.54l9.527-11.137 17.012 17.011c-4.36 5.463-6.976 12.377-6.976 19.895 0 17.62 14.335 31.955 31.955 31.955s31.955-14.335 31.955-31.955-14.335-31.955-31.955-31.955c-4.642 0-9.051 1.003-13.035 2.791l-19.175-19.175 57.92-67.708c7.542-8.816 18.522-13.873 30.124-13.873h68.217c4.142 0 7.5-3.357 7.5-7.5s-3.358-7.5-7.5-7.5h-68.217c-15.992 0-31.126 6.97-41.522 19.123l-57.16 66.819-19.554-19.553c-2.929-2.928-7.678-2.928-10.606 0-2.929 2.93-2.929 7.678 0 10.607l20.379 20.378-10.287 12.025c-17.606 20.581-17.606 50.459 0 71.04l77.228 90.277c10.396 12.153 25.531 19.123 41.522 19.123h325.488c30.13 0 54.642-24.513 54.642-54.643v-180.554c0-30.13-24.512-54.643-54.642-54.643zm-381.322 127.965c9.349 0 16.955 7.606 16.955 16.955s-7.606 16.955-16.955 16.955-16.955-7.606-16.955-16.955 7.606-16.955 16.955-16.955z" fill="#000000" data-original="#000000"></path><path d="m414.751 256.915h-123.833c-4.142 0-7.5 3.357-7.5 7.5s3.358 7.5 7.5 7.5h123.833c4.142 0 7.5-3.357 7.5-7.5s-3.358-7.5-7.5-7.5z" fill="#000000" data-original="#000000"></path><path d="m414.751 300.661h-123.833c-4.142 0-7.5 3.357-7.5 7.5s3.358 7.5 7.5 7.5h123.833c4.142 0 7.5-3.357 7.5-7.5s-3.358-7.5-7.5-7.5z" fill="#000000" data-original="#000000"></path><path d="m414.751 344.406h-220.333c-4.142 0-7.5 3.357-7.5 7.5s3.358 7.5 7.5 7.5h220.333c4.142 0 7.5-3.357 7.5-7.5s-3.358-7.5-7.5-7.5z" fill="#000000" data-original="#000000"></path></g></g></g></svg>