<svg xmlns="http://www.w3.org/2000/svg" version="1.1" xmlns:xlink="http://www.w3.org/1999/xlink" xmlns:svgjs="http://svgjs.com/svgjs" width="512" height="512" x="0" y="0" viewBox="0 0 512.009 512.009" style="" xml:space="preserve"><g>
<g>
	<g>
		<g>
			<path d="M104.727,139.637c-19.28,0-34.909,15.629-34.909,34.909c0,19.28,15.629,34.909,34.909,34.909
				c19.28,0,34.909-15.629,34.909-34.909C139.637,155.266,124.007,139.637,104.727,139.637z M104.727,186.182
				c-6.427,0-11.636-5.21-11.636-11.636s5.21-11.636,11.636-11.636c6.427,0,11.636,5.21,11.636,11.636
				S111.154,186.182,104.727,186.182z" fill="#000000" data-original="#000000"></path>
			<path d="M244.364,418.909c3.093,0.018,6.066-1.196,8.262-3.375l46.545-46.545c4.18-4.881,3.612-12.227-1.269-16.407
				c-4.356-3.731-10.781-3.731-15.138,0l-46.545,46.545c-4.499,4.589-4.427,11.956,0.162,16.456
				C238.516,417.676,241.374,418.867,244.364,418.909z" fill="#000000" data-original="#000000"></path>
			<path d="M244.364,325.818c3.093,0.018,6.066-1.196,8.262-3.375l23.273-23.273c4.881-4.18,5.45-11.526,1.269-16.407
				c-4.18-4.881-11.526-5.45-16.407-1.269c-0.455,0.39-0.88,0.814-1.269,1.269l-23.273,23.273
				c-4.499,4.589-4.427,11.956,0.162,16.456C238.516,324.585,241.374,325.776,244.364,325.818z" fill="#000000" data-original="#000000"></path>
			<path d="M508.626,236.102L275.898,3.375c-2.196-2.178-5.169-3.392-8.262-3.375H104.727C85.448,0,69.818,15.63,69.818,34.909
				c0,6.427,5.21,11.636,11.636,11.636s11.636-5.21,11.636-11.636c0-6.427,5.21-11.636,11.636-11.636h158.138l221.091,221.091
				l-26.647,26.647c-4.881,4.18-5.45,11.526-1.269,16.407c4.18,4.881,11.526,5.45,16.407,1.269c0.455-0.39,0.88-0.814,1.269-1.269
				l34.909-34.909C513.137,247.971,513.137,240.641,508.626,236.102z" fill="#000000" data-original="#000000"></path>
			<path d="M186.182,360.727c-0.037,6.426,5.142,11.666,11.569,11.704c3.126,0.018,6.128-1.222,8.33-3.442l11.636-11.636
				c4.881-4.18,5.45-11.526,1.269-16.407c-4.18-4.881-11.526-5.45-16.407-1.269c-0.455,0.39-0.88,0.814-1.269,1.269l-11.636,11.636
				C187.48,354.73,186.226,357.658,186.182,360.727z" fill="#000000" data-original="#000000"></path>
			<path d="M206.08,73.193c-2.196-2.178-5.169-3.392-8.262-3.375H34.909C15.63,69.818,0,85.448,0,104.727v162.909
				c-0.018,3.093,1.196,6.066,3.375,8.262l232.727,232.727c4.539,4.512,11.869,4.512,16.407,0l186.182-186.182
				c4.512-4.539,4.512-11.869,0-16.407L206.08,73.193z M244.364,483.957L23.273,262.866V104.727c0-6.427,5.21-11.636,11.636-11.636
				h158.138l221.091,221.091L244.364,483.957z" fill="#000000" data-original="#000000"></path>
		</g>
	</g>
</g>
<g>
</g>
<g>
</g>
<g>
</g>
<g>
</g>
<g>
</g>
<g>
</g>
<g>
</g>
<g>
</g>
<g>
</g>
<g>
</g>
<g>
</g>
<g>
</g>
<g>
</g>
<g>
</g>
<g>
</g>
</g></svg>