<svg xmlns="http://www.w3.org/2000/svg" version="1.1" xmlns:xlink="http://www.w3.org/1999/xlink" xmlns:svgjs="http://svgjs.com/svgjs" width="512" height="512" x="0" y="0" viewBox="0 0 512 512" style="" xml:space="preserve" class=""><g>
<g id="W_Mark_2_">
	<path d="M256,15.36c32.493,0,64.006,6.36,93.663,18.904c56.977,24.099,103.98,71.112,128.073,128.072   c12.544,29.657,18.904,61.17,18.904,93.663s-6.36,64.006-18.904,93.663c-23.815,56.304-71.465,104.13-128.073,128.073   C320.006,490.28,288.493,496.64,256,496.64s-64.006-6.36-93.663-18.904C106.055,453.93,58.202,406.258,34.264,349.663   C21.72,320.006,15.36,288.493,15.36,256s6.36-64.006,18.904-93.663c24.099-56.977,71.112-103.98,128.073-128.072   C191.994,21.72,223.507,15.36,256,15.36 M256,0C114.615,0,0,114.615,0,256c0,141.385,114.615,256,256,256s256-114.615,256-256   C512,114.615,397.385,0,256,0L256,0z" fill="#000000" data-original="#000000"></path>
	<path d="M42.667,255.992c0,84.438,49.068,157.415,120.238,191.991L61.139,169.173C49.302,195.702,42.667,225.063,42.667,255.992z    M400.018,245.233c0-26.373-9.473-44.627-17.587-58.833c-10.815-17.581-20.956-32.455-20.956-50.035   c0-19.607,14.869-37.861,35.825-37.861c0.947,0,1.843,0.114,2.762,0.173C362.107,63.9,311.539,42.667,256,42.667   c-74.534,0-140.1,38.243-178.246,96.152c5.009,0.159,9.729,0.259,13.73,0.259c22.309,0,56.858-2.712,56.858-2.712   c11.494-0.673,12.853,16.222,1.364,17.58c0,0-11.561,1.354-24.414,2.027l77.683,231.078l46.692-140.014l-33.235-91.064   c-11.494-0.673-22.376-2.027-22.376-2.027c-11.5-0.679-10.152-18.254,1.353-17.58c0,0,35.223,2.712,56.184,2.712   c22.309,0,56.864-2.712,56.864-2.712c11.5-0.673,12.853,16.222,1.359,17.58c0,0-11.572,1.354-24.414,2.027L362.5,385.291   l22.008-69.736C394.286,285.079,400.018,263.487,400.018,245.233z M259.748,274.652l-64.018,185.988   c19.118,5.625,39.331,8.693,60.27,8.693c24.843,0,48.675-4.288,70.847-12.095c-0.571-0.913-1.097-1.882-1.531-2.94L259.748,274.652   z M443.207,153.65c0.916,6.794,1.434,14.083,1.434,21.935c0,21.64-4.055,45.975-16.228,76.408l-65.156,188.389   c63.424-36.976,106.076-105.688,106.076-184.39C469.333,218.902,459.855,184.033,443.207,153.65z" fill="#000000" data-original="#000000"></path>
</g>
</g></svg>