<svg xmlns="http://www.w3.org/2000/svg" version="1.1" xmlns:xlink="http://www.w3.org/1999/xlink" xmlns:svgjs="http://svgjs.com/svgjs" width="512" height="512" x="0" y="0" viewBox="0 0 32 32" style="" xml:space="preserve" class=""><g><path d="m30.71 29.29-6.85-6.84a13 13 0 1 0 -1.41 1.41l6.84 6.85a1 1 0 0 0 1.42 0 1 1 0 0 0 0-1.42zm-27.71-15.29a11 11 0 1 1 11 11 11 11 0 0 1 -11-11z" fill="#000000" data-original="#000000"></path><path d="m20 13h-12a1 1 0 0 0 0 2h12a1 1 0 0 0 0-2z" fill="#000000" data-original="#000000"></path></g></svg>