<svg xmlns="http://www.w3.org/2000/svg" version="1.1" xmlns:xlink="http://www.w3.org/1999/xlink" xmlns:svgjs="http://svgjs.com/svgjs" width="512" height="512" x="0" y="0" viewBox="0 0 512 512" style="" xml:space="preserve" class=""><g>
  <g>
    <g>
      <path d="m289.8,199.7h-139.4c-11.3,0-20.4,9.1-20.4,20.4 0,11.3 9.1,20.4 20.4,20.4h139.4c11.3,0 20.4-9.1 20.4-20.4 0-11.3-9.2-20.4-20.4-20.4z" fill="#000000" data-original="#000000"></path>
      <path d="m220.2,388.2c-92.9,0-168.2-75.2-168.2-168.1 0-92.8 75.3-168.1 168.2-168.1 92.9,0 168.1,75.3 168.1,168.1 5.68434e-14,92.9-75.3,168.1-168.1,168.1zm274.8,77.9l-113.3-113.2c29.7-36.1 47.6-82.4 47.6-132.8 0-115.5-93.6-209.1-209.1-209.1s-209.2,93.6-209.2,209.1 93.6,209.1 209.2,209.1c50.4,0 96.6-17.8 132.7-47.5l113.2,113.3c8,8 20.9,8 28.9,0 8-8 8-20.9 0-28.9z" fill="#000000" data-original="#000000"></path>
    </g>
  </g>
</g></svg>