<?xml version="1.0" standalone="no"?>
<!DOCTYPE svg PUBLIC "-//W3C//DTD SVG 1.1//EN" "http://www.w3.org/Graphics/SVG/1.1/DTD/svg11.dtd" >
<svg xmlns="http://www.w3.org/2000/svg">
<metadata>Generated by IcoMoon</metadata>
<defs>
<font id="bdexicon" horiz-adv-x="1024">
<font-face units-per-em="1024" ascent="960" descent="-64" />
<missing-glyph horiz-adv-x="1024" />
<glyph unicode="&#x20;" horiz-adv-x="512" d="" />
<glyph unicode="&#xe900;" glyph-name="by7" d="M228.2 692.088c5.222-10.995 16.237-18.462 28.995-18.462 0.002 0 0.003 0 0.005 0h155.6v-54.962c0-17.673 14.327-32 32-32s32 14.327 32 32v0 54.962h14.74c17.673 0 32 14.327 32 32s-14.327 32-32 32v0h-14.74v192.030c-0.004 17.67-14.33 31.992-32 31.992-9.826 0-18.618-4.429-24.488-11.4l-0.040-0.048-187.612-224.030c-4.644-5.517-7.465-12.701-7.465-20.543 0-4.915 1.108-9.571 3.088-13.732l-0.083 0.194zM412.8 841.6v-103.978h-87.070zM574.74 161.866l167.644 261.734h-123.436c-17.673 0-32 14.327-32 32s14.327 32 32 32v0h181.934c17.673 0 32-14.327 32-32 0-6.41-1.885-12.379-5.13-17.385l0.076 0.125-199.2-311c-5.772-8.956-15.696-14.802-26.986-14.802-17.673 0-32 14.327-32 32 0 6.436 1.9 12.428 5.169 17.446l-0.075-0.123zM742.26 749.88c5.791-5.791 9.372-13.791 9.372-22.627s-3.582-16.836-9.372-22.627l-471.716-471.718c-5.777-5.709-13.721-9.236-22.49-9.236-17.673 0-32 14.327-32 32 0 8.768 3.527 16.713 9.239 22.493l471.707 471.715c5.791 5.792 13.792 9.375 22.63 9.375s16.839-3.583 22.63-9.375v0zM181 816.924c8.1 29.66 2.966 52-15.258 66.43-20.4 16.14-54.366 19-77.328 6.492-17.444-9.5-25.174-25.914-22.974-48.8 0.093-0.917 0.147-1.982 0.147-3.059 0-17.674-14.328-32.002-32.002-32.002-16.597 0-30.243 12.634-31.844 28.81l-0.011 0.133c-4.682 48.672 15.756 89.17 56.070 111.124 45.25 24.64 107.344 19.38 147.648-12.508 38.536-30.49 52.124-79.142 37.284-133.48-10.016-36.676-44.3-63.428-84-94.41-21.432-16.724-44.548-34.762-63.93-55h132.558c17.673 0 32-14.327 32-32s-14.327-32-32-32v0h-194.69c-0.003 0-0.007 0-0.010 0-17.673 0-32 14.327-32 32 0 5.083 1.185 9.889 3.294 14.157l-0.084-0.187c26.050 53.688 73.562 90.764 115.48 123.476 28.142 21.962 57.23 44.662 61.65 60.824zM1024 446.344c0-0.001 0-0.002 0-0.003 0-282.77-229.23-512-512-512-141.386 0-269.386 57.308-362.040 149.963v0c-92.633 92.145-149.962 219.703-149.962 360.651 0 0.488 0.001 0.977 0.002 1.465v-0.076c0 17.673 14.327 32 32 32s32-14.327 32-32v0c0-247.028 200.972-448 448-448s448 200.972 448 448c0 224.272-167.428 415.234-389.452 444.2-16.008 1.919-28.297 15.417-28.297 31.785 0 17.673 14.327 32 32 32 1.615 0 3.202-0.12 4.752-0.35l-0.175 0.021c252.549-34.231 445.154-248.448 445.172-507.654v-0.002z" />
<glyph unicode="&#xe901;" glyph-name="by7_alt" d="M236.816 688.266c5.124-10.914 16.010-17.904 28.086-17.904h150.858v-53.29c0-17.144 13.906-31.032 31.104-31.032 17.108 0 31.014 13.888 31.014 31.032v53.29h14.272c17.198 0 31.012 13.888 31.012 31.040 0 17.134-13.814 31.022-31.012 31.022h-14.272v186.226c0 13.054-8.142 24.71-20.402 29.146-12.258 4.464-26.072 0.778-34.398-9.23l-181.962-217.246c-7.778-9.23-9.424-22.132-4.3-33.054zM1024 449.968c0-136.714-53.236-265.366-149.912-362.042-96.688-96.686-225.354-149.958-362.088-149.958s-265.4 53.272-362.086 149.958c-96.678 96.676-149.914 225.328-149.914 362.042 0 25.692 20.832 46.556 46.528 46.556 25.744 0 46.528-20.822 46.528-46.556 0-230.96 187.994-418.906 418.942-418.906 230.95 0 418.944 187.946 418.944 418.906 0 209.486-156.396 388.256-364.228 415.358-25.428 3.316-43.376 26.742-40.094 52.156 3.286 25.438 26.736 43.476 52.16 40.156 122.546-16.002 234.924-76.014 316.814-168.558 82.86-93.638 128.406-214.082 128.406-339.112zM415.758 833.26v-100.834h-84.348zM572.838 174.106c-9.24-14.428-5.032-33.63 9.422-42.86 5.122-3.312 10.978-4.904 16.65-4.904 10.246 0 20.218 5.040 26.164 14.29l193.214 301.578c6.13 9.57 6.496 21.69 1.098 31.636-5.49 9.954-15.918 16.138-27.262 16.138h-176.382c-17.2 0-31.012-13.888-31.012-31.032s13.814-31.032 31.012-31.032h119.662zM735.312 744.318c12.076-12.122 12.076-31.772 0-43.896l-457.42-457.42c-6.128-6.056-13.996-9.084-21.956-9.084-7.958 0-15.918 3.028-21.956 9.084-12.076 12.122-12.076 31.764 0 43.884l457.42 457.432c12.076 12.122 31.746 12.122 43.912 0zM190.982 809.326c7.868 28.762 2.928 50.444-14.73 64.424-19.852 15.654-52.694 18.406-75.016 6.286-16.924-9.212-24.426-25.13-22.23-47.298 1.556-17.070-10.886-32.24-27.994-33.868-17.016-1.61-32.202 10.86-33.85 27.912-4.482 47.206 15.278 86.48 54.434 107.75 43.822 23.896 104.018 18.79 143.172-12.122 37.326-29.558 50.5-76.738 36.136-129.432-9.698-35.57-42.998-61.506-81.422-91.548-20.858-16.23-43.272-33.702-62.026-53.326h128.536c17.108 0 31.014-13.886 31.014-31.032 0-17.144-13.906-31.032-31.014-31.032h-188.824c-10.612 0-20.584 5.508-26.256 14.564-5.672 9.058-6.312 20.402-1.646 30.024 25.25 52.046 71.358 88.008 111.976 119.716 27.262 21.3 55.532 43.312 59.74 58.982z" />
<glyph unicode="&#xe902;" glyph-name="angle_bottom_fill" d="M1013.768 685.029l-51.299 51.295c-6.836 6.85-14.71 10.264-23.612 10.264-8.88 0-16.751-3.414-23.587-10.264l-403.265-403.244-403.247 403.233c-6.839 6.85-14.71 10.264-23.601 10.264-8.895 0-16.765-3.414-23.601-10.264l-51.292-51.299c-6.85-6.836-10.264-14.706-10.264-23.601 0-8.888 3.425-16.758 10.264-23.594l478.14-478.151c6.836-6.839 14.71-10.257 23.601-10.257s16.751 3.418 23.583 10.257l478.18 478.151c6.836 6.839 10.232 14.71 10.232 23.594 0 8.895-3.396 16.765-10.232 23.615z" />
<glyph unicode="&#xe903;" glyph-name="angle_down" d="M950.624 678.624c-12.512 12.512-32.736 12.512-45.248 0l-393.376-393.376-393.376 393.376c-12.512 12.512-32.736 12.512-45.248 0s-12.512-32.736 0-45.248l416-416c6.24-6.24 14.432-9.376 22.624-9.376s16.384 3.136 22.624 9.376l416 416c12.512 12.512 12.512 32.736 0 45.248z" />
<glyph unicode="&#xe904;" glyph-name="angle_left" d="M349.248 448l393.376 393.376c12.512 12.512 12.512 32.736 0 45.248s-32.736 12.512-45.248 0l-416-416c-12.512-12.512-12.512-32.736 0-45.248l416-416c6.24-6.24 14.432-9.376 22.624-9.376s16.384 3.136 22.624 9.376c12.512 12.512 12.512 32.736 0 45.248z" />
<glyph unicode="&#xe905;" glyph-name="angle_left_fill" d="M397.072 448l403.245 403.238c6.835 6.839 10.257 14.709 10.257 23.6s-3.418 16.761-10.257 23.586l-51.309 51.309c-6.843 6.835-14.709 10.267-23.579 10.267-8.895 0-16.761-3.432-23.6-10.267l-478.15-478.129c-6.839-6.839-10.249-14.709-10.249-23.6 0-8.895 3.411-16.761 10.249-23.6l478.125-478.129c6.85-6.85 14.724-10.267 23.615-10.267 8.88 0 16.747 3.418 23.586 10.267l51.309 51.273c6.835 6.839 10.246 14.713 10.246 23.611 0 8.884-3.407 16.751-10.246 23.59l-403.241 403.252z" />
<glyph unicode="&#xe906;" glyph-name="angle_right" d="M742.624 470.624l-416 416c-12.512 12.512-32.736 12.512-45.248 0s-12.512-32.736 0-45.248l393.376-393.376-393.376-393.376c-12.512-12.512-12.512-32.736 0-45.248 6.24-6.24 14.432-9.376 22.624-9.376s16.384 3.136 22.624 9.376l416 416c12.512 12.512 12.512 32.736 0 45.248z" />
<glyph unicode="&#xe907;" glyph-name="angle_right_fill" d="M800.342 471.604l-478.15 478.129c-6.843 6.835-14.717 10.267-23.604 10.267-8.891 0-16.761-3.432-23.6-10.267l-51.294-51.305c-6.85-6.839-10.26-14.695-10.26-23.6s3.411-16.761 10.26-23.6l403.238-403.238-403.238-403.245c-6.85-6.839-10.26-14.709-10.26-23.59 0-8.902 3.411-16.772 10.26-23.611l51.298-51.287c6.839-6.846 14.709-10.257 23.6-10.257 8.887 0 16.758 3.418 23.6 10.257l478.125 478.132c6.835 6.835 10.257 14.709 10.257 23.6s-3.396 16.761-10.232 23.615z" />
<glyph unicode="&#xe908;" glyph-name="angle_up" d="M950.624 262.624l-416 416c-12.512 12.512-32.736 12.512-45.248 0l-416-416c-12.512-12.512-12.512-32.736 0-45.248s32.736-12.512 45.248 0l393.376 393.376 393.376-393.376c6.24-6.24 14.432-9.376 22.624-9.376s16.384 3.136 22.624 9.376c12.512 12.512 12.512 32.736 0 45.248z" />
<glyph unicode="&#xe909;" glyph-name="angle_up_fill" d="M1013.768 258.17l-478.18 478.147c-6.832 6.839-14.692 10.264-23.583 10.264s-16.765-3.425-23.601-10.264l-478.14-478.147c-6.85-6.85-10.264-14.71-10.264-23.605 0-8.891 3.425-16.762 10.264-23.597l51.292-51.288c6.839-6.839 14.71-10.257 23.601-10.257s16.762 3.418 23.601 10.257l403.247 403.24 403.262-403.265c6.836-6.839 14.71-10.235 23.587-10.235 8.906 0 16.776 3.418 23.612 10.235l51.299 51.31c6.836 6.836 10.232 14.71 10.232 23.597 0.004 8.898-3.393 16.769-10.228 23.608z" />
<glyph unicode="&#xe90a;" glyph-name="arrow_compare" d="M944 679.024h-434.161l114.317 93.399c7.122 5.913 11.624 14.768 11.624 24.676 0 17.675-14.328 32.003-32.003 32.003-7.651 0-14.674-2.685-20.18-7.163l0.059 0.046-183.813-150.179c-7.101-5.937-11.586-14.799-11.586-24.708 0-8.018 2.936-15.35 7.792-20.98l-0.035 0.042c1.182-1.404 2.556-2.61 3.829-3.916l183.813-150.18c5.407-4.317 12.341-6.927 19.885-6.927 17.676 0 32.006 14.33 32.006 32.006 0 9.802-4.406 18.574-11.346 24.445l-0.047 0.039-114.316 93.398h434.161c17.47 0.267 31.529 14.492 31.529 32s-14.059 31.733-31.504 32h-0.025zM631.881 233.74c2.447 4.423 3.887 9.698 3.887 15.309 0 9.915-4.496 18.779-11.56 24.666l-0.052 0.042-183.812 150.18c-5.408 4.321-12.346 6.934-19.894 6.934-17.676 0-32.006-14.33-32.006-32.006 0-9.806 4.41-18.581 11.354-24.452l0.047-0.039 114.316-93.398h-434.161c-17.673 0-32-14.327-32-32s14.327-32 32-32v0h434.161l-114.317-93.399c-7.122-5.913-11.624-14.768-11.624-24.676 0-17.675 14.328-32.003 32.003-32.003 7.651 0 14.674 2.685 20.18 7.163l-0.059-0.046 183.813 150.18c3.066 2.686 5.64 5.84 7.632 9.366l0.093 0.178z" />
<glyph unicode="&#xe90b;" glyph-name="arrow_compare_alt" d="M1012.284 332.438c7.24-7.239 11.717-17.239 11.717-28.286s-4.478-21.047-11.717-28.286l-169.55-169.55c-7.239-7.238-17.238-11.715-28.284-11.715-22.092 0-40 17.909-40 40 0 11.046 4.477 21.046 11.716 28.285l98.336 98.336h-844.502c-22.091 0-40 17.909-40 40s17.909 40 40 40v0h847.32c1.082 0 2.144-0.078 3.2-0.162l-99.472 99.47c-7.239 7.239-11.717 17.24-11.717 28.286 0 22.092 17.909 40.002 40.002 40.002 11.046 0 21.046-4.477 28.285-11.716v0zM176.38 398.898c7.239-7.239 17.239-11.716 28.285-11.716 22.092 0 40.001 17.909 40.001 40.001 0 11.046-4.477 21.046-11.716 28.285l-99.472 99.47c1.058-0.084 2.12-0.162 3.2-0.162h847.322c22.091 0 40 17.909 40 40s-17.909 40-40 40v0h-844.502l98.336 98.336c7.239 7.239 11.717 17.24 11.717 28.286 0 22.092-17.909 40.001-40.001 40.001-11.045 0-21.045-4.477-28.284-11.715l-169.55-169.552c-7.239-7.239-11.716-17.239-11.716-28.285s4.477-21.046 11.716-28.285v0z" />
<glyph unicode="&#xe90c;" glyph-name="arrow_compare_circle" d="M1022.72 760.156l-37.088-143.032c-4.589-17.372-20.164-29.972-38.681-29.972-3.582 0-7.053 0.471-10.356 1.356l0.279-0.064-147.274 38.186c-17.487 4.531-30.193 20.171-30.193 38.779 0 22.091 17.909 40 40 40 3.652 0 7.19-0.489 10.552-1.406l-0.281 0.065 51.444-13.338c-106.268 152.984-303.706 220.372-483.282 160.65-126.467-42.472-224.412-139.618-267.104-262.601l-0.896-2.965c-5.562-15.845-20.393-27.001-37.83-27.001-22.092 0-40.001 17.909-40.001 40.001 0 4.655 0.795 9.125 2.257 13.28l-0.086-0.28c26.366 75.159 67.172 139.416 119.465 192.288l-0.045-0.046c54.193 54.765 120.896 97.043 195.476 122.202l3.524 1.032c47.572 16.36 102.387 25.805 159.408 25.805 174.297 0 327.98-88.254 418.802-222.513l1.136-1.782 13.334 51.424c4.613 17.37 20.196 29.961 38.72 29.961 22.092 0 40-17.909 40-40 0-3.568-0.467-7.027-1.343-10.318l0.063 0.279zM965 335.020c-3.874 1.375-8.342 2.17-12.996 2.17-17.438 0-32.269-11.158-37.744-26.724l-0.086-0.28c-43.588-125.948-141.533-223.094-265.022-264.696l-2.978-0.87c-179.574-59.722-377.014 7.666-483.276 160.65l51.444-13.338c3.155-0.894 6.778-1.408 10.521-1.408 22.091 0 40 17.909 40 40 0 18.706-12.84 34.412-30.187 38.787l-0.276 0.059-147.28 38.186c-3.012 0.813-6.471 1.28-10.038 1.28-18.523 0-34.106-12.591-38.656-29.681l-0.063-0.279-37.082-143.032c-0.813-3.012-1.28-6.471-1.28-10.039 0-22.092 17.909-40 40-40 18.524 0 34.107 12.591 38.657 29.682l0.063 0.279 13.334 51.424c92.008-136.018 245.71-224.248 420.020-224.248 56.99 0 111.777 9.431 162.886 26.818l-3.56-1.052c78.105 26.193 144.807 68.471 198.958 123.193l0.042 0.043c52.249 52.828 93.056 117.087 118.322 188.682l1.098 3.568c1.376 3.875 2.172 8.345 2.172 13 0 17.433-11.152 32.261-26.711 37.74l-0.28 0.086z" />
<glyph unicode="&#xe90d;" glyph-name="arrow_compare_circle_alt" d="M476.985 911.523c75.435 0 150.99-21.413 218.498-61.928 42.818-25.762 81.293-58.14 113.978-95.948l-112.778 3.72c-13.245 0.443-24.338-9.945-24.773-23.198-0.435-13.245 9.945-24.345 23.198-24.773l156.038-5.152c8.962-3.69 19.268-1.628 26.122 5.235 6.847 6.863 8.895 17.168 5.19 26.13l-5.137 156c-0.3 13.253-11.288 23.753-24.54 23.46-13.245-0.3-23.76-11.288-23.46-24.533 0-0.18 0-0.345 0.015-0.517l2.97-90c-33.015 35.28-70.748 65.828-112.125 90.75-74.963 44.978-159.060 68.753-243.195 68.753-134.4 0-258.315-55.418-348.87-156.038-80.22-89.138-128.115-209.115-128.115-320.948 0-13.252 10.74-24 24-24s24 10.748 24 24c0 100.298 43.283 208.275 115.793 288.833 81.345 90.368 192.563 140.153 313.193 140.153zM936 506.538c-13.26 0-24-10.74-24-24 0-100.29-43.283-208.275-115.793-288.84-81.345-90.368-192.563-140.138-313.193-140.138-75.435 0-150.99 21.398-218.498 61.913-42.818 25.77-81.293 58.148-113.978 95.948l112.778-3.72c13.245-0.427 24.338 9.96 24.773 23.205s-9.945 24.338-23.198 24.78l-156.038 5.145c-8.962 3.69-19.268 1.62-26.122-5.235-6.847-6.862-8.895-17.16-5.19-26.122l5.137-156c0.3-13.26 11.288-23.768 24.54-23.468 13.245 0.292 23.76 11.28 23.46 24.532 0 0.173 0 0.337-0.015 0.517l-2.97 90c33.015-35.288 70.748-65.82 112.125-90.758 74.963-44.985 159.060-68.753 243.195-68.753 134.4 0 258.315 55.41 348.87 156.030 80.22 89.145 128.115 209.123 128.115 320.963 0 13.26-10.74 24-24 24z" />
<glyph unicode="&#xe90e;" glyph-name="arrow_diagonal_lb" d="M0.282 754.918l-0.282-818.918 819.201 0.152 0.143 102.247-644.545-0.012 849.202 849.205-72.406 72.409-849.205-849.205v644.406z" />
<glyph unicode="&#xe90f;" glyph-name="arrow_diagonal_lb_long" d="M1011.588 947.567c-16.549 16.549-43.376 16.549-59.883 0l-866.402-866.36v323.973c0 23.544-19.109 42.65-42.65 42.65s-42.653-19.105-42.653-42.65v-426.506c0-11.302 4.393-22.222 12.412-30.238s18.935-12.412 30.238-12.412h426.506c23.544 0 42.65 19.109 42.65 42.65 0 23.544-19.109 42.65-42.65 42.65h-323.973l866.406 866.363c16.549 16.546 16.549 43.33 0 59.88z" />
<glyph unicode="&#xe910;" glyph-name="arrow_diagonal_lt" d="M818.918 959.718l-818.918 0.282 0.152-819.201 102.247-0.143-0.009 644.545 849.205-849.202 72.409 72.409-849.205 849.202h644.403z" />
<glyph unicode="&#xe911;" glyph-name="arrow_diagonal_lt_long" d="M511.83 917.349c0 23.545-19.11 42.651-42.651 42.651h-426.527c-11.303 0-22.219-4.393-30.239-12.412-8.020-7.974-12.412-18.936-12.412-30.239v-426.524c0-23.545 19.11-42.651 42.651-42.651s42.651 19.11 42.651 42.651v323.987l866.399-866.399c16.55-16.55 43.378-16.55 59.886 0 16.55 16.55 16.55 43.378 0 59.886l-866.399 866.396h323.987c23.545 0 42.655 19.11 42.655 42.655z" />
<glyph unicode="&#xe912;" glyph-name="arrow_diagonal_rb" d="M205.082-63.718l818.918-0.282-0.152 819.201-102.247 0.143 0.012-644.545-849.205 849.202-72.409-72.409 849.205-849.205h-644.406z" />
<glyph unicode="&#xe913;" glyph-name="arrow_diagonal_rb_long" d="M12.412 887.706l866.399-866.399h-323.99c-23.545 0-42.651-19.11-42.651-42.651 0-23.545 19.11-42.651 42.651-42.651h426.524c11.303 0 22.223 4.393 30.239 12.412s12.412 18.936 12.412 30.239v426.524c0 23.545-19.11 42.651-42.651 42.651s-42.651-19.11-42.651-42.651v-323.987l-866.399 866.396c-16.55 16.55-43.378 16.55-59.886 0-16.546-16.507-16.546-43.336 0.004-59.882z" />
<glyph unicode="&#xe914;" glyph-name="arrow_diagonal_rt" d="M1023.694 141.106l0.306 818.894-819.201-0.101-0.101-102.3h644.507l-849.205-849.202 72.397-72.397 849.205 849.202v-644.403z" />
<glyph unicode="&#xe915;" glyph-name="arrow_diagonal_rt_long" d="M12.412-51.588c16.55-16.55 43.378-16.55 59.886 0l866.396 866.399v-323.987c0-23.545 19.11-42.651 42.651-42.651 23.545 0 42.651 19.11 42.651 42.651v426.524c0 11.303-4.393 22.223-12.412 30.239s-18.936 12.412-30.239 12.412h-426.524c-23.545 0-42.651-19.11-42.651-42.651s19.11-42.651 42.651-42.651h323.987l-866.396-866.399c-16.55-16.55-16.55-43.378 0-59.886z" />
<glyph unicode="&#xe916;" glyph-name="arrow_down" d="M790.624 310.624c-12.512 12.512-32.736 12.512-45.248 0l-201.376-201.376v754.752c0 17.696-14.304 32-32 32s-32-14.304-32-32v-754.752l-201.376 201.376c-12.512 12.512-32.736 12.512-45.248 0s-12.512-32.736 0-45.248l256-256c6.24-6.24 14.432-9.376 22.624-9.376s16.384 3.136 22.624 9.376l256 256c12.512 12.512 12.512 32.736 0 45.248z" />
<glyph unicode="&#xe917;" glyph-name="arrow_left" d="M928 480h-754.752l201.376 201.376c12.512 12.512 12.512 32.736 0 45.248s-32.736 12.512-45.248 0l-256-256c-12.512-12.512-12.512-32.736 0-45.248l256-256c6.24-6.24 14.432-9.376 22.624-9.376s16.384 3.136 22.624 9.376c12.512 12.512 12.512 32.736 0 45.248l-201.376 201.376h754.752c17.696 0 32 14.304 32 32s-14.304 32-32 32z" />
<glyph unicode="&#xe918;" glyph-name="arrow_left_alt" d="M938.667 490.667h-750.336l225.835 225.835c8.036 7.769 13.026 18.647 13.026 30.69 0 23.564-19.103 42.667-42.667 42.667-12.043 0-22.92-4.989-30.678-13.014l-298.679-298.679c-7.718-7.721-12.492-18.386-12.492-30.165s4.774-22.445 12.492-30.165l298.667-298.667c7.665-7.41 18.12-11.977 29.641-11.977 23.564 0 42.667 19.103 42.667 42.667 0 11.521-4.567 21.976-11.989 29.653l-225.823 225.823h750.336c23.564 0 42.667 19.103 42.667 42.667s-19.103 42.667-42.667 42.667v0z" />
<glyph unicode="&#xe919;" glyph-name="arrow_long_down" d="M761.247 208.401c-4.346 4.382-10.254 6.858-16.426 6.884-6.186 0.036-12.132-2.392-16.524-6.75l-192.927-193.161v921.354c-0.002 12.852-10.422 23.272-23.274 23.272s-23.272-10.42-23.272-23.272v-921.352l-192.927 193.161c-9.126 9.126-23.922 9.126-33.047 0s-9.126-23.922 0-33.047l232.724-232.724c9.078-9.024 23.738-9.024 32.813 0l232.724 232.724c9.124 9.052 9.184 23.786 0.134 32.911z" />
<glyph unicode="&#xe91a;" glyph-name="arrow_long_down_alt" d="M748.216 213.344c-15.658 15.584-40.984 15.524-56.568-0.134l-139.648-140.324v847.114c0 22.092-17.908 40-40 40s-40-17.908-40-40v-847.116l-139.648 140.328c-15.584 15.658-40.91 15.718-56.568 0.134-15.66-15.586-15.718-40.912-0.136-56.57l208-209.008c0.012-0.014 0.026-0.024 0.038-0.036 15.584-15.618 40.992-15.668 56.628-0.002 0.012 0.014 0.026 0.024 0.038 0.036l208 209.008c15.58 15.656 15.526 40.984-0.136 56.57z" />
<glyph unicode="&#xe91b;" glyph-name="arrow_long_left" d="M1000.728 471.843h-921.352l192.927 192.927c9.126 9.062 9.178 23.806 0.116 32.929-9.062 9.126-23.806 9.178-32.929 0.116l-232.722-232.722c-9.024-9.078-9.024-23.738 0-32.813l232.724-232.724c8.36-9.762 23.052-10.9 32.813-2.538 9.762 8.36 10.9 23.052 2.538 32.813-0.78 0.91-1.628 1.76-2.538 2.538l-192.927 192.927h921.352c12.854 0 23.272 10.42 23.272 23.272s-10.422 23.276-23.274 23.276z" />
<glyph unicode="&#xe91c;" glyph-name="arrow_long_left_alt" d="M984 488h-847.116l140.328 139.648c15.658 15.584 15.718 40.91 0.134 56.568-15.584 15.66-40.912 15.718-56.57 0.136l-209.008-208c-0.014-0.012-0.024-0.026-0.036-0.038-15.618-15.584-15.668-40.992-0.004-56.628 0.014-0.012 0.024-0.026 0.036-0.038l209.008-208c15.656-15.58 40.984-15.526 56.57 0.136 15.584 15.658 15.524 40.984-0.134 56.568l-140.324 139.648h847.116c22.092 0 40 17.908 40 40s-17.908 40-40 40z" />
<glyph unicode="&#xe91d;" glyph-name="arrow_long_right" d="M1017.232 464.407v0l-232.722 232.724c-8.36 9.762-23.052 10.9-32.813 2.538-9.762-8.36-10.9-23.052-2.538-32.813 0.78-0.91 1.628-1.76 2.538-2.538l192.927-193.161h-921.352c-12.852 0-23.272-10.42-23.272-23.274s10.42-23.272 23.272-23.272h921.352l-192.927-192.927c-9.762-8.36-10.9-23.052-2.538-32.813s23.052-10.9 32.813-2.538c0.91 0.78 1.76 1.628 2.538 2.538l232.724 232.724c9.022 9.074 9.022 23.734-0.002 32.811z" />
<glyph unicode="&#xe91e;" glyph-name="arrow_long_right_alt" d="M1012.268 476.314c-0.012 0.012-0.022 0.026-0.036 0.038l-209.008 208c-15.658 15.582-40.984 15.524-56.57-0.136-15.584-15.658-15.524-40.984 0.134-56.568l140.328-139.648h-847.116c-22.092 0-40-17.908-40-40s17.908-40 40-40h847.114l-140.324-139.648c-15.658-15.584-15.718-40.91-0.134-56.568 15.586-15.662 40.914-15.716 56.57-0.136l209.008 208c0.012 0.012 0.022 0.026 0.036 0.038 15.666 15.636 15.616 41.044-0.002 56.628z" />
<glyph unicode="&#xe91f;" glyph-name="arrow_long_up" d="M763.553 717.97c-0.78 0.91-1.628 1.76-2.538 2.538h0.232l-232.724 232.724c-9.078 9.024-23.738 9.024-32.813 0l-232.722-232.722c-9.762-8.36-10.9-23.052-2.538-32.813 8.36-9.762 23.052-10.9 32.813-2.538 0.91 0.78 1.76 1.628 2.538 2.538l192.927 192.927v-921.352c0-12.854 10.42-23.272 23.272-23.272s23.272 10.42 23.272 23.272v921.352l192.927-192.927c8.36-9.762 23.052-10.9 32.813-2.538s10.902 23.050 2.542 32.811z" />
<glyph unicode="&#xe920;" glyph-name="arrow_long_up_alt" d="M748.352 739.228l-208 209.008c-0.012 0.012-0.026 0.022-0.038 0.036-15.636 15.664-41.044 15.614-56.628-0.004-0.012-0.012-0.026-0.022-0.038-0.036l-208-209.008c-15.582-15.658-15.524-40.986 0.136-56.57 15.658-15.584 40.984-15.524 56.568 0.134l139.648 140.328v-847.116c0-22.092 17.908-40 40-40s40 17.908 40 40v847.116l139.648-140.324c15.584-15.658 40.91-15.718 56.568-0.134 15.662 15.586 15.716 40.914 0.136 56.57z" />
<glyph unicode="&#xe921;" glyph-name="arrow_right" d="M950.624 470.624l-256 256c-12.512 12.512-32.736 12.512-45.248 0s-12.512-32.736 0-45.248l201.376-201.376h-754.752c-17.664 0-32-14.304-32-32s14.336-32 32-32h754.752l-201.376-201.376c-12.512-12.512-12.512-32.736 0-45.248 6.24-6.24 14.432-9.376 22.624-9.376s16.384 3.136 22.624 9.376l256 256c12.512 12.512 12.512 32.736 0 45.248z" />
<glyph unicode="&#xe922;" glyph-name="arrow_right_alt" d="M968.832 478.165l-298.667 298.667c-7.665 7.41-18.12 11.977-29.641 11.977-23.564 0-42.667-19.103-42.667-42.667 0-11.521 4.567-21.976 11.989-29.653l225.823-225.823h-750.336c-23.564 0-42.667-19.103-42.667-42.667s19.103-42.667 42.667-42.667v0h750.336l-225.835-225.835c-8.036-7.769-13.026-18.647-13.026-30.69 0-23.564 19.103-42.667 42.667-42.667 12.043 0 22.92 4.989 30.678 13.014l298.679 298.679c7.718 7.721 12.492 18.386 12.492 30.165s-4.774 22.445-12.492 30.165v0z" />
<glyph unicode="&#xe923;" glyph-name="arrow_up" d="M790.624 630.624l-256 256c-12.512 12.512-32.736 12.512-45.248 0l-256-256c-12.512-12.512-12.512-32.736 0-45.248s32.736-12.512 45.248 0l201.376 201.376v-754.752c0-17.696 14.304-32 32-32s32 14.304 32 32v754.752l201.376-201.376c6.24-6.24 14.432-9.376 22.624-9.376s16.384 3.136 22.624 9.376c12.512 12.512 12.512 32.736 0 45.248z" />
<glyph unicode="&#xe924;" glyph-name="bars" d="M85.333 661.333h853.333c23.564 0 42.667 19.103 42.667 42.667s-19.103 42.667-42.667 42.667v0h-853.333c-23.564 0-42.667-19.103-42.667-42.667s19.103-42.667 42.667-42.667v0zM938.667 490.667h-853.333c-23.564 0-42.667-19.103-42.667-42.667s19.103-42.667 42.667-42.667v0h853.333c23.564 0 42.667 19.103 42.667 42.667s-19.103 42.667-42.667 42.667v0zM938.667 234.667h-853.333c-23.564 0-42.667-19.103-42.667-42.667s19.103-42.667 42.667-42.667v0h853.333c23.564 0 42.667 19.103 42.667 42.667s-19.103 42.667-42.667 42.667v0z" />
<glyph unicode="&#xe925;" glyph-name="bars_alt" d="M256 755.2c0 28.276 22.924 51.2 51.2 51.2h665.6c28.276 0 51.2-22.924 51.2-51.2s-22.924-51.2-51.2-51.2h-665.6c-28.276 0-51.2 22.926-51.2 51.2zM972.8 499.2h-921.6c-28.276 0-51.2-22.926-51.2-51.2 0-28.276 22.924-51.2 51.2-51.2h921.6c28.276 0 51.2 22.924 51.2 51.2 0 28.274-22.924 51.2-51.2 51.2zM972.8 192h-460.8c-28.274 0-51.2-22.924-51.2-51.2 0-28.274 22.926-51.2 51.2-51.2h460.8c28.276 0 51.2 22.926 51.2 51.2 0 28.276-22.924 51.2-51.2 51.2z" />
<glyph unicode="&#xe926;" glyph-name="bars_chat" d="M235.094 490.666h-213.334c-11.776 0-21.334-9.558-21.334-21.334v-512c0-11.774 9.558-21.332 21.334-21.332h213.334c11.776 0 21.334 9.558 21.334 21.334v512c-0.002 11.776-9.516 21.332-21.334 21.332zM618.24 960h-213.334c-11.776 0-21.334-9.558-21.334-21.334v-981.334c0-11.776 9.558-21.334 21.334-21.334h213.334c11.776 0 21.334 9.558 21.334 21.334v981.334c0 11.776-9.558 21.334-21.334 21.334zM1002.24 746.666h-213.334c-11.776 0-21.334-9.558-21.334-21.334v-768c0-11.776 9.558-21.334 21.334-21.334h213.334c11.776 0 21.334 9.558 21.334 21.334v768c0 11.778-9.558 21.334-21.334 21.334z" />
<glyph unicode="&#xe927;" glyph-name="bars_fill" d="M960 63.999h-895.999c-35.348 0-64 28.655-64 64s28.653 64 64 64h896.001c35.345 0 64-28.655 64-64-0.002-35.345-28.655-64-64.003-64zM960 384.001h-895.999c-35.348 0-64 28.653-64 63.998s28.653 64 64 64h896.001c35.345 0 64-28.653 64-64s-28.655-63.998-64.003-63.998zM960 704.001h-895.999c-35.348 0-64 28.653-64 64s28.653 64 64 64h896.001c35.345 0 64-28.653 64-64s-28.655-64-64.003-64z" />
<glyph unicode="&#xe928;" glyph-name="bars_list" d="M972.922 76.171h-684.745c-28.222 0-51.095 22.874-51.095 51.095s22.874 51.095 51.095 51.095h684.728c28.222 0 51.095-22.874 51.095-51.095s-22.857-51.095-51.078-51.095zM972.922 396.896h-684.745c-28.222 0-51.095 22.874-51.095 51.095s22.874 51.095 51.095 51.095h684.728c28.222 0 51.095-22.874 51.095-51.095 0.017-28.222-22.857-51.095-51.078-51.095zM972.922 717.621h-684.745c-28.222 0-51.095 22.874-51.095 51.095s22.874 51.095 51.095 51.095h684.728c28.222 0 51.095-22.874 51.095-51.095s-22.857-51.095-51.078-51.095zM137.242 764.765c0-37.898-30.723-68.621-68.621-68.621s-68.621 30.723-68.621 68.621c0 37.898 30.723 68.621 68.621 68.621s68.621-30.723 68.621-68.621zM137.242 447.991c0-37.898-30.723-68.621-68.621-68.621s-68.621 30.723-68.621 68.621c0 37.898 30.723 68.621 68.621 68.621s68.621-30.723 68.621-68.621zM137.242 131.218c0-37.898-30.723-68.621-68.621-68.621s-68.621 30.723-68.621 68.621c0 37.898 30.723 68.621 68.621 68.621s68.621-30.723 68.621-68.621z" />
<glyph unicode="&#xe929;" glyph-name="bars_list_fill" d="M946.714 217.951h-618.273c-42.69 0-77.303-34.629-77.303-77.335 0-42.674 34.613-77.303 77.303-77.303h618.273c42.674 0 77.286 34.629 77.286 77.303 0 42.69-34.613 77.335-77.286 77.335zM946.714 525.664h-618.273c-42.69 0-77.303-34.613-77.303-77.319 0-42.69 34.613-77.303 77.303-77.303h618.273c42.674 0 77.286 34.613 77.286 77.303s-34.613 77.319-77.286 77.319zM328.441 678.756h618.273c42.674 0 77.286 34.613 77.286 77.319s-34.613 77.303-77.286 77.303h-618.273c-42.69 0-77.303-34.613-77.303-77.303s34.613-77.319 77.303-77.319zM156.941 755.368c0-43.338-35.132-78.471-78.471-78.471s-78.471 35.132-78.471 78.471c0 43.338 35.132 78.471 78.471 78.471s78.471-35.132 78.471-78.471zM156.925 448.345c0-43.329-35.125-78.454-78.454-78.454s-78.454 35.125-78.454 78.454c0 43.329 35.125 78.454 78.454 78.454s78.454-35.125 78.454-78.454zM156.941 140.632c0-43.338-35.132-78.471-78.471-78.471s-78.471 35.132-78.471 78.471c0 43.338 35.132 78.471 78.471 78.471s78.471-35.132 78.471-78.471z" />
<glyph unicode="&#xe92a;" glyph-name="bars_list_fill_atl" d="M213.333 960h-170.667c-23.552 0-42.667-19.115-42.667-42.667v-170.667c0-23.552 19.115-42.667 42.667-42.667h170.667c23.552 0 42.667 19.115 42.667 42.667v170.667c0 23.552-19.115 42.667-42.667 42.667zM981.333 960h-597.333c-23.552 0-42.667-19.115-42.667-42.667v-170.667c0-23.552 19.115-42.667 42.667-42.667h597.333c23.552 0 42.667 19.115 42.667 42.667v170.667c0 23.552-19.115 42.667-42.667 42.667zM213.333 576h-170.667c-23.552 0-42.667-19.115-42.667-42.667v-170.667c0-23.552 19.115-42.667 42.667-42.667h170.667c23.552 0 42.667 19.115 42.667 42.667v170.667c0 23.552-19.115 42.667-42.667 42.667zM981.333 576h-597.333c-23.552 0-42.667-19.115-42.667-42.667v-170.667c0-23.552 19.115-42.667 42.667-42.667h597.333c23.552 0 42.667 19.115 42.667 42.667v170.667c0 23.552-19.115 42.667-42.667 42.667zM213.333 192h-170.667c-23.552 0-42.667-19.115-42.667-42.667v-170.667c0-23.552 19.115-42.667 42.667-42.667h170.667c23.552 0 42.667 19.115 42.667 42.667v170.667c0 23.552-19.115 42.667-42.667 42.667zM981.333 192h-597.333c-23.552 0-42.667-19.115-42.667-42.667v-170.667c0-23.552 19.115-42.667 42.667-42.667h597.333c23.552 0 42.667 19.115 42.667 42.667v170.667c0 23.552-19.115 42.667-42.667 42.667z" />
<glyph unicode="&#xe92b;" glyph-name="bookmark" d="M812.96 924.8h-601.92c-40.768 0-73.92-33.184-73.92-73.952v-805.088c0-29.696 16.864-55.552 44-67.584 27.2-12.032 57.664-7.136 79.616 12.864l240.32 218.208c6.24 5.696 15.68 5.696 21.952 0l240.32-218.208c14.016-12.736 31.52-19.328 49.376-19.328 10.144 0 20.416 2.112 30.24 6.464 27.136 12.032 44 37.92 44 67.584v805.12c-0.064 40.736-33.216 73.92-73.984 73.92zM829.312 45.792c0-9.6-6.784-13.632-9.728-14.912-2.912-1.312-10.464-3.584-17.568 2.816l-240.32 218.208c-14.144 12.864-31.936 19.328-49.696 19.328s-35.52-6.432-49.696-19.328l-240.32-218.208c-7.136-6.4-14.656-4.128-17.568-2.816-2.912 1.28-9.728 5.312-9.728 14.912v805.088c0 8.992 7.328 16.32 16.32 16.32h601.952c8.992 0 16.32-7.328 16.32-16.32v-805.088zM651.008 740.8h-278.016c-15.904 0-28.8-12.896-28.8-28.8s12.896-28.8 28.8-28.8h278.016c15.904 0 28.8 12.896 28.8 28.8s-12.896 28.8-28.8 28.8z" />
<glyph unicode="&#xe92c;" glyph-name="bookmark_book" d="M906.667-64h-746.667c-64.725 0-117.333 52.608-117.333 117.333v789.333c0 64.725 52.608 117.333 117.333 117.333h661.333c17.664 0 32-14.336 32-32v-138.667h53.333c17.664 0 32-14.336 32-32v-789.333c0-17.664-14.336-32-32-32zM106.667 738.176v-684.843c0-29.397 23.936-53.333 53.333-53.333h714.667v725.333h-714.667c-19.2 0-37.333 4.608-53.333 12.843zM160 896c-29.397 0-53.333-23.936-53.333-53.333s23.936-53.333 53.333-53.333h629.333v106.667zM522.667 149.333c-5.845 0-11.605 1.579-16.811 4.736l-121.856 75.008-121.856-75.008c-9.899-6.101-22.229-6.315-32.427-0.683-10.155 5.675-16.384 16.384-16.384 27.947v576h64v-518.741l89.856 55.296c10.325 6.315 23.253 6.315 33.579 0l89.856-55.296v518.741h64.043v-576c0-11.563-6.229-22.272-16.384-27.947-4.864-2.688-10.24-4.053-15.616-4.053z" />
<glyph unicode="&#xe92d;" glyph-name="bookmark_book_alt" d="M916.081 864.878h-68.868v75.36c0 10.93-8.838 19.762-19.762 19.762h-671.966c-37.116 0-67.323-30.196-67.323-67.312v-889.377c0-37.093 30.207-67.317 67.323-67.317h760.596c10.924 0 19.762 8.832 19.762 19.762v889.377c0 10.913-8.843 19.745-19.762 19.745zM155.485 920.453h652.204v-55.592h-652.204c-15.312 0-27.793 12.464-27.793 27.793 0 15.312 12.481 27.799 27.793 27.799zM577.938 825.348h158.108v-325.955l-67.983 45.886c-3.356 2.256-7.213 3.378-11.077 3.378-3.88 0-7.721-1.117-11.077-3.378l-67.977-45.886v325.955zM896.314-24.482h-740.829c-15.312 0-27.793 12.47-27.793 27.793v828.207c8.499-3.869 17.856-6.187 27.793-6.187h382.923v-363.156c0-7.315 4.032-14.015 10.456-17.455 6.486-3.435 14.303-3.012 20.343 1.077l87.762 59.241 87.762-59.241c3.316-2.239 7.163-3.401 11.060-3.401 3.181 0 6.345 0.773 9.283 2.318 6.452 3.44 10.479 10.14 10.479 17.455v363.178h120.721v-849.83h0.039z" />
<glyph unicode="&#xe92e;" glyph-name="bookmark_fill" d="M810.667 917.333h-597.333c-23.668-0.475-42.673-19.774-42.673-43.512 0-0.27 0.002-0.539 0.007-0.808l-0.001 0.040v-850.014c-0.014-0.411-0.022-0.894-0.022-1.379 0-23.564 19.103-42.667 42.667-42.667 8.389 0 16.213 2.421 22.81 6.603l-0.174-0.103 253.44 164.399c6.376 4.218 14.201 6.73 22.613 6.73s16.238-2.512 22.768-6.826l-0.154 0.096 253.44-164.399c6.423-4.078 14.247-6.499 22.636-6.499 23.564 0 42.667 19.103 42.667 42.667 0 0.485-0.008 0.968-0.024 1.449l0.002-0.070v850.014c0.004 0.228 0.007 0.498 0.007 0.768 0 23.738-19.005 43.037-42.629 43.511l-0.044 0.001zM682.667 768h-341.333c-11.782 0-21.333 9.551-21.333 21.333s9.551 21.333 21.333 21.333v0h341.333c11.782 0 21.333-9.551 21.333-21.333s-9.551-21.333-21.333-21.333v0z" />
<glyph unicode="&#xe92f;" glyph-name="bookmark_plus" d="M784.997 56.011c0-32.398-12.438-62.521-35.020-84.819-23.056-22.768-54.911-35.554-87.485-35.176-32.354 0.41-61.223 12.724-83.495 35.612l-181.996 187.028-181.996-187.028c-22.114-22.726-50.915-35.038-83.297-35.608-0.708-0.012-1.422-0.018-2.13-0.018-31.936 0-63.035 12.62-85.625 34.814-22.536 22.142-34.948 52.151-34.948 84.499v744.687c0 88.223 71.775 159.998 159.998 159.998h455.995c88.223 0 159.998-71.775 159.998-159.998 0-22.092-17.908-40-40-40s-40 17.908-40 40c0 44.111-35.888 79.999-79.999 79.999h-455.995c-44.111 0-79.999-35.888-79.999-79.999v-744.689c0-11.024 3.708-20.254 11.016-27.436 7.766-7.63 19.026-12.070 30.28-11.872 11.136 0.196 20.090 3.928 27.372 11.412l210.664 216.489c7.532 7.738 17.872 12.104 28.668 12.104s21.136-4.366 28.668-12.104l210.662-216.489c7.334-7.54 16.222-11.27 27.172-11.41 11.21-0.166 22.446 4.384 30.266 12.108 7.452 7.358 11.228 16.742 11.228 27.894 0 22.092 17.908 40 40 40s40-17.906 40-39.998zM1014.994 432.006c0-148.876-121.121-269.997-269.997-269.997s-269.997 121.121-269.997 269.997 121.121 269.997 269.997 269.997 269.997-121.121 269.997-269.997zM934.995 432.006c0 104.765-85.233 189.998-189.998 189.998s-189.998-85.233-189.998-189.998 85.233-189.998 189.998-189.998 189.998 85.233 189.998 189.998zM824.996 472.006h-40v40c0 22.092-17.908 40-40 40s-40-17.908-40-40v-40h-40c-22.092 0-40-17.908-40-40s17.908-40 40-40h40v-40c0-22.092 17.908-40 40-40s40 17.908 40 40v40h40c22.092 0 40 17.908 40 40s-17.908 40-40 40z" />
<glyph unicode="&#xe930;" glyph-name="bookmark_plus_fill" d="M731.429 704c-100.989 0-182.857-81.868-182.857-182.857s81.868-182.857 182.857-182.857c100.989 0 182.857 81.868 182.857 182.857v0c-0.125 100.939-81.918 182.732-182.845 182.857h-0.012zM804.571 484.571h-36.571v-36.571c0-20.198-16.374-36.571-36.571-36.571s-36.571 16.374-36.571 36.571v0 36.571h-36.571c-20.198 0-36.571 16.374-36.571 36.571s16.374 36.571 36.571 36.571v0h36.571v36.571c0 20.198 16.374 36.571 36.571 36.571s36.571-16.374 36.571-36.571v0-36.571h36.571c20.198 0 36.571-16.374 36.571-36.571s-16.374-36.571-36.571-36.571v0zM475.429 521.143c-0.005 0.567-0.007 1.236-0.007 1.907 0 140.335 113.764 254.098 254.098 254.098 13.582 0 26.915-1.066 39.92-3.118l-1.439 0.187v4.754c-0.104 79.74-64.718 144.353-144.447 144.457h-369.381c-79.74-0.104-144.353-64.718-144.457-144.447v-769.839c0.003-20.196 16.375-36.566 36.571-36.566 9.251 0 17.701 3.435 24.141 9.1l-0.041-0.035 268.471 234.898 268.471-234.898c6.4-5.629 14.849-9.064 24.101-9.064 20.196 0 36.568 16.371 36.571 36.566v0 258.926c-11.566-1.865-24.899-2.931-38.48-2.931-140.335 0-254.098 113.764-254.098 254.098 0 0.67 0.003 1.34 0.008 2.009l-0.001-0.103z" />
<glyph unicode="&#xe931;" glyph-name="bookmark_star_alt" d="M160.072-24.671v929.258c0 30.555 24.859 55.414 55.414 55.414h54.704c8.284 0 14.999-6.716 14.999-14.999s-6.716-14.999-14.999-14.999h-54.704c-14.013 0-25.415-11.402-25.415-25.415v-929.26c-0.002-7.356 8.176-11.82 14.363-7.706l292.495 194.111c9.13 6.064 21.007 6.064 30.143-0.002l155.56-103.236c6.904-4.582 8.786-13.889 4.204-20.791s-13.891-8.786-20.791-4.204l-154.046 102.23-290.977-193.103c-26.255-17.425-60.952 1.612-60.95 32.703zM824.611-63.962c-7.662 0-15.141 2.278-21.633 6.586l-78.607 52.166c-6.902 4.582-8.786 13.889-4.204 20.791 4.58 6.904 13.891 8.784 20.791 4.204 85.783-56.928 79.923-53.748 83.653-53.748 4.482 0 9.318 3.552 9.318 9.29v929.26c0 14.013-11.402 25.415-25.415 25.415h-468.327c-8.284 0-14.999 6.716-14.999 14.999s6.716 14.999 14.999 14.999h468.325c30.555 0 55.414-24.859 55.414-55.414v-929.26c0.002-21.663-17.635-39.289-39.315-39.289zM629.931 320.474c-6.238 0-12.508 1.504-18.301 4.55l-95.326 50.116c-2.694 1.418-5.912 1.418-8.608 0l-95.324-50.116c-13.322-7.002-29.159-5.858-41.334 2.988-12.174 8.846-18.157 23.555-15.613 38.387l18.207 106.148c0.514 3-0.48 6.062-2.66 8.188l-77.121 75.173c-10.778 10.504-14.583 25.921-9.932 40.235s16.791 24.547 31.685 26.711l106.578 15.487c3.014 0.438 5.618 2.33 6.966 5.062l47.662 96.576c6.662 13.495 20.147 21.877 35.197 21.877s28.535-8.384 35.197-21.877l47.662-96.576c1.348-2.73 3.952-4.622 6.964-5.060l106.58-15.487c14.891-2.164 27.033-12.398 31.683-26.711 4.65-14.311 0.844-29.729-9.932-40.235l-77.121-75.173c-2.18-2.126-3.174-5.186-2.66-8.19l18.207-106.146c2.544-14.833-3.44-29.541-15.613-38.387-6.886-5-14.935-7.54-23.041-7.54zM512.001 406.203c6.274 0 12.546-1.502 18.263-4.508l95.328-50.116c4.59-2.416 8.342-0.314 9.742 0.704 1.398 1.016 4.556 3.932 3.68 9.046l-18.207 106.146c-2.184 12.738 2.038 25.723 11.29 34.741l77.121 75.173c3.716 3.624 2.874 7.838 2.34 9.482s-2.332 5.548-7.466 6.294l-106.58 15.487c-12.784 1.858-23.831 9.882-29.551 21.469l-47.664 96.578c-2.296 4.654-6.566 5.156-8.294 5.156s-5.998-0.502-8.294-5.156l-47.662-96.576c-5.72-11.588-16.767-19.613-29.553-21.469l-106.578-15.487c-5.136-0.746-6.932-4.65-7.466-6.294s-1.376-5.86 2.34-9.482l77.121-75.173c9.252-9.018 13.472-22.003 11.29-34.739l-18.207-106.15c-0.876-5.114 2.282-8.030 3.68-9.046 1.4-1.018 5.15-3.122 9.742-0.704l95.326 50.116c5.714 3.004 11.986 4.508 18.259 4.508z" />
<glyph unicode="&#xe932;" glyph-name="calendar" d="M826.298 881.141h-38.195v38.649c0 22.082-17.9 39.982-39.982 39.982s-39.982-17.9-39.982-39.982v-38.649h-392.279v38.649c0 22.082-17.9 39.982-39.982 39.982s-39.982-17.9-39.982-39.982v-38.649h-38.193c-109.013 0-197.702-88.689-197.702-197.7v-549.511c0-109.013 88.689-197.702 197.702-197.702h628.598c109.011 0 197.7 88.689 197.7 197.702v549.511c0 109.011-88.689 197.7-197.702 197.7zM197.702 801.177h38.193v-77.965c0-22.082 17.9-39.982 39.982-39.982s39.982 17.9 39.982 39.982v77.965h392.281v-77.965c0-22.082 17.9-39.982 39.982-39.982s39.982 17.9 39.982 39.982v77.965h38.195c64.919 0 117.736-52.816 117.736-117.736v-38.195h-864.071v38.195c0 64.919 52.816 117.736 117.738 117.736zM826.298 16.192h-628.596c-64.921 0-117.738 52.816-117.738 117.738v431.352h864.071v-431.352c0-64.921-52.816-117.738-117.738-117.738zM355.176 408.018c0-22.082-17.9-39.982-39.982-39.982h-78.631c-22.082 0-39.982 17.9-39.982 39.982s17.9 39.982 39.982 39.982h78.631c22.080 0 39.982-17.9 39.982-39.982zM827.422 408.018c0-22.082-17.9-39.982-39.982-39.982h-78.631c-22.082 0-39.982 17.9-39.982 39.982s17.9 39.982 39.982 39.982h78.631c22.080 0 39.982-17.9 39.982-39.982zM591.071 408.018c0-22.082-17.9-39.982-39.982-39.982h-78.631c-22.082 0-39.982 17.9-39.982 39.982s17.9 39.982 39.982 39.982h78.631c22.080 0 39.982-17.9 39.982-39.982zM355.176 172.123c0-22.082-17.9-39.982-39.982-39.982h-78.631c-22.082 0-39.982 17.9-39.982 39.982s17.9 39.982 39.982 39.982h78.631c22.080 0 39.982-17.9 39.982-39.982zM827.422 172.123c0-22.082-17.9-39.982-39.982-39.982h-78.631c-22.082 0-39.982 17.9-39.982 39.982s17.9 39.982 39.982 39.982h78.631c22.080 0 39.982-17.9 39.982-39.982zM591.071 172.123c0-22.082-17.9-39.982-39.982-39.982h-78.631c-22.082 0-39.982 17.9-39.982 39.982s17.9 39.982 39.982 39.982h78.631c22.080 0 39.982-17.9 39.982-39.982z" />
<glyph unicode="&#xe933;" glyph-name="calendar_check" d="M912 832h-80v32c0 35.346-28.654 64-64 64s-64-28.654-64-64v0-32h-128v32c0 35.346-28.654 64-64 64s-64-28.654-64-64v0-32h-128v32c0 35.346-28.654 64-64 64s-64-28.654-64-64v0-32h-80c-44.183 0-80-35.817-80-80v0-640c0-44.183 35.817-80 80-80v0h448c8.837 0 16 7.163 16 16s-7.163 16-16 16v0h-448c-26.477 0.082-47.918 21.523-48 47.992v496.008h896v-272c0-8.837 7.163-16 16-16s16 7.163 16 16v0 416c0 44.183-35.817 80-80 80v0zM736 864c0 17.673 14.327 32 32 32s32-14.327 32-32v0-96c0-17.673-14.327-32-32-32s-32 14.327-32 32v0zM480 864c0 17.673 14.327 32 32 32s32-14.327 32-32v0-96c0-17.673-14.327-32-32-32s-32 14.327-32 32v0zM224 864c0 17.673 14.327 32 32 32s32-14.327 32-32v0-96c0-17.673-14.327-32-32-32s-32 14.327-32 32v0zM960 640h-896v112c0.082 26.477 21.523 47.918 47.992 48h80.008v-32c0-35.346 28.654-64 64-64s64 28.654 64 64v0 32h128v-32c0-35.346 28.654-64 64-64s64 28.654 64 64v0 32h128v-32c0-35.346 28.654-64 64-64s64 28.654 64 64v0 32h80c26.477-0.082 47.918-21.523 48-47.992v-0.008zM480 496c0 17.673-14.327 32-32 32v0h-64c-17.673 0-32-14.327-32-32v0-48c0-17.673 14.327-32 32-32v0h64c17.673 0 32 14.327 32 32v0zM384 448v48h64v-48zM288 496c0 17.673-14.327 32-32 32v0h-64c-17.673 0-32-14.327-32-32v0-48c0-17.673 14.327-32 32-32v0h64c17.673 0 32 14.327 32 32v0zM192 448v48h64v-48zM832 416c17.673 0 32 14.327 32 32v0 48c0 17.673-14.327 32-32 32v0h-64c-17.673 0-32-14.327-32-32v0-48c0-17.673 14.327-32 32-32v0zM768 496h64v-48h-64zM480 352c0 17.673-14.327 32-32 32v0h-64c-17.673 0-32-14.327-32-32v0-48c0-17.673 14.327-32 32-32v0h64c17.673 0 32 14.327 32 32v0zM384 304v48h64v-48zM288 352c0 17.673-14.327 32-32 32v0h-64c-17.673 0-32-14.327-32-32v0-48c0-17.673 14.327-32 32-32v0h64c17.673 0 32 14.327 32 32v0zM192 304v48h64v-48zM448 240h-64c-17.673 0-32-14.327-32-32v0-48c0-17.673 14.327-32 32-32v0h64c17.673 0 32 14.327 32 32v0 48c0 17.673-14.327 32-32 32v0zM384 160v48h64v-48zM576 416h64c17.673 0 32 14.327 32 32v0 48c0 17.673-14.327 32-32 32v0h-64c-17.673 0-32-14.327-32-32v0-48c0-17.673 14.327-32 32-32v0zM576 496h64v-48h-64zM544 304c0-17.673 14.327-32 32-32v0c8.837 0 16 7.163 16 16s-7.163 16-16 16v0 48h64c8.837 0 16 7.163 16 16s-7.163 16-16 16v0h-64c-17.673 0-32-14.327-32-32v0zM256 240h-64c-17.673 0-32-14.327-32-32v0-48c0-17.673 14.327-32 32-32v0h64c17.673 0 32 14.327 32 32v0 48c0 17.673-14.327 32-32 32v0zM192 160v48h64v-48zM784 384c-114.875 0-208-93.125-208-208s93.125-208 208-208c114.875 0 208 93.125 208 208v0c-0.137 114.82-93.18 207.863-207.987 208h-0.013zM784 0c-97.202 0-176 78.798-176 176s78.798 176 176 176c97.202 0 176-78.798 176-176v0c-0.118-97.155-78.845-175.882-175.989-176h-0.011zM876.448 243.072l-124.448-124.448-56.56 56.576c-2.874 2.779-6.795 4.491-11.115 4.491-8.837 0-16-7.163-16-16 0-4.321 1.712-8.241 4.496-11.12l67.868-67.884c2.895-2.894 6.895-4.685 11.312-4.685s8.417 1.79 11.312 4.685l135.76 135.76c2.779 2.874 4.491 6.795 4.491 11.115 0 8.837-7.163 16-16 16-4.321 0-8.241-1.712-11.12-4.496l0.004 0.004z" />
<glyph unicode="&#xe934;" glyph-name="calendar_clock" d="M812 540c0-22.091-17.909-40-40-40s-40 17.909-40 40c0 22.091 17.909 40 40 40s40-17.909 40-40zM864 880h-52v40c0 22.092-17.908 40-40 40s-40-17.908-40-40v-40h-182v40c0 22.092-17.908 40-40 40s-40-17.908-40-40v-40h-180v40c0 22.092-17.908 40-40 40s-40-17.908-40-40v-40h-50c-88.224 0-160-71.776-160-160v-624c0-88.224 71.776-160 160-160h306c22.092 0 40 17.908 40 40s-17.908 40-40 40h-306c-44.112 0-80 35.888-80 80v624c0 44.112 35.888 80 80 80h50v-40c0-22.092 17.908-40 40-40s40 17.908 40 40v40h180v-40c0-22.092 17.908-40 40-40s40 17.908 40 40v40h182v-40c0-22.092 17.908-40 40-40s40 17.908 40 40v40h52c44.112 0 80-35.888 80-80v-228c0-22.092 17.908-40 40-40s40 17.908 40 40v228c0 88.224-71.776 160-160 160zM782 420c-133.44 0-242-108.56-242-242s108.56-242 242-242 242 108.56 242 242-108.56 242-242 242zM782 16c-89.326 0-162 72.672-162 162s72.674 162 162 162c89.326 0 162-72.672 162-162s-72.674-162-162-162zM840 218h-18v42c0 22.092-17.908 40-40 40s-40-17.908-40-40v-82c0-22.092 17.908-40 40-40h58c22.092 0 40 17.908 40 40s-17.908 40-40 40zM638 540c0-22.091-17.909-40-40-40s-40 17.909-40 40c0 22.091 17.909 40 40 40s40-17.909 40-40zM464 366c0-22.091-17.909-40-40-40s-40 17.909-40 40c0 22.091 17.909 40 40 40s40-17.909 40-40zM290 540c0-22.091-17.909-40-40-40s-40 17.909-40 40c0 22.091 17.909 40 40 40s40-17.909 40-40zM290 366c0-22.091-17.909-40-40-40s-40 17.909-40 40c0 22.091 17.909 40 40 40s40-17.909 40-40zM290 192c0-22.091-17.909-40-40-40s-40 17.909-40 40c0 22.091 17.909 40 40 40s40-17.909 40-40zM464 192c0-22.091-17.909-40-40-40s-40 17.909-40 40c0 22.091 17.909 40 40 40s40-17.909 40-40zM464 540c0-22.091-17.909-40-40-40s-40 17.909-40 40c0 22.091 17.909 40 40 40s40-17.909 40-40z" />
<glyph unicode="&#xe935;" glyph-name="calendar_dots" d="M154.738-64h714.524c74.904 0 135.775 60.872 135.775 135.775v676.599c0 74.904-60.872 135.775-135.775 135.775h-53.854v37.925c0 20.86-17.069 37.925-37.928 37.925s-37.925-17.066-37.925-37.925v-37.925h-455.109v37.925c0 20.86-17.069 37.925-37.928 37.925s-37.925-17.066-37.925-37.925v-37.925h-53.854c-74.904 0-135.775-60.872-135.775-135.775v-676.599c0-74.904 60.872-135.775 135.775-135.775zM94.816 748.374c0 32.995 26.927 59.922 59.922 59.922h53.854v-37.925c0-20.86 17.066-37.925 37.925-37.925s37.925 17.066 37.925 37.925v37.925h455.112v-37.925c0-20.86 17.066-37.925 37.925-37.925s37.925 17.066 37.925 37.925v37.925h53.854c32.995 0 59.922-26.927 59.922-59.922v-676.599c0-32.995-26.927-59.922-59.922-59.922h-714.521c-32.995 0-59.922 26.927-59.922 59.922zM341.333 571.26c0-26.182-21.225-47.407-47.407-47.407s-47.407 21.225-47.407 47.407c0 26.182 21.225 47.407 47.407 47.407s47.407-21.225 47.407-47.407zM549.925 571.26c0-26.182-21.225-47.407-47.407-47.407s-47.407 21.225-47.407 47.407c0 26.182 21.225 47.407 47.407 47.407s47.407-21.225 47.407-47.407zM758.517 571.26c0-26.182-21.225-47.407-47.407-47.407s-47.407 21.225-47.407 47.407c0 26.182 21.225 47.407 47.407 47.407s47.407-21.225 47.407-47.407zM341.333 381.631c0-26.182-21.225-47.407-47.407-47.407s-47.407 21.225-47.407 47.407c0 26.182 21.225 47.407 47.407 47.407s47.407-21.225 47.407-47.407zM549.925 381.631c0-26.182-21.225-47.407-47.407-47.407s-47.407 21.225-47.407 47.407c0 26.182 21.225 47.407 47.407 47.407s47.407-21.225 47.407-47.407zM758.517 381.631c0-26.182-21.225-47.407-47.407-47.407s-47.407 21.225-47.407 47.407c0 26.182 21.225 47.407 47.407 47.407s47.407-21.225 47.407-47.407zM341.333 192.002c0-26.182-21.225-47.407-47.407-47.407s-47.407 21.225-47.407 47.407c0 26.182 21.225 47.407 47.407 47.407s47.407-21.225 47.407-47.407zM549.925 192.002c0-26.182-21.225-47.407-47.407-47.407s-47.407 21.225-47.407 47.407c0 26.182 21.225 47.407 47.407 47.407s47.407-21.225 47.407-47.407zM758.517 192.002c0-26.182-21.225-47.407-47.407-47.407s-47.407 21.225-47.407 47.407c0 26.182 21.225 47.407 47.407 47.407s47.407-21.225 47.407-47.407z" />
<glyph unicode="&#xe936;" glyph-name="calendar_fill" d="M250.23 716.47h14.65c22.264 0 40.312 18.054 40.312 40.312v152.853c0 22.258-18.047 40.31-40.312 40.31h-14.65c-22.262 0-40.31-18.052-40.31-40.31v-152.853c0-22.258 18.047-40.312 40.31-40.312zM767.282 717.469h14.65c22.262 0 40.31 18.052 40.31 40.312v152.855c0 22.256-18.047 40.307-40.31 40.307h-14.65c-22.266 0-40.314-18.052-40.314-40.307v-152.853c0.004-22.262 18.052-40.314 40.314-40.314zM958.468 868.025h-103.458v-120.8c0-40.297-32.782-62.523-73.075-62.523h-14.65c-40.297 0-73.079 32.784-73.079 73.081v110.242h-356.247v-111.241c0-40.297-32.782-73.081-73.079-73.081h-14.65c-40.295 0-73.077 32.784-73.077 73.081v111.241h-111.621c-36.135 0-65.534-29.399-65.534-65.536v-791.896c0-36.137 29.399-65.536 65.534-65.536h892.934c36.135 0 65.532 29.399 65.532 65.536v791.896c0.004 36.135-29.397 65.536-65.532 65.536zM958.468 10.593h-892.932l-0.002 598.019h892.946l0.034-598.017c-0.004 0-0.017-0.002-0.046-0.002zM545.832 408.019h117.671c4.664 0 8.446 3.782 8.446 8.446v101.893c0 4.664-3.782 8.446-8.446 8.446h-117.671c-4.664 0-8.446-3.782-8.446-8.446v-101.893c0-4.664 3.782-8.446 8.446-8.446zM737.868 408.019h117.671c4.664 0 8.446 3.782 8.446 8.446v101.893c0 4.664-3.782 8.446-8.446 8.446h-117.671c-4.664 0-8.446-3.782-8.446-8.446v-101.893c0-4.664 3.782-8.446 8.446-8.446zM161.768 241.206h117.668c4.664 0 8.446 3.782 8.446 8.446v101.895c0 4.664-3.782 8.446-8.446 8.446h-117.668c-4.664 0-8.446-3.782-8.446-8.446v-101.895c0-4.664 3.782-8.446 8.446-8.446zM353.801 241.206h117.668c4.664 0 8.446 3.782 8.446 8.446v101.895c0 4.664-3.782 8.446-8.446 8.446h-117.668c-4.664 0-8.446-3.782-8.446-8.446v-101.895c0-4.664 3.782-8.446 8.446-8.446zM545.834 241.206h117.668c4.664 0 8.446 3.782 8.446 8.446v101.895c0 4.664-3.782 8.446-8.446 8.446h-117.668c-4.664 0-8.446-3.782-8.446-8.446v-101.895c0-4.664 3.782-8.446 8.446-8.446zM737.868 241.206h117.671c4.664 0 8.446 3.782 8.446 8.446v101.895c0 4.664-3.782 8.446-8.446 8.446h-117.671c-4.664 0-8.446-3.782-8.446-8.446v-101.895c0-4.664 3.782-8.446 8.446-8.446zM279.437 193.181h-117.666c-4.664 0-8.446-3.782-8.446-8.446v-101.895c0-4.664 3.782-8.446 8.446-8.446h117.668c4.664 0 8.446 3.782 8.446 8.446v101.895c-0.002 4.664-3.784 8.446-8.448 8.446zM471.472 193.181h-117.668c-4.664 0-8.446-3.782-8.446-8.446v-101.895c0-4.664 3.782-8.446 8.446-8.446h117.668c4.664 0 8.446 3.782 8.446 8.446v101.895c0 4.664-3.782 8.446-8.446 8.446zM663.507 193.181h-117.671c-4.664 0-8.446-3.782-8.446-8.446v-101.895c0-4.664 3.782-8.446 8.446-8.446h117.671c4.664 0 8.446 3.782 8.446 8.446v101.895c0 4.664-3.782 8.446-8.446 8.446zM855.538 193.181h-117.671c-4.664 0-8.446-3.782-8.446-8.446v-101.895c0-4.664 3.782-8.446 8.446-8.446h117.671c4.664 0 8.446 3.782 8.446 8.446v101.895c0 4.664-3.782 8.446-8.446 8.446z" />
<glyph unicode="&#xe937;" glyph-name="calendar_fill_alt" d="M891.482 899.765h-90.353v-90.353c0-18.071-15.059-30.118-30.118-30.118s-30.118 12.047-30.118 30.118v90.353h-481.882v-90.353c0-18.071-15.059-30.118-30.118-30.118s-30.118 12.047-30.118 30.118v90.353h-90.353c-45.176 0-78.306-39.153-78.306-90.353v-108.424h963.765v108.424c0 51.2-54.212 90.353-102.4 90.353zM30.118 637.741v-551.153c0-54.212 33.129-90.353 81.318-90.353h783.059c48.188 0 102.4 39.153 102.4 90.353v551.153zM298.165 131.765h-72.282c-12.047 0-24.094 9.035-24.094 24.094v75.294c0 12.047 9.035 24.094 24.094 24.094h75.294c12.047 0 24.094-9.035 24.094-24.094v-75.294c-3.012-15.059-12.047-24.094-27.106-24.094zM298.165 402.824h-72.282c-12.047 0-24.094 9.035-24.094 24.094v75.294c0 12.047 9.035 24.094 24.094 24.094h75.294c12.047 0 24.094-9.035 24.094-24.094v-75.294c-3.012-15.059-12.047-24.094-27.106-24.094zM539.106 131.765h-75.294c-12.047 0-24.094 9.035-24.094 24.094v75.294c0 12.047 9.035 24.094 24.094 24.094h75.294c12.047 0 24.094-9.035 24.094-24.094v-75.294c0-15.059-9.035-24.094-24.094-24.094zM539.106 402.824h-75.294c-12.047 0-24.094 9.035-24.094 24.094v75.294c0 12.047 9.035 24.094 24.094 24.094h75.294c12.047 0 24.094-9.035 24.094-24.094v-75.294c0-15.059-9.035-24.094-24.094-24.094zM780.047 131.765h-75.294c-12.047 0-24.094 9.035-24.094 24.094v75.294c0 12.047 9.035 24.094 24.094 24.094h75.294c12.047 0 24.094-9.035 24.094-24.094v-75.294c0-15.059-9.035-24.094-24.094-24.094zM780.047 402.824h-75.294c-12.047 0-24.094 9.035-24.094 24.094v75.294c0 12.047 9.035 24.094 24.094 24.094h75.294c12.047 0 24.094-9.035 24.094-24.094v-75.294c0-15.059-9.035-24.094-24.094-24.094z" />
<glyph unicode="&#xe938;" glyph-name="check" d="M1012.502 824.863c-15.715 16.272-41.645 16.723-57.917 1.008-0.341-0.329-0.677-0.665-1.008-1.008l-667.36-667.363-216.801 216.801c-16.272 15.715-42.202 15.264-57.917-1.008-15.331-15.874-15.331-41.038 0-56.911l245.76-245.76c15.996-15.991 41.923-15.991 57.917 0l696.319 696.321c16.272 15.718 16.723 41.647 1.008 57.919z" />
<glyph unicode="&#xe939;" glyph-name="check_alt" d="M1000.205 792.633c-31.683 31.725-83.13 31.705-114.855 0l-516.929-516.949-229.753 229.751c-31.725 31.725-83.15 31.725-114.875 0s-31.725-83.15 0-114.875l287.178-287.178c15.852-15.852 36.639-23.799 57.428-23.799s41.595 7.926 57.448 23.799l574.359 574.379c31.725 31.703 31.725 83.15 0 114.873z" />
<glyph unicode="&#xe93a;" glyph-name="check_circle" d="M512-64c282.302 0 512 229.677 512 512 0 48.729-6.802 96.75-20.271 142.74-6.635 22.615-30.25 35.604-52.927 28.969-22.635-6.615-35.583-30.312-28.969-52.927 11.156-38.208 16.833-78.188 16.833-118.781 0-235.26-191.406-426.667-426.667-426.667s-426.667 191.406-426.667 426.667 191.406 426.667 426.667 426.667c85.5 0 167.76-25 237.885-72.281 19.521-13.177 46.063-8 59.219 11.521 13.167 19.542 8.031 46.062-11.51 59.229-84.271 56.823-183.021 86.865-285.594 86.865-282.302 0-512-229.677-512-512s229.698-512 512-512zM951.167 862.167l-439.167-439.146-140.5 140.479c-16.667 16.656-43.667 16.656-60.333 0-16.656-16.667-16.656-43.667 0-60.333l170.667-170.667c8.344-8.344 19.24-12.5 30.167-12.5s21.823 4.156 30.167 12.5l469.333 469.333c16.656 16.667 16.656 43.667 0 60.333-16.667 16.656-43.667 16.656-60.333 0z" />
<glyph unicode="&#xe93b;" glyph-name="check_circle_alt" d="M767.682 616.324c-15.762 16.62-42.040 17.352-58.686 1.55l-265.022-251.338-126.408 129.786c-16.010 16.426-42.26 16.786-58.7 0.774-16.426-15.996-16.772-42.274-0.776-58.7l154.984-159.122c8.122-8.344 18.916-12.55 29.738-12.55 10.268 0 20.536 3.792 28.576 11.388l294.746 279.524c16.632 15.776 17.336 42.054 1.548 58.688zM512 960c-282.32 0-512-229.68-512-512s229.68-512 512-512 512 229.68 512 512-229.68 512-512 512zM512 19.026c-236.53 0-428.974 192.428-428.974 428.974 0 236.53 192.442 428.974 428.974 428.974 236.544 0 428.974-192.442 428.974-428.974 0-236.544-192.43-428.974-428.974-428.974z" />
<glyph unicode="&#xe93c;" glyph-name="check_circle_fill" d="M512 960c-282.328 0-512-229.672-512-512s229.672-512 512-512 512 229.672 512 512-229.672 512-512 512zM771.5 556.5l-277.336-277.328c-8.32-8.32-19.242-12.508-30.164-12.508s-21.844 4.188-30.164 12.508l-138.664 138.664c-16.688 16.68-16.688 43.648 0 60.328 16.68 16.688 43.641 16.688 60.328 0l108.5-108.5 247.172 247.164c16.68 16.688 43.641 16.688 60.328 0 16.68-16.68 16.68-43.641 0-60.328z" />
<glyph unicode="&#xe93d;" glyph-name="check_circle_fill_alt" d="M613.158 325.501c-24.148-24.195-56.32-37.507-90.499-37.507-34.172 0-66.343 13.312-90.491 37.507l-181.334 181.326c-24.187 24.156-37.5 56.32-37.5 90.499s13.312 66.343 37.5 90.491c24.148 24.195 56.32 37.507 90.499 37.507 34.172 0 66.343-13.312 90.491-37.507l90.835-90.788 250.755 250.747c-81.921 69.843-187.99 112.21-304.083 112.21-259.2 0-469.331-210.131-469.331-469.323 0-259.2 210.131-469.331 469.331-469.331 259.193 0 469.323 210.131 469.323 469.331 0 48.507-7.375 95.272-21.031 139.303zM522.659 373.329c-10.922 0-21.844 4.18-30.164 12.5l-181.326 181.334c-16.687 16.68-16.687 43.648 0 60.327 16.68 16.687 43.64 16.687 60.327 0l151.162-151.162 428.503 428.496c16.68 16.68 43.64 16.68 60.327 0 16.68-16.687 16.68-43.648 0-60.335l-458.667-458.659c-8.312-8.32-19.242-12.5-30.164-12.5z" />
<glyph unicode="&#xe93e;" glyph-name="check_double" d="M475.984 344.266c8.922 0 17.798 3.702 24.125 10.97l275.421 315.658c11.626 13.312 10.25 33.533-3.078 45.139-13.267 11.61-33.485 10.282-45.139-3.078l-275.421-315.658c-11.626-13.312-10.25-33.533 3.078-45.139 6.061-5.296 13.546-7.891 21.014-7.891zM985.203 743.75c-13.28 11.594-33.501 10.25-45.139-3.078l-450.314-516.077-217.658 241.642c-11.859 13.139-32.077 14.202-45.203 2.358-13.126-11.827-14.189-32.064-2.358-45.203l127.005-140.998-50.317-57.754-217.61 241.562c-11.859 13.139-32.077 14.202-45.203 2.358s-14.189-32.064-2.358-45.203l241.798-268.39c6.077-6.733 14.72-10.579 23.782-10.579h0.266c9.155 0.077 17.843 4.077 23.859 10.986l68.931 79.12 71.664-79.558c6.077-6.733 14.72-10.579 23.782-10.579h0.25c9.155 0.077 17.843 4.064 23.859 10.97l474.048 543.28c11.619 13.318 10.243 33.52-3.085 45.146z" />
<glyph unicode="&#xe93f;" glyph-name="check_fill" d="M318.401 67.614c0 0-0.001 0-0.001 0-7.814 0-14.566 4.552-17.747 11.148l-0.051 0.118-235.691 497.89c-1.195 2.467-1.894 5.365-1.894 8.427 0 10.876 8.817 19.692 19.692 19.692 4.672 0 8.963-1.627 12.34-4.345l-0.038 0.030 224.492-179.594 610.924 404.128c3.057 2.048 6.819 3.269 10.865 3.269 10.876 0 19.692-8.817 19.692-19.692 0-4.932-1.813-9.44-4.809-12.895l0.021 0.024-622.889-721.376c-3.631-4.189-8.961-6.823-14.905-6.823v0z" />
<glyph unicode="&#xe940;" glyph-name="check_fill_alt" d="M156.402 485.898c-51.578-0.149-93.333-41.996-93.333-93.595 0-22.473 7.92-43.096 21.122-59.23l-0.132 0.166 237.745-291.237c15.698-19.379 39.493-31.665 66.158-31.665 1.711 0 3.411 0.051 5.097 0.15l-0.232-0.011c28.857 1.55 54.91 16.987 71.52 42.368l493.857 795.357c0.081 0.132 0.165 0.264 0.252 0.394 4.634 7.115 3.131 21.215-6.433 30.072-4.664 4.327-10.932 6.982-17.821 6.982-8.166 0-15.46-3.731-20.271-9.582l-0.036-0.045q-0.266-0.327-0.547-0.644l-498.062-562.735c-3.973-4.474-9.741-7.28-16.164-7.28-5.603 0-10.707 2.135-14.544 5.635l0.017-0.015-165.297 150.422c-16.506 15.17-38.612 24.474-62.891 24.493h-0.004z" />
<glyph unicode="&#xe941;" glyph-name="check_fill_alt2" d="M472.59 52.498c-5.71 0.001-10.852 2.431-14.448 6.314l-0.012 0.013-389.882 421.74c-3.243 3.5-5.232 8.201-5.232 13.367 0 10.876 8.816 19.692 19.692 19.692h187.668c5.921-0.001 11.232-2.614 14.844-6.749l130.32-149.929c14.082 30.102 41.342 80.223 89.179 141.296 70.719 90.289 202.26 223.076 427.311 342.947 2.68 1.455 5.868 2.311 9.256 2.311 10.876 0 19.692-8.817 19.692-19.692 0-6.29-2.949-11.891-7.539-15.496l-0.043-0.032c-0.859-0.672-87.631-69.004-187.494-194.166-91.908-115.18-214.083-303.518-274.202-546.658-2.194-8.66-9.918-14.965-19.115-14.966v0z" />
<glyph unicode="&#xe942;" glyph-name="check_square" d="M1008.897 840.532c-20.142 20.142-52.788 20.135-72.909-0.007l-462.68-462.756-213.137 213.144c-20.142 20.135-52.788 20.142-72.909 0.007-20.142-20.135-20.142-52.781-0.007-72.909l249.598-249.612c9.672-9.672 22.781-15.103 36.461-15.103 13.673 0 26.789 5.431 36.461 15.103l499.135 499.224c20.121 20.128 20.121 52.774-0.014 72.909zM897.575 510.113c-28.473 0-51.557-23.077-51.557-51.557v-382.004h-742.904v742.904h588.232c28.48 0 51.557 23.077 51.557 51.557 0 28.473-23.077 51.557-51.557 51.557h-639.789c-28.473 0-51.557-23.077-51.557-51.557v-846.018c0-28.48 23.084-51.557 51.557-51.557h846.018c28.48 0 51.557 23.077 51.557 51.557v433.561c0 28.473-23.077 51.557-51.557 51.557z" />
<glyph unicode="&#xe943;" glyph-name="check_square_alt" d="M490.664 277.336c-8.188 0-16.383 3.109-22.609 9.383l-138.672 138.664c-12.5 12.508-12.5 32.773 0 45.273 12.508 12.5 32.773 12.5 45.273 0l116.055-116.055 212.055 212.055c12.5 12.5 32.766 12.5 45.266 0s12.5-32.766 0-45.273l-234.664-234.664c-6.32-6.273-14.508-9.383-22.703-9.383zM906.664-64h-789.328c-64.727 0-117.336 52.609-117.336 117.336v789.328c0 64.727 52.609 117.336 117.336 117.336h789.328c64.727 0 117.336-52.609 117.336-117.336v-789.328c0-64.727-52.609-117.336-117.336-117.336zM117.336 896c-29.398 0-53.336-23.938-53.336-53.336v-789.328c0-29.398 23.938-53.336 53.336-53.336h789.328c29.398 0 53.336 23.938 53.336 53.336v789.328c0 29.398-23.938 53.336-53.336 53.336z" />
<glyph unicode="&#xe944;" glyph-name="check_square_fill" d="M1024 842.664c0 64.727-52.609 117.336-117.336 117.336h-789.328c-64.727 0-117.336-52.609-117.336-117.336v-789.328c0-64.727 52.609-117.336 117.336-117.336h789.328c64.727 0 117.336 52.609 117.336 117.336zM771.5 616.828c16.68-16.68 16.68-43.641 0-60.328l-277.336-277.328c-8.32-8.32-19.242-12.508-30.164-12.508s-21.844 4.188-30.164 12.508l-138.664 138.664c-16.688 16.68-16.688 43.648 0 60.328 16.68 16.688 43.641 16.688 60.328 0l108.5-108.5 247.172 247.164c16.68 16.688 43.641 16.688 60.328 0z" />
<glyph unicode="&#xe945;" glyph-name="check_square_fill_alt" d="M613.158 368.157c-24.148-24.195-56.32-37.507-90.499-37.507-34.172 0-66.343 13.312-90.491 37.507l-181.334 181.326c-24.187 24.156-37.5 56.32-37.5 90.499 0 34.172 13.312 66.343 37.5 90.491 24.148 24.195 56.32 37.507 90.499 37.507 34.172 0 66.343-13.312 90.491-37.507l90.835-90.788 286.247 286.247c-4.047 19.281-20.39 34.047-40.914 34.047h-639.993c-70.57 0-127.999-57.429-127.999-127.999v-639.993c0-70.57 57.429-127.999 127.999-127.999h639.993c70.57 0 127.999 57.429 127.999 127.999v459.003zM522.659 415.985c-10.922 0-21.844 4.18-30.164 12.5l-181.326 181.334c-16.687 16.68-16.687 43.648 0 60.327 16.68 16.68 43.64 16.68 60.327 0l151.162-151.162 428.503 428.496c16.68 16.68 43.64 16.68 60.327 0 16.68-16.687 16.68-43.648 0-60.335l-458.667-458.659c-8.312-8.32-19.242-12.5-30.164-12.5z" />
<glyph unicode="&#xe946;" glyph-name="check_square_x" d="M780.19 518.949v-430.080h-682.665v682.667h608.059l107.278 97.522h-812.862v-877.714h877.714v617.326zM954.27 904.656l-529.065-480.793-165.792 165.303-64.366-64.366 234.546-234.544 594.407 546.133z" />
<glyph unicode="&#xe947;" glyph-name="circle_dot" d="M512 960c-282.328 0-512-229.672-512-512s229.672-512 512-512 512 229.672 512 512-229.672 512-512 512zM512 277.336c-94.125 0-170.664 76.539-170.664 170.664s76.539 170.664 170.664 170.664 170.664-76.539 170.664-170.664-76.539-170.664-170.664-170.664z" />
<glyph unicode="&#xe948;" glyph-name="clock" d="M694.432 357.578l-142.774 107.080v218.124c0 21.932-17.728 39.66-39.66 39.66s-39.66-17.728-39.66-39.66v-237.956c0-12.492 5.87-24.272 15.864-31.728l158.636-118.978c7.138-5.354 15.468-7.932 23.756-7.932 12.096 0 23.994 5.434 31.768 15.904 13.17 17.492 9.6 42.358-7.93 55.486zM512 960c-282.334 0-512-229.666-512-512s229.666-512 512-512 512 229.666 512 512-229.666 512-512 512zM512 15.318c-238.55 0-432.682 194.132-432.682 432.682s194.132 432.682 432.682 432.682c238.59 0 432.682-194.132 432.682-432.682s-194.132-432.682-432.682-432.682z" />
<glyph unicode="&#xe949;" glyph-name="clock_alt" d="M615.437 27.319c-8.444-2.104-17.053-3.973-25.598-5.547-22.338-4.154-37.106-25.637-32.974-47.995 2.041-10.999 8.288-20.161 16.769-26.141 8.741-6.152 19.866-8.93 31.202-6.822 10.176 1.889 20.432 4.11 30.495 6.621 22.058 5.49 35.497 27.836 29.994 49.884-5.49 22.067-27.817 35.494-49.888 30zM919.854 579.088c2.884-8.69 8.389-15.785 15.342-20.687 10.31-7.262 23.802-9.705 36.676-5.448 21.585 7.167 33.28 30.443 26.139 52.017-3.253 9.835-6.863 19.701-10.709 29.307-8.444 21.11-32.389 31.387-53.509 22.943-21.099-8.439-31.38-32.391-22.93-53.507 3.231-8.074 6.258-16.362 8.99-24.625zM749.202 86.093c-7.262-4.794-14.757-9.434-22.307-13.782-19.699-11.363-26.445-36.542-15.087-56.232 3.084-5.356 7.191-9.734 11.922-13.080 12.699-8.935 29.945-10.273 44.304-2.001 8.977 5.177 17.902 10.685 26.551 16.403 18.961 12.527 24.18 38.068 11.647 57.038-12.531 18.977-38.061 24.189-57.029 11.653zM1023.608 464.115c-0.896 22.721-20.033 40.405-42.761 39.518-22.699-0.896-40.396-20.040-39.505-42.752 0.341-8.684 0.429-17.497 0.229-26.172-0.319-14.248 6.65-26.949 17.48-34.583 6.452-4.543 14.281-7.293 22.771-7.486 22.721-0.504 41.55 17.517 42.054 40.249 0.227 10.365 0.141 20.867-0.269 31.226zM913.136 194.386c-18.219 13.669-43.995 9.958-57.641-8.228-5.226-6.965-10.729-13.843-16.364-20.467-14.726-17.301-12.646-43.289 4.656-58.026 0.986-0.836 1.983-1.605 3.018-2.327 17.2-12.126 41.105-9.34 55.012 6.98 6.729 7.902 13.289 16.119 19.533 24.438 13.647 18.186 9.954 43.98-8.215 57.63zM973.647 343.194c-21.693 6.802-44.794-5.274-51.592-26.967-2.602-8.288-5.485-16.615-8.598-24.77-6.835-17.953-0.286-37.707 14.726-48.292 2.754-1.935 5.787-3.575 9.082-4.821 21.239-8.105 45.023 2.551 53.119 23.799 3.696 9.696 7.125 19.604 10.227 29.457 6.791 21.697-5.276 44.792-26.965 51.594zM435.836 21.402c-36.804 6.608-72.109 17.861-105.587 33.555-0.396 0.207-0.751 0.442-1.167 0.632-7.889 3.713-15.765 7.691-23.399 11.847-0.026 0.031-0.075 0.051-0.117 0.068-14.006 7.713-27.676 16.247-40.956 25.596-193.644 136.409-240.204 404.929-103.787 598.571 29.663 42.091 65.561 77.207 105.581 105.039 0.493 0.343 0.986 0.685 1.475 1.030 141.025 97.17 332.514 103.719 482.26 3.868l-32.162-46.47c-8.941-12.934-3.44-22.36 12.212-20.951l139.704 12.507c15.673 1.409 25.045 14.966 20.83 30.101l-37.515 135.167c-4.2 15.153-14.953 16.967-23.903 4.035l-32.237-46.58c-109.893 73.769-241.699 101.898-372.523 79.213-13.176-2.28-26.168-5.072-38.981-8.321-0.099-0.018-0.178-0.029-0.258-0.046-0.495-0.121-0.997-0.282-1.479-0.416-112.812-28.97-211.239-94.766-281.472-188.643-0.592-0.702-1.202-1.389-1.761-2.153-2.335-3.146-4.653-6.364-6.923-9.582-3.711-5.274-7.37-10.68-10.87-16.086-0.438-0.652-0.773-1.314-1.156-1.972-57.958-89.811-85.913-193.642-81.119-299.348 0.011-0.348-0.009-0.698 0-1.054 0.464-10.326 1.283-20.795 2.395-31.101 0.059-0.665 0.207-1.294 0.319-1.959 1.149-10.363 2.591-20.751 4.398-31.136 18.367-105.962 68.352-201.311 143.252-275.503 0.174-0.174 0.354-0.363 0.53-0.544 0.062-0.068 0.13-0.103 0.189-0.167 20.123-19.848 42.012-38.206 65.58-54.806 61.678-43.461 130.357-72.188 204.115-85.424 22.38-4.022 43.758 10.876 47.773 33.245 4.013 22.384-10.872 43.78-33.245 47.788zM486.739 776.864c-18.409 0-33.32-14.924-33.32-33.306v-331.825l303.48-156.882c4.884-2.529 10.115-3.72 15.261-3.72 12.054 0 23.696 6.564 29.615 18.017 8.442 16.346 2.054 36.428-14.292 44.869l-267.462 138.275v291.265c-0.002 18.382-14.896 33.306-33.282 33.306z" />
<glyph unicode="&#xe94a;" glyph-name="clock_alt_2" d="M512 793.043c12.243 0 22.261 10.017 22.261 22.261v11.13c0 12.243-10.017 22.261-22.261 22.261s-22.261-10.017-22.261-22.261v-11.13c0-12.243 10.017-22.261 22.261-22.261zM512 102.957c-12.243 0-22.261-10.017-22.261-22.261v-11.13c0-12.243 10.017-22.261 22.261-22.261s22.261 10.017 22.261 22.261v11.13c0 12.243-10.017 22.261-22.261 22.261zM144.696 470.261h-11.13c-12.243 0-22.261-10.017-22.261-22.261s10.017-22.261 22.261-22.261h11.13c12.243 0 22.261 10.017 22.261 22.261s-10.017 22.261-22.261 22.261zM890.435 470.261h-11.13c-12.243 0-22.261-10.017-22.261-22.261s10.017-22.261 22.261-22.261h11.13c12.243 0 22.261 10.017 22.261 22.261s-10.017 22.261-22.261 22.261zM260.452 730.713c-8.904 8.904-22.261 8.904-31.165 0s-8.904-22.261 0-31.165l7.791-7.791c4.452-4.452 10.017-6.678 15.583-6.678s11.13 2.226 15.583 6.678c8.904 8.904 8.904 22.261 0 31.165l-7.791 7.791zM237.078 204.243l-7.791-7.791c-8.904-8.904-8.904-22.261 0-31.165 4.452-4.452 10.017-6.678 15.583-6.678s11.13 2.226 15.583 6.678l7.791 7.791c8.904 8.904 8.904 22.261 0 31.165s-22.261 8.904-31.165 0zM763.548 730.713l-7.791-7.791c-8.904-8.904-8.904-22.261 0-31.165 4.452-4.452 10.017-6.678 15.583-6.678s11.13 2.226 15.583 6.678l7.791 7.791c8.904 8.904 8.904 22.261 0 31.165s-22.261 8.904-31.165 0zM534.261 456.904v202.574c0 12.243-10.017 22.261-22.261 22.261s-22.261-10.017-22.261-22.261v-211.478c0-5.565 2.226-11.13 6.678-15.583l243.757-243.757c4.452-4.452 10.017-6.678 15.583-6.678s11.13 2.226 15.583 6.678c8.904 8.904 8.904 22.261 0 31.165l-237.078 237.078zM512 960c-282.713 0-512-229.287-512-512s229.287-512 512-512 512 229.287 512 512-229.287 512-512 512zM512-19.478c-258.226 0-467.478 209.252-467.478 467.478s209.252 467.478 467.478 467.478 467.478-209.252 467.478-467.478-209.252-467.478-467.478-467.478z" />
<glyph unicode="&#xe94b;" glyph-name="close" d="M52.912-64.003c-13.489 0-26.977 5.131-37.225 15.456-20.574 20.574-20.574 53.929 0 74.502l918.614 918.614c20.574 20.574 53.929 20.574 74.502 0s20.574-53.929 0-74.515l-918.601-918.601c-10.325-10.261-23.814-15.456-37.29-15.456zM971.59-64.003c-13.489 0-26.964 5.131-37.225 15.456l-918.678 918.601c-20.574 20.587-20.574 53.942 0 74.515s53.929 20.574 74.515 0l918.601-918.614c20.574-20.574 20.574-53.929 0-74.502-10.325-10.261-23.801-15.456-37.213-15.456z" />
<glyph unicode="&#xe94c;" glyph-name="close_alt" d="M1017.181-16.55c-0.949 1.109-1.984 2.144-3.095 3.095l-461.96 462.241 462.243 461.96c11.12 11.12 11.12 29.15 0 40.27s-29.15 11.12-40.27 0l-461.96-462.243-461.958 462.243c-11.12 11.12-29.15 11.12-40.27 0s-11.12-29.15 0-40.27l462.243-461.96-462.241-461.96c-11.896-10.187-13.282-28.089-3.095-39.985s28.089-13.282 39.985-3.095c1.109 0.949 2.144 1.984 3.095 3.095l462.243 461.96 461.96-462.243c10.187-11.896 28.089-13.282 39.985-3.095 11.896 10.189 13.282 28.091 3.095 39.987z" />
<glyph unicode="&#xe94d;" glyph-name="close_circle" d="M512-64c-282.328 0-512 229.672-512 512s229.672 512 512 512 512-229.672 512-512-229.672-512-512-512zM512 896c-247.039 0-448-200.961-448-448s200.961-448 448-448 448 200.961 448 448-200.961 448-448 448zM353.625 257.625c-8.195 0-16.391 3.109-22.617 9.383-12.5 12.5-12.5 32.766 0 45.266l316.797 316.805c12.508 12.5 32.773 12.5 45.273 0s12.5-32.766 0-45.273l-316.805-316.797c-6.313-6.273-14.5-9.383-22.648-9.383zM670.375 257.625c-8.188 0-16.383 3.109-22.609 9.383l-316.797 316.758c-12.508 12.5-12.508 32.766 0 45.266 12.5 12.508 32.766 12.508 45.266 0l316.797-316.797c12.508-12.5 12.508-32.766 0-45.266-6.266-6.234-14.461-9.344-22.656-9.344z" />
<glyph unicode="&#xe94e;" glyph-name="close_circle_fill" d="M512 960c-282.328 0-512-229.672-512-512s229.672-512 512-512 512 229.672 512 512-229.672 512-512 512zM700.547 319.789c16.68-16.688 16.68-43.648 0-60.336-8.32-8.32-19.242-12.5-30.172-12.5-10.922 0-21.844 4.18-30.164 12.5l-128.211 128.219-128.211-128.219c-8.32-8.32-19.242-12.5-30.164-12.5-10.93 0-21.852 4.18-30.172 12.5-16.68 16.688-16.68 43.648 0 60.336l128.219 128.211-128.219 128.211c-16.68 16.688-16.68 43.648 0 60.336 16.688 16.68 43.648 16.68 60.336 0l128.211-128.219 128.211 128.219c16.688 16.68 43.648 16.68 60.336 0 16.68-16.688 16.68-43.648 0-60.336l-128.219-128.211z" />
<glyph unicode="&#xe94f;" glyph-name="close_fill" d="M605.814 447.162l398.725 398.737c25.948 25.936 25.948 67.871 0 93.808-25.936 25.936-67.871 25.936-93.808 0l-398.737-398.737-398.725 398.737c-25.948 25.936-67.871 25.936-93.808 0-25.948-25.936-25.948-67.871 0-93.808l398.725-398.737-398.725-398.737c-25.948-25.936-25.948-67.871 0-93.808 12.926-12.938 29.921-19.437 46.904-19.437s33.966 6.499 46.904 19.437l398.725 398.737 398.737-398.737c12.938-12.938 29.921-19.437 46.904-19.437s33.966 6.499 46.904 19.437c25.948 25.936 25.948 67.871 0 93.808z" />
<glyph unicode="&#xe950;" glyph-name="close_fill_alt" d="M680.959 447.968l316.788 316.788c35.002 35.002 35.002 91.748 0 126.695l-42.232 42.232c-35.013 35.013-91.759 35.013-126.706 0l-316.777-316.777-316.788 316.842c-35.002 35.002-91.748 35.002-126.695 0l-42.297-42.232c-35.002-35.013-35.002-91.759 0-126.706l316.842-316.842-316.777-316.777c-35.013-35.013-35.013-91.759 0-126.706l42.232-42.232c35.002-35.002 91.748-35.002 126.695 0l316.788 316.788 316.777-316.788c35.013-35.002 91.759-35.002 126.706 0l42.232 42.232c35.002 35.013 35.002 91.759 0 126.706z" />
<glyph unicode="&#xe951;" glyph-name="close_square" d="M353.625 257.625c-8.195 0-16.391 3.109-22.617 9.383-12.5 12.5-12.5 32.766 0 45.266l316.758 316.805c12.5 12.5 32.766 12.5 45.266 0 12.508-12.5 12.508-32.766 0-45.273l-316.758-316.797c-6.266-6.273-14.461-9.383-22.648-9.383zM670.375 257.625c-8.188 0-16.383 3.109-22.609 9.383l-316.758 316.758c-12.5 12.5-12.5 32.766 0 45.266 12.5 12.508 32.766 12.508 45.266 0l316.758-316.797c12.508-12.5 12.508-32.766 0-45.266-6.266-6.234-14.461-9.344-22.656-9.344zM906.664-64h-789.328c-64.727 0-117.336 52.609-117.336 117.336v789.328c0 64.727 52.609 117.336 117.336 117.336h789.328c64.727 0 117.336-52.609 117.336-117.336v-789.328c0-64.727-52.609-117.336-117.336-117.336zM117.336 896c-29.398 0-53.336-23.938-53.336-53.336v-789.328c0-29.398 23.938-53.336 53.336-53.336h789.328c29.398 0 53.336 23.938 53.336 53.336v789.328c0 29.398-23.938 53.336-53.336 53.336z" />
<glyph unicode="&#xe952;" glyph-name="close_square_fill" d="M906.664 960h-789.328c-64.727 0-117.336-52.609-117.336-117.336v-789.328c0-64.727 52.609-117.336 117.336-117.336h789.328c64.727 0 117.336 52.609 117.336 117.336v789.328c0 64.727-52.609 117.336-117.336 117.336zM700.547 319.789c16.68-16.688 16.68-43.695 0-60.336-8.32-8.32-19.242-12.5-30.172-12.5-10.922 0-21.844 4.18-30.164 12.5l-128.211 128.219-128.211-128.219c-8.32-8.32-19.242-12.5-30.164-12.5-10.93 0-21.852 4.18-30.172 12.5-16.68 16.641-16.68 43.648 0 60.336l128.219 128.211-128.219 128.211c-16.68 16.688-16.68 43.695 0 60.336 16.688 16.68 43.648 16.68 60.336 0l128.211-128.219 128.211 128.219c16.688 16.68 43.648 16.68 60.336 0 16.68-16.641 16.68-43.648 0-60.336l-128.219-128.211z" />
<glyph unicode="&#xe953;" glyph-name="comment_1" d="M934 898.002h-844c-49.626 0-90-40.374-90-90v-480c0-49.626 40.374-90 90-90h212v-210c0-26.782 32.474-39.956 51.212-21.212l231.214 231.212h349.574c49.626 0 90 40.374 90 90v480c0 49.626-40.374 90-90 90zM964 328.002c0-16.542-13.458-30-30-30h-362c-7.956 0-15.586-3.162-21.212-8.788l-188.788-188.786v167.574c0 16.568-13.432 30-30 30h-242c-16.542 0-30 13.458-30 30v480c0 16.542 13.458 30 30 30h844c16.542 0 30-13.458 30-30zM212 658.002h240c16.568 0 30 13.432 30 30s-13.432 30-30 30h-240c-16.568 0-30-13.432-30-30s13.432-30 30-30zM812 598.002h-600c-16.568 0-30-13.432-30-30s13.432-30 30-30h600c16.568 0 30 13.432 30 30s-13.432 30-30 30zM812 478.002h-600c-16.568 0-30-13.432-30-30s13.432-30 30-30h600c16.568 0 30 13.432 30 30s-13.432 30-30 30zM812 718.002h-240c-16.568 0-30-13.432-30-30s13.432-30 30-30h240c16.568 0 30 13.432 30 30s-13.432 30-30 30z" />
<glyph unicode="&#xe954;" glyph-name="comment_1_fill" d="M934 898h-844c-49.626 0-90-40.374-90-90v-480c0-49.626 40.374-90 90-90h212v-210c0-16.584 13.466-30 29.994-30 7.808 0 15.482 3.048 21.22 8.788l231.212 231.212h349.574c49.626 0 90 40.374 90 90v480c0 49.626-40.374 90-90 90zM212 718h240c16.568 0 30-13.432 30-30s-13.432-30-30-30h-240c-16.568 0-30 13.432-30 30s13.432 30 30 30zM812 418h-600c-16.568 0-30 13.432-30 30s13.432 30 30 30h600c16.568 0 30-13.432 30-30s-13.432-30-30-30zM812 538h-600c-16.568 0-30 13.432-30 30s13.432 30 30 30h600c16.568 0 30-13.432 30-30s-13.432-30-30-30zM812 658h-240c-16.568 0-30 13.432-30 30s13.432 30 30 30h240c16.568 0 30-13.432 30-30s-13.432-30-30-30z" />
<glyph unicode="&#xe955;" glyph-name="comment_2" d="M922.829 916.736l-582.69 1.195c-55.808 0-101.205-45.397-101.205-101.205v-87.45l-137.728-0.29c-55.808 0-101.205-45.397-101.205-101.205v-360.806c0-55.808 45.397-101.205 101.188-101.205h103.612v-170.667c0-7.049 4.335-13.38 10.906-15.923 2.014-0.785 4.096-1.143 6.161-1.143 4.71 0 9.335 1.946 12.629 5.581l165.615 182.187 283.75 1.161c55.808 0 101.205 45.397 101.205 101.205v1.929l89.771-98.748c3.294-3.635 7.919-5.581 12.629-5.581 2.065 0 4.147 0.358 6.144 1.143 6.588 2.526 10.923 8.875 10.923 15.923v170.667h18.261c55.808 0 101.205 45.397 101.205 101.205v360.823c0 55.808-45.38 101.188-101.171 101.205zM750.933 268.203c0-36.983-30.089-67.072-67.14-67.072l-291.328-1.195c-4.796-0.017-9.335-2.048-12.561-5.581l-140.971-155.068v143.582c0 9.438-7.646 17.067-17.067 17.067h-120.678c-36.966 0-67.055 30.089-67.055 67.072v360.789c0 36.983 30.089 67.072 67.106 67.072l154.761 0.324c0 0 0 0 0 0s0.034 0 0.034 0l427.827 0.87c36.983 0 67.072-30.089 67.072-67.072v-360.789zM989.867 454.741c0-36.983-30.089-67.072-67.072-67.072h-35.328c-9.438 0-17.067-7.629-17.067-17.067v-143.582l-85.333 93.867v308.122c0 55.808-45.397 101.188-101.222 101.188v0 0h-1.775l-409.003-0.836v87.381c0 36.983 30.089 67.072 67.038 67.072l582.673-1.195c0.017 0 0.017 0 0.034 0 36.983 0 67.072-30.089 67.072-67.072v-360.806zM204.8 508.604c-37.649 0-68.267-30.618-68.267-68.267s30.618-68.267 68.267-68.267 68.267 30.618 68.267 68.267-30.618 68.267-68.267 68.267zM204.8 406.204c-18.825 0-34.133 15.309-34.133 34.133s15.309 34.133 34.133 34.133 34.133-15.309 34.133-34.133-15.309-34.133-34.133-34.133zM392.533 508.604c-37.649 0-68.267-30.618-68.267-68.267s30.618-68.267 68.267-68.267 68.267 30.618 68.267 68.267-30.618 68.267-68.267 68.267zM392.533 406.204c-18.825 0-34.133 15.309-34.133 34.133s15.309 34.133 34.133 34.133 34.133-15.309 34.133-34.133-15.309-34.133-34.133-34.133zM580.267 508.604c-37.649 0-68.267-30.618-68.267-68.267s30.618-68.267 68.267-68.267 68.267 30.618 68.267 68.267-30.618 68.267-68.267 68.267zM580.267 406.204c-18.825 0-34.133 15.309-34.133 34.133s15.309 34.133 34.133 34.133 34.133-15.309 34.133-34.133-15.309-34.133-34.133-34.133z" />
<glyph unicode="&#xe956;" glyph-name="comment_2_alt" d="M922.828 916.736l-582.69 1.195c-55.808 0-101.204-45.397-101.204-101.205v-87.449l-137.729-0.29c-55.808 0-101.205-45.398-101.205-101.206v-360.806c0-55.808 45.397-101.206 101.188-101.206h103.612v-170.666c0-7.048 4.334-13.38 10.906-15.924 2.014-0.784 4.096-1.142 6.16-1.142 4.712 0 9.336 1.944 12.63 5.58l165.614 182.186 283.752 1.162c55.808 0 101.204 45.396 101.204 101.204v1.93l89.772-98.748c3.294-3.636 7.918-5.582 12.628-5.582 2.066 0 4.148 0.358 6.144 1.144 6.588 2.526 10.924 8.874 10.924 15.924v170.666h18.26c55.808 0 101.206 45.398 101.206 101.206v360.823c0 55.808-45.38 101.188-101.172 101.205zM750.934 268.202c0-36.982-30.090-67.072-67.14-67.072l-291.328-1.194c-4.796-0.018-9.336-2.048-12.562-5.58l-140.97-155.068v143.582c0 9.438-7.646 17.066-17.068 17.066h-120.678c-36.966 0-67.055 30.088-67.055 67.072v360.79c0 36.982 30.088 67.072 67.106 67.072l582.623 1.194c36.982 0 67.072-30.088 67.072-67.072v-360.79zM989.866 454.742c0-36.984-30.088-67.072-67.072-67.072h-35.328c-9.438 0-17.066-7.63-17.066-17.068v-143.582l-85.334 93.868v308.122c0 55.808-45.396 101.188-101.222 101.188h-1.774l-409.004-0.836v87.38c0 36.983 30.090 67.072 67.038 67.072l582.674-1.195c0.016 0 0.016 0 0.034 0 36.984 0 67.072-30.089 67.072-67.072v-360.806h-0.018zM204.8 508.604c-37.649 0-68.267-30.618-68.267-68.268 0-37.648 30.618-68.266 68.267-68.266 37.648 0 68.266 30.618 68.266 68.266 0 37.65-30.618 68.268-68.266 68.268zM204.8 406.204c-18.825 0-34.133 15.308-34.133 34.132 0 18.826 15.309 34.134 34.133 34.134s34.134-15.308 34.134-34.134c0-18.824-15.31-34.132-34.134-34.132zM392.534 508.604c-37.65 0-68.268-30.618-68.268-68.268 0-37.648 30.618-68.266 68.268-68.266 37.648 0 68.266 30.618 68.266 68.266 0 37.65-30.618 68.268-68.266 68.268zM392.534 406.204c-18.826 0-34.134 15.308-34.134 34.132 0 18.826 15.308 34.134 34.134 34.134 18.824 0 34.132-15.308 34.132-34.134 0-18.824-15.308-34.132-34.132-34.132zM580.266 508.604c-37.648 0-68.266-30.618-68.266-68.268 0-37.648 30.618-68.266 68.266-68.266 37.65 0 68.268 30.618 68.268 68.266 0 37.65-30.618 68.268-68.268 68.268zM580.266 406.204c-18.824 0-34.132 15.308-34.132 34.132 0 18.826 15.308 34.134 34.132 34.134 18.826 0 34.134-15.308 34.134-34.134 0-18.824-15.308-34.132-34.134-34.132z" />
<glyph unicode="&#xe957;" glyph-name="comment_2_fill" d="M922.829 916.736l-582.69 1.195c-55.808 0-101.205-45.397-101.205-101.205v-53.316l444.843 0.922c74.701 0 135.424-60.706 135.424-135.322v-360.823c0-10.82-1.417-21.299-3.823-31.403l59.46-65.417c3.294-3.635 7.919-5.581 12.629-5.581 2.065 0 4.147 0.358 6.144 1.143 6.588 2.526 10.923 8.875 10.923 15.923v170.667h18.261c55.808 0 101.205 45.397 101.205 101.205v360.806c0 55.808-45.397 101.205-101.171 101.205zM683.844 730.197l-582.639-1.195c-55.808 0-101.205-45.397-101.205-101.205v-360.806c0-55.808 45.397-101.205 101.188-101.205h103.612v-170.667c0-7.049 4.335-13.38 10.906-15.923 2.014-0.785 4.096-1.143 6.161-1.143 4.71 0 9.335 1.946 12.629 5.581l165.615 182.187 283.75 1.161c55.808 0 101.205 45.397 101.205 101.205v360.823c0 55.808-45.397 101.188-101.222 101.188zM204.8 372.070c-37.649 0-68.267 30.618-68.267 68.267s30.618 68.267 68.267 68.267 68.267-30.618 68.267-68.267-30.618-68.267-68.267-68.267zM392.533 372.070c-37.649 0-68.267 30.618-68.267 68.267s30.618 68.267 68.267 68.267 68.267-30.618 68.267-68.267-30.618-68.267-68.267-68.267zM580.267 372.070c-37.649 0-68.267 30.618-68.267 68.267s30.618 68.267 68.267 68.267 68.267-30.618 68.267-68.267-30.618-68.267-68.267-68.267z" />
<glyph unicode="&#xe958;" glyph-name="comment_3" d="M170.667 525.397h221.867c9.438 0 17.067 7.646 17.067 17.067s-7.629 17.067-17.067 17.067h-221.867c-9.438 0-17.067-7.646-17.067-17.067s7.629-17.067 17.067-17.067zM614.4 457.131h-443.733c-9.438 0-17.067-7.646-17.067-17.067s7.629-17.067 17.067-17.067h443.733c9.438 0 17.067 7.646 17.067 17.067s-7.629 17.067-17.067 17.067zM614.4 354.731h-443.733c-9.438 0-17.067-7.646-17.067-17.067s7.629-17.067 17.067-17.067h443.733c9.438 0 17.067 7.646 17.067 17.067s-7.629 17.067-17.067 17.067zM922.829 916.736l-582.69 1.195c-55.808 0-101.205-45.397-101.205-101.205v-87.45l-137.728-0.29c-55.808 0-101.205-45.397-101.205-101.205v-360.806c0-55.808 45.397-101.188 101.205-101.188h103.595v-170.667c0-7.049 4.335-13.38 10.923-15.923 1.997-0.768 4.079-1.143 6.144-1.143 4.71 0 9.335 1.963 12.629 5.581l165.615 182.187 283.75 1.161c55.808 0 101.205 45.397 101.205 101.188v1.929l89.771-98.748c3.294-3.618 7.919-5.581 12.629-5.581 2.065 0 4.147 0.375 6.144 1.143 6.588 2.543 10.923 8.875 10.923 15.923v170.667h18.261c55.808 0 101.205 45.397 101.205 101.188v360.841c0 55.791-45.38 101.188-101.171 101.205zM750.933 268.186c0-36.983-30.089-67.055-67.14-67.055l-291.328-1.195c-4.779-0.017-9.353-2.048-12.561-5.581l-140.971-155.085v143.599c0 9.421-7.629 17.067-17.067 17.067h-120.661c-36.983 0-67.072 30.089-67.072 67.055v360.806c0 36.983 30.089 67.072 67.106 67.072l154.761 0.324c0 0 0 0 0 0 0.017 0 0.017 0 0.034 0l427.827 0.887c36.983 0 67.072-30.089 67.072-67.072v-360.823zM989.867 454.724c0-36.983-30.089-67.055-67.072-67.055h-35.328c-9.438 0-17.067-7.646-17.067-17.067v-143.599l-85.333 93.867v308.122c0 55.808-45.397 101.205-101.239 101.205l-410.761-0.836v87.381c0 36.983 30.089 67.072 67.038 67.072l582.673-1.195c0.017 0 0.017 0 0.034 0 36.983 0 67.072-30.089 67.072-67.072v-360.823z" />
<glyph unicode="&#xe959;" glyph-name="comment_3_alt" d="M170.666 525.398h221.866c9.438 0 17.068 7.646 17.068 17.066s-7.63 17.066-17.068 17.066h-221.866c-9.438 0-17.067-7.646-17.067-17.066s7.629-17.066 17.067-17.066zM614.4 457.13h-443.734c-9.438 0-17.067-7.646-17.067-17.066s7.629-17.066 17.067-17.066h443.734c9.438 0 17.066 7.646 17.066 17.066s-7.628 17.066-17.066 17.066zM614.4 354.73h-443.734c-9.438 0-17.067-7.646-17.067-17.066s7.629-17.066 17.067-17.066h443.734c9.438 0 17.066 7.646 17.066 17.066s-7.628 17.066-17.066 17.066zM922.828 916.736l-582.69 1.195c-55.808 0-101.204-45.397-101.204-101.205v-87.449l-137.729-0.29c-55.808 0-101.205-45.398-101.205-101.206v-360.806c0-55.808 45.397-101.188 101.205-101.188h103.595v-170.668c0-7.048 4.334-13.38 10.922-15.922 1.998-0.768 4.080-1.144 6.144-1.144 4.712 0 9.336 1.962 12.63 5.582l165.614 182.186 283.752 1.16c55.808 0 101.204 45.398 101.204 101.188v1.93l89.772-98.748c3.294-3.618 7.918-5.582 12.628-5.582 2.066 0 4.148 0.376 6.144 1.144 6.588 2.542 10.924 8.874 10.924 15.924v170.666h18.26c55.808 0 101.206 45.398 101.206 101.188v360.841c0 55.791-45.38 101.188-101.172 101.205zM750.934 268.186c0-36.984-30.090-67.056-67.14-67.056l-291.328-1.194c-4.78-0.018-9.354-2.048-12.562-5.58l-140.97-155.086v143.6c0 9.42-7.63 17.066-17.068 17.066h-120.661c-36.984 0-67.072 30.088-67.072 67.054v360.808c0 36.982 30.088 67.072 67.106 67.072l154.761 0.324c0.018 0 0.018 0 0.034 0l427.828 0.888c36.982 0 67.072-30.090 67.072-67.072v-360.824zM989.866 454.724c0-36.984-30.088-67.054-67.072-67.054h-35.328c-9.438 0-17.066-7.646-17.066-17.068v-143.598l-85.334 93.866v308.122c0 55.808-45.396 101.206-101.238 101.206l-410.762-0.836v87.38c0 36.983 30.090 67.072 67.038 67.072l582.674-1.195c0.016 0 0.016 0 0.034 0 36.984 0 67.072-30.089 67.072-67.072v-360.824h-0.018z" />
<glyph unicode="&#xe95a;" glyph-name="comment_3_fill" d="M683.827 730.197l-582.622-1.195c-55.808 0-101.205-45.397-101.205-101.205v-360.806c0-55.808 45.397-101.188 101.205-101.188h103.595v-170.667c0-7.049 4.335-13.38 10.923-15.923 1.997-0.768 4.079-1.143 6.144-1.143 4.71 0 9.335 1.963 12.629 5.581l165.615 182.187 283.75 1.161c55.808 0 101.205 45.397 101.205 101.188v360.806c0 55.808-45.397 101.205-101.239 101.205zM170.667 559.531h221.867c9.438 0 17.067-7.646 17.067-17.067s-7.629-17.067-17.067-17.067h-221.867c-9.438 0-17.067 7.646-17.067 17.067s7.629 17.067 17.067 17.067zM614.4 320.597h-443.733c-9.438 0-17.067 7.646-17.067 17.067s7.629 17.067 17.067 17.067h443.733c9.438 0 17.067-7.646 17.067-17.067s-7.629-17.067-17.067-17.067zM614.4 422.997h-443.733c-9.438 0-17.067 7.646-17.067 17.067s7.629 17.067 17.067 17.067h443.733c9.438 0 17.067-7.646 17.067-17.067s-7.629-17.067-17.067-17.067zM922.829 916.736l-582.69 1.195c-55.808 0-101.205-45.397-101.205-101.205v-53.316l444.826 0.922c74.701 0 135.441-60.706 135.441-135.339v-396.425l55.637-61.201c3.294-3.618 7.919-5.581 12.629-5.581 2.065 0 4.147 0.375 6.144 1.143 6.588 2.543 10.923 8.875 10.923 15.923v170.667h18.261c55.808 0 101.205 45.397 101.205 101.188v360.823c0 55.808-45.397 101.205-101.171 101.205z" />
<glyph unicode="&#xe95b;" glyph-name="comment_4" d="M289.2 921.868v-208.49h-289.2v-541.132h128.534v-198.112l218.316 198.112h387.95v170.758l176.734-160.378v198.112h112.466v541.13zM674.8 232.244h-351.116l-135.15-122.642v122.642h-128.534v421.132h614.8zM964 440.736h-112.466v-122.644l-116.734 105.93v289.354h-385.6v148.492h614.8zM126.4 536.962h482v-60h-482zM190.666 408.66h353.466v-60h-353.466z" />
<glyph unicode="&#xe95c;" glyph-name="comment_4_fill" d="M0 172.91h128.502v-197.82l218.454 197.82h387.916v540h-734.872zM544.126 348.91h-353.38v60h353.38zM126.494 536.91h481.882v-60h-481.882zM289.13 920.91v-148h505.976v-484.36l116.454-105.46v197.82h112.44v540z" />
<glyph unicode="&#xe95d;" glyph-name="comment_5" d="M914.592 960h-805.184c-60.399-0.064-109.344-49.009-109.408-109.402v-549.19c0.064-60.399 49.009-109.344 109.402-109.408h114.598v-224c0.004-17.67 14.329-31.993 32-31.993 8.835 0 16.833 3.58 22.624 9.369l246.64 246.624h389.328c60.399 0.064 109.344 49.009 109.408 109.402v549.19c-0.064 60.399-49.009 109.344-109.402 109.408h-0.006zM960 301.408c-0.027-25.067-20.341-45.381-45.405-45.408h-402.595c-8.836-0.002-16.834-3.585-22.624-9.376l-201.376-201.36v178.736c0 17.673-14.327 32-32 32v0h-146.592c-25.067 0.027-45.381 20.341-45.408 45.405v549.187c0.027 25.067 20.341 45.381 45.405 45.408h805.187c25.067-0.027 45.381-20.341 45.408-45.405v-0.003zM768 736h-512c-17.673 0-32-14.327-32-32s14.327-32 32-32v0h512c17.673 0 32 14.327 32 32s-14.327 32-32 32v0zM768 480h-512c-17.673 0-32-14.327-32-32s14.327-32 32-32v0h512c17.673 0 32 14.327 32 32s-14.327 32-32 32v0z" />
<glyph unicode="&#xe95e;" glyph-name="comment_5_fill" d="M914.592 928h-805.184c-42.751 0-77.408-34.657-77.408-77.408v0-549.184c0-42.751 34.657-77.408 77.408-77.408v0h146.592v-256l256 256h402.592c42.751 0 77.408 34.657 77.408 77.408v0 549.184c0 42.751-34.657 77.408-77.408 77.408v0zM768 416h-512c-17.673 0-32 14.327-32 32s14.327 32 32 32v0h512c17.673 0 32-14.327 32-32s-14.327-32-32-32v0zM768 672h-512c-17.673 0-32 14.327-32 32s14.327 32 32 32v0h512c17.673 0 32-14.327 32-32s-14.327-32-32-32v0z" />
<glyph unicode="&#xe95f;" glyph-name="comment_6" d="M928 0c-0.015 0-0.034 0-0.052 0-9.859 0-18.677 4.459-24.547 11.47l-0.041 0.050-140.8 168.96c-5.911 7.061-14.729 11.52-24.588 11.52-0.018 0-0.037 0-0.055 0h-577.917c-53.019 0-96 42.981-96 96v0 512c0 53.019 42.981 96 96 96v0h704c53.019 0 96-42.981 96-96v0-768c-0.006-13.764-8.702-25.496-20.898-30.008l-0.222-0.072c-3.236-1.212-6.975-1.915-10.878-1.92h-0.002zM160 832c-17.673 0-32-14.327-32-32v0-512c0-17.673 14.327-32 32-32v0h577.92c0.046 0 0.101 0 0.156 0 29.578 0 56.032-13.376 73.642-34.41l0.122-0.15 84.16-101.12v679.68c0 17.673-14.327 32-32 32v0zM832 704c0 17.673-14.327 32-32 32v0h-576c-17.673 0-32-14.327-32-32s14.327-32 32-32v0h576c17.673 0 32 14.327 32 32v0zM832 544c0 17.673-14.327 32-32 32v0h-576c-17.673 0-32-14.327-32-32s14.327-32 32-32v0h576c17.673 0 32 14.327 32 32v0zM832 384c0 17.673-14.327 32-32 32v0h-576c-17.673 0-32-14.327-32-32s14.327-32 32-32v0h576c17.673 0 32 14.327 32 32v0z" />
<glyph unicode="&#xe960;" glyph-name="comment_6_fill" d="M864 896h-704c-53.019 0-96-42.981-96-96v0-512c0-53.019 42.981-96 96-96v0h577.92c0.015 0 0.034 0 0.052 0 9.859 0 18.677-4.459 24.547-11.47l0.041-0.050 140.8-168.96c5.911-7.064 14.73-11.524 24.591-11.524 3.921 0 7.678 0.705 11.15 1.996l-0.221-0.072c12.418 4.584 21.114 16.316 21.12 30.079v768.001c0 53.019-42.981 96-96 96v0zM800 352h-576c-17.673 0-32 14.327-32 32s14.327 32 32 32v0h576c17.673 0 32-14.327 32-32s-14.327-32-32-32v0zM800 512h-576c-17.673 0-32 14.327-32 32s14.327 32 32 32v0h576c17.673 0 32-14.327 32-32s-14.327-32-32-32v0zM800 672h-576c-17.673 0-32 14.327-32 32s14.327 32 32 32v0h576c17.673 0 32-14.327 32-32s-14.327-32-32-32v0z" />
<glyph unicode="&#xe961;" glyph-name="comment_7" d="M382.72 621.141h366.080c11.093 0 20.053 8.96 20.053 20.053s-8.96 20.053-20.053 20.053h-366.080c-11.093 0-20.053-8.96-20.053-20.053s8.96-20.053 20.053-20.053zM768.853 523.819c0 11.093-8.96 20.053-20.053 20.053h-569.6c-11.051 0-20.011-8.96-20.053-20.053 0-11.093 8.96-20.053 20.053-20.053h569.6c11.051 0.043 20.011 9.003 20.053 20.053zM615.68 426.795h-436.48c0 0-0.043 0-0.043 0-11.093 0-20.053-9.003-20.053-20.053 0-11.093 9.003-20.053 20.053-20.053h436.48c11.051 0 20.011 8.96 20.053 20.053 0.043 11.051-8.917 20.011-20.011 20.053zM936.107 690.048h-46.933c-11.093 0-20.053-8.96-20.053-20.053s8.96-20.053 20.053-20.053h46.933c24.235-0.213 43.904-19.712 44.373-43.947v-417.92c-0.469-24.235-20.139-43.733-44.373-43.947h-40.533c-10.923-0.171-19.712-9.131-19.627-20.053l-3.84-104.533-104.96 117.76c-3.797 4.267-9.216 6.741-14.933 6.827h-337.067c-23.040 0-43.947 7.253-43.947 59.733 0 11.051-8.96 20.011-20.053 20.053-11.093 0-20.053-8.96-20.053-20.053 0-86.613 52.48-99.84 84.053-99.84h327.68l98.987-111.36c8.107-8.875 19.541-13.952 31.573-14.080 5.12-0.085 10.24 0.939 14.933 2.987 16.469 5.973 27.435 21.717 27.307 39.253v82.987h20.48c46.379 0.085 83.968 37.675 84.053 84.053v418.133c0 0.085 0 0.171 0 0.256-0.085 46.336-37.717 83.84-84.053 83.797zM225.707 581.461c5.248-0.128 10.325 1.877 14.080 5.547l87.040 83.84c0.256 0 0.427 0.171 0.427 0.427 31.573 33.067 31.573 85.12 0 118.187-27.989 26.795-71.808 27.904-101.12 2.56-29.483 25.344-73.387 24.235-101.547-2.56-15.189-15.915-23.595-37.12-23.467-59.093-0.171-21.931 8.235-43.093 23.467-58.88v-0.427h0.427l87.040-84.053c3.627-3.584 8.533-5.589 13.653-5.547zM153.173 761.728c14.549 12.501 36.309 11.349 49.493-2.56l0.853-0.853c5.675-6.741 13.824-10.923 22.613-11.52 8.661 0.768 16.683 4.992 22.187 11.733l0.853 0.853c13.099 13.611 34.432 14.933 49.067 2.987 0-0.213 0.171-0.427 0.427-0.427 16.213-17.579 16.213-44.715 0-62.293l-72.96-70.613-72.96 70.4c-15.872 17.792-15.701 44.715 0.427 62.293zM852.907 349.141v478.293c0 49.707-40.32 90.027-90.027 90.027h-669.013c-49.579-0.171-89.728-40.277-90.027-89.813v-478.293c0.171-49.664 40.363-89.856 90.027-90.027l29.44-0.213v-101.12c0-12.032 5.12-23.509 14.123-31.531 17.408-15.573 44.16-14.037 59.691 3.371l114.773 129.28h450.987c49.707 0 90.027 40.277 90.027 90.027zM302.933 299.221c-5.717-0.085-11.136-2.56-14.933-6.827l-124.587-134.4v121.387c0 0.043 0 0.043 0 0.085-0.043 11.051-9.003 20.011-20.053 19.968h-49.493c-27.563 0.043-49.877 22.357-49.92 49.92v478.293c0.171 27.477 22.443 49.749 49.92 49.92h669.013c27.563-0.043 49.877-22.357 49.92-49.92v-478.507c0-0.128 0-0.299 0-0.427-0.128-27.435-22.485-49.621-49.92-49.493h-459.947z" />
<glyph unicode="&#xe962;" glyph-name="comment_7_alt" d="M382.72 621.142h366.080c11.092 0 20.052 8.96 20.052 20.052 0 11.094-8.96 20.054-20.052 20.054h-366.080c-11.094 0-20.054-8.96-20.054-20.054 0-11.092 8.96-20.052 20.054-20.052zM768.854 523.818c0 11.094-8.96 20.054-20.054 20.054h-569.6c-11.051 0-20.011-8.96-20.053-20.054 0-11.092 8.96-20.052 20.053-20.052h569.6c11.050 0.042 20.010 9.002 20.054 20.052zM615.68 426.794h-436.523c-11.093 0-20.053-9.002-20.053-20.052 0-11.094 9.003-20.054 20.053-20.054h436.479c11.052 0 20.012 8.96 20.054 20.054 0.042 11.050-8.918 20.010-20.010 20.052zM852.906 349.142v478.293c0 49.707-40.32 90.027-90.026 90.027h-669.013c-49.579-0.171-89.728-40.277-90.027-89.813v-478.294c0.171-49.664 40.363-89.856 90.027-90.026l29.44-0.214v-101.12c0-12.032 5.12-23.508 14.123-31.53 17.408-15.574 44.16-14.038 59.691 3.37l114.774 129.28h450.986c49.706 0 90.026 40.278 90.026 90.028zM302.934 299.222c-5.718-0.086-11.136-2.56-14.934-6.828l-124.587-134.4v121.388c0 0.042 0 0.042 0 0.084-0.043 11.052-9.003 20.012-20.053 19.968h-49.493c-27.563 0.044-49.877 22.358-49.92 49.92v478.294c0.171 27.477 22.443 49.749 49.92 49.92h669.013c27.562-0.043 49.878-22.357 49.92-49.92v-478.506c0-0.128 0-0.3 0-0.428-0.128-27.434-22.486-49.62-49.92-49.492h-459.946zM936.106 690.048h-46.934c-11.092 0-20.052-8.96-20.052-20.054 0-11.092 8.96-20.052 20.052-20.052h46.934c24.234-0.214 43.904-19.712 44.374-43.948v-417.918c-0.47-24.236-20.14-43.734-44.374-43.948h-40.534c-10.922-0.17-19.712-9.13-19.626-20.052l-3.84-104.534-104.96 117.76c-3.798 4.266-9.216 6.74-14.934 6.826h-337.066c-23.040 0-43.946 7.254-43.946 59.734 0 11.050-8.96 20.010-20.054 20.052-11.094 0-20.054-8.96-20.054-20.052 0-86.614 52.48-99.84 84.054-99.84h327.68l98.986-111.36c8.108-8.876 19.542-13.952 31.574-14.080 5.12-0.086 10.24 0.938 14.934 2.986 16.468 5.974 27.434 21.718 27.306 39.254v82.986h20.48c46.378 0.086 83.968 37.674 84.054 84.054v418.132c0 0.086 0 0.172 0 0.256-0.086 46.336-37.718 83.84-84.054 83.798zM225.706 581.462c5.248-0.128 10.326 1.876 14.080 5.546l87.040 83.84c0.256 0 0.428 0.17 0.428 0.426 31.572 33.068 31.572 85.12 0 118.187-27.99 26.795-71.808 27.904-101.12 2.56-29.484 25.344-73.388 24.235-101.548-2.56-15.189-15.915-23.595-37.119-23.467-59.093-0.171-21.93 8.235-43.094 23.467-58.88v-0.426h0.427l87.041-84.054c3.626-3.584 8.532-5.59 13.652-5.546zM153.173 761.728c14.549 12.501 36.309 11.349 49.493-2.56l0.854-0.854c5.674-6.74 13.824-10.922 22.614-11.52 8.66 0.768 16.682 4.992 22.186 11.734l0.854 0.854c13.098 13.61 34.432 14.933 49.066 2.986 0-0.213 0.17-0.427 0.426-0.427 16.214-17.579 16.214-44.715 0-62.293l-72.96-70.614-72.96 70.4c-15.872 17.792-15.701 44.716 0.427 62.294z" />
<glyph unicode="&#xe963;" glyph-name="comment_8" d="M767.332 408.003c0-22.092-17.908-40-40-40h-38.668c-22.092 0-40 17.908-40 40s17.908 40 40 40h38.668c22.092 0 40-17.908 40-40zM549.333 448.003h-273.332c-22.092 0-40-17.908-40-40s17.908-40 40-40h273.332c22.092 0 40 17.908 40 40s-17.908 40-40 40zM747.998 684.002h-471.997c-22.092 0-40-17.908-40-40s17.908-40 40-40h471.997c22.092 0 40 17.908 40 40s-17.908 40-40 40zM1023.996 800.001v-547.663c0-88.223-71.776-159.999-159.999-159.999h-415.096l-128.323-128.325c-60.076-60.074-163.243-17.046-163.243 67.618v60.73c-87.001 1.424-157.333 72.642-157.333 159.977v547.663c0 88.223 71.776 159.999 159.999 159.999h703.996c88.225 0 159.999-71.776 159.999-159.999zM943.996 800.001c0 44.112-35.888 80-80 80h-703.996c-44.112 0-80-35.888-80-80v-547.663c0-44.112 35.888-80 80-80 42.642 0 77.334-34.692 77.334-77.334v-63.374c0-13.838 16.86-20.864 26.674-11.050l129.105 129.105c14.608 14.606 34.028 22.65 54.684 22.65h416.202c44.112 0 80 35.888 80 80v547.665z" />
<glyph unicode="&#xe964;" glyph-name="comment_9" d="M897.919 774.715c-18.638 70.167-83.323 121.696-156.779 121.696h-578.878c-88.805 0-162.261-72.36-162.261-162.261v-268.608c0-75.649 53.722-141.43 126.081-157.876 17.542-70.167 81.131-121.696 156.779-121.696h24.12v-162.261c0-8.771 5.482-17.542 13.156-21.927 3.289-1.096 6.578-2.193 10.964-2.193 5.482 0 9.867 2.193 14.253 5.482l234.621 180.899h281.764c88.805 0 162.261 72.36 162.261 162.261v268.608c0 76.745-53.722 141.43-126.081 157.876zM120.6 616.839v-257.645c-42.758 16.445-72.36 58.107-72.36 106.347v268.608c0 62.493 51.529 114.021 114.021 114.021h579.974c46.047 0 86.612-28.505 104.154-69.071h-563.529c-88.805 0-162.261-72.36-162.261-162.261zM976.857 348.231h-1.096c0-62.493-51.529-114.021-114.021-114.021h-289.439c-5.482 0-10.964-2.193-14.253-5.482l-202.827-156.779v138.141c0 13.156-10.964 24.12-24.12 24.12h-48.24c-62.493 0-114.021 51.529-114.021 114.021v268.608c0 62.493 51.529 114.021 114.021 114.021h579.974c62.493 0 114.021-51.529 114.021-114.021v-268.608zM818.981 624.514h-493.362c-13.156 0-24.12-10.964-24.12-24.12s10.964-24.12 24.12-24.12h493.362c13.156 0 24.12 10.964 24.12 24.12s-10.964 24.12-24.12 24.12zM818.981 519.263h-493.362c-13.156 0-24.12-10.964-24.12-24.12s10.964-24.12 24.12-24.12h493.362c13.156 0 24.12 10.964 24.12 24.12s-10.964 24.12-24.12 24.12zM818.981 412.916h-493.362c-13.156 0-24.12-10.964-24.12-24.12s10.964-24.12 24.12-24.12h493.362c13.156 0 24.12 10.964 24.12 24.12 0 14.253-10.964 24.12-24.12 24.12z" />
<glyph unicode="&#xe965;" glyph-name="comment_10" d="M878.362 944.672h-576.482c-80.392-0.096-145.536-65.24-145.632-145.623v-279.589h-48.248c-59.618-0.064-107.931-48.373-108-107.983v-244.661c0.064-59.621 48.379-107.936 107.994-108h21.754v-75.498c0.006-17.668 14.331-31.989 32-31.989 8.836 0 16.835 3.581 22.626 9.371l98.126 98.126h211.010c59.617 0.065 107.929 48.374 108 107.983v28.591h22.48l151.378-151.376c5.791-5.79 13.79-9.371 22.626-9.371 17.673 0 32 14.326 32 31.999v0 128.748h48.374c80.393 0.096 145.539 65.242 145.632 145.627v458.009c-0.093 80.396-65.242 145.544-145.629 145.636h-0.009zM537.504 166.816c-0.024-24.291-19.709-43.976-43.998-44h-224.26c0 0-0.001 0-0.001 0-8.836 0-16.836-3.581-22.627-9.372l-52.87-52.862v30.244c0 17.673-14.327 32-32 32v0h-53.748c-24.287 0.028-43.967 19.712-43.99 43.998v244.646c0.028 24.284 19.706 43.962 43.987 43.99h48.251v-114.424c0.093-80.394 65.239-145.54 145.623-145.636h235.633zM960 341.036c-0.051-45.066-36.571-81.586-81.633-81.636h-80.379c-17.673 0-32-14.327-32-32v0-83.494l-106.122 106.122c-5.791 5.791-13.791 9.372-22.627 9.372 0 0-0.001 0-0.001 0h-335.358c-45.064 0.052-81.581 36.57-81.632 81.629v458.005c0.049 45.066 36.567 81.586 81.627 81.638h576.487c45.066-0.049 81.586-36.567 81.638-81.627v-0.005zM795.344 740.746c0-17.673-14.327-32-32-32v0h-346.444c-17.673 0-32 14.327-32 32s14.327 32 32 32v0h346.444c17.673 0 32-14.327 32-32v0zM795.344 570.038c0-17.673-14.327-32-32-32v0h-346.444c-17.673 0-32 14.327-32 32s14.327 32 32 32v0h346.444c17.673 0 32-14.327 32-32v0zM795.344 399.33c0-17.673-14.327-32-32-32v0h-346.444c-17.673 0-32 14.327-32 32s14.327 32 32 32v0h346.444c17.673 0 32-14.327 32-32v0z" />
<glyph unicode="&#xe966;" glyph-name="comment_circle" d="M1025.885 468.717c-3.055 133.961-58.024 258.798-154.758 351.509-96.602 92.571-223.462 142.157-357.181 139.68-133.766 2.508-260.579-47.11-357.173-139.68-96.743-92.711-151.704-217.548-154.766-351.501l-0.008-0.422v-0.422c0.703-136.516 59.156-266.313 160.641-357.283v-123.774c0-24.024 16.773-44.945 39.875-49.758 3.422-0.711 6.867-1.070 10.297-1.070 9.297 0 18.438 2.602 26.484 7.625l99.477 62.149c56.102-19.649 114.641-29.602 174.157-29.602h0.75c3.297-0.063 6.555-0.094 9.844-0.094 130.211 0.008 253.313 49.422 347.603 139.774 96.735 92.711 151.704 217.548 154.758 351.501l0.016 0.688zM829.571 159.208c-85.188-81.641-197.071-125.321-315.032-122.993l-0.328 0.008h-0.328c-55.352-0.125-109.829 9.508-161.837 28.578-12.859 4.711-26.867 3.273-38.438-3.953l-90.914-56.789v113.852c0 12.703-5.523 24.789-15.156 33.156-91.727 79.742-144.735 195.165-145.477 316.704 2.797 117.797 51.172 227.548 136.266 309.095 85.18 81.633 197.094 125.297 315.025 122.985l0.594-0.008 0.594 0.008c117.938 2.289 229.845-41.352 315.032-122.985 85.016-81.477 133.391-191.141 136.258-308.829-2.867-117.696-51.242-227.352-136.258-308.829zM733.954 611.452h-440.017c-16.578 0-30.024-13.438-30.024-30.024s13.445-30.031 30.024-30.031h440.017c16.586 0 30.031 13.445 30.031 30.031s-13.445 30.024-30.031 30.024zM733.954 478.623h-440.017c-16.578 0-30.024-13.445-30.024-30.024 0-16.586 13.445-30.031 30.024-30.031h440.017c16.586 0 30.031 13.445 30.031 30.031 0 16.578-13.445 30.024-30.031 30.024zM733.954 345.795h-216.345c-16.578 0-30.024-13.445-30.024-30.031 0-16.578 13.445-30.024 30.024-30.024h216.345c16.586 0 30.031 13.445 30.031 30.024 0 16.586-13.445 30.031-30.031 30.031z" />
<glyph unicode="&#xe967;" glyph-name="comment_circle_2" d="M509.999 556c22.094 0 40-17.906 40-40s-17.906-40-40-40-40 17.906-40 40 17.906 40 40 40zM649.999 516c0-22.094 17.906-40 40-40s40 17.906 40 40-17.906 40-40 40-40-17.906-40-40zM289.999 516c0-22.094 17.906-40 40-40s40 17.906 40 40-17.906 40-40 40-40-17.906-40-40zM988.826 140.876c46.812-46.812 46.812-122.937 0.023-169.726-23.391-23.391-54.125-35.094-84.851-35.094s-61.461 11.703-84.851 35.094l-219.578 219.086c-4.664 4.656-8.102 10.383-10.016 16.695l-47.828 157.445c-4.242 13.961-0.547 29.117 9.641 39.562 10.187 10.437 25.25 14.5 39.312 10.609l161.445-44.719c6.648-1.844 12.703-5.367 17.586-10.242zM663.178 239.782l148.179-147.851 56.578 56.578-147.304 147.023-81.219 22.5zM932.28 84.282l-7.719 7.711-56.57-56.57 7.695-7.672c15.625-15.633 41-15.633 56.594-0.031 15.602 15.594 15.602 40.969 0 56.562zM534.249 131.094c-7.391-0.32-14.875-0.484-22.25-0.484-64.32 0-126.242 11.977-184.039 35.594-9.844 4.016-20.891 3.953-30.687-0.18l-182.132-76.883 61.367 145.367c6 14.211 3.289 30.617-6.977 42.148-58.57 65.797-89.531 144.523-89.531 227.648 0 207.156 193.797 375.695 431.999 375.695s431.999-168.539 431.999-375.695c0-49.125-12.062-98.445-35.859-146.578-9.789-19.805-1.672-43.797 18.133-53.586s43.797-1.672 53.586 18.133c29.289 59.258 44.141 120.5 44.141 182.031 0 251.273-229.679 455.694-511.999 455.694-282.312 0-511.999-204.421-511.999-455.694 0-94.844 32.156-184.664 93.273-261.265l-90.125-213.484c-6.328-14.992-2.937-32.328 8.57-43.836 7.656-7.656 17.883-11.719 28.289-11.719 5.242 0 10.531 1.031 15.547 3.148l257.859 108.851c62.891-23.492 129.617-35.391 198.586-35.391 8.531 0 17.195 0.195 25.75 0.562 22.070 0.969 39.18 19.641 38.211 41.711-0.961 22.070-19.672 39.234-41.711 38.211z" />
</font>
</defs>
</svg>
